<svg width="776" height="120" viewBox="0 0 776 120" fill="none" xmlns="http://www.w3.org/2000/svg">
<line x1="0.5" y1="59.5" x2="100.5" y2="59.5" stroke="black"/>
<path d="M156.982 91.696C149.942 91.696 143.798 90.608 138.55 88.432C133.366 86.256 129.334 83.28 126.454 79.504C123.638 75.664 122.23 71.312 122.23 66.448C122.23 62.48 122.934 58.864 124.342 55.6C125.75 52.336 127.606 49.616 129.91 47.44C132.278 45.264 134.87 43.824 137.686 43.12C138.134 43.056 138.358 43.216 138.358 43.6C138.358 43.92 138.198 44.176 137.878 44.368C134.55 46.352 131.99 49.2 130.198 52.912C128.47 56.624 127.606 60.752 127.606 65.296C127.606 70.224 128.886 74.48 131.446 78.064C134.006 81.584 137.494 84.272 141.91 86.128C146.39 88.048 151.414 89.008 156.982 89.008C161.782 89.008 166.326 88.144 170.614 86.416C174.966 84.752 178.966 82.448 182.614 79.504C186.262 76.56 189.526 73.232 192.406 69.52C195.35 65.744 197.814 61.808 199.798 57.712C200.246 56.752 200.694 55.824 201.142 54.928C201.59 54.032 202.038 53.136 202.486 52.24C200.95 52.176 199.542 52.112 198.262 52.048C197.046 51.984 196.214 51.952 195.766 51.952C194.038 51.952 192.182 52.08 190.198 52.336C188.278 52.528 186.454 52.944 184.726 53.584C183.062 54.224 181.686 55.216 180.598 56.56C180.15 57.008 179.862 57.36 179.734 57.616C179.67 57.872 179.542 58 179.35 58C179.094 58 178.87 57.808 178.678 57.424C178.486 56.976 178.518 56.496 178.774 55.984C180.246 52.72 182.326 50.512 185.014 49.36C187.702 48.144 190.71 47.536 194.038 47.536C194.742 47.536 196.054 47.664 197.974 47.92C199.958 48.112 202.038 48.336 204.214 48.592C207.03 42.896 209.59 37.744 211.894 33.136C214.262 28.528 216.47 24.688 218.518 21.616C213.91 20.08 209.014 18.736 203.83 17.584C198.646 16.368 193.078 15.76 187.126 15.76C182.71 15.76 178.71 16.368 175.126 17.584C171.542 18.8 168.47 20.432 165.91 22.48C163.414 24.528 161.494 26.8 160.15 29.296C158.806 31.792 158.134 34.288 158.134 36.784C158.134 39.6 158.678 41.84 159.766 43.504C160.854 45.168 162.262 46.384 163.99 47.152C165.782 47.856 167.606 48.208 169.462 48.208C172.214 48.208 174.55 47.536 176.47 46.192C178.454 44.848 180.022 43.344 181.174 41.68C182.326 39.952 183.03 38.544 183.286 37.456C183.542 36.432 183.926 35.92 184.438 35.92C185.206 35.92 185.526 36.368 185.398 37.264C185.014 40.08 184.022 42.512 182.422 44.56C180.822 46.608 178.87 48.176 176.566 49.264C174.262 50.288 171.83 50.8 169.27 50.8C166.646 50.8 164.118 50.16 161.686 48.88C159.254 47.6 157.27 45.744 155.734 43.312C154.198 40.88 153.43 37.936 153.43 34.48C153.43 31.664 154.038 28.88 155.254 26.128C156.534 23.312 158.422 20.752 160.918 18.448C163.478 16.08 166.71 14.192 170.614 12.784C174.518 11.376 179.126 10.672 184.438 10.672C188.214 10.672 192.086 11.12 196.054 12.016C200.022 12.848 204.022 13.936 208.054 15.28C212.15 16.56 216.182 17.904 220.15 19.312C221.494 17.584 222.774 16.272 223.99 15.376C225.206 14.416 226.422 13.936 227.638 13.936C228.15 13.936 228.502 14.064 228.694 14.32C228.886 14.512 228.982 14.704 228.982 14.896C228.982 15.152 228.886 15.44 228.694 15.76C228.502 16.08 228.15 16.24 227.638 16.24C225.526 16.24 223.542 17.424 221.686 19.792C226.294 21.328 230.71 22.704 234.934 23.92C239.222 25.072 243.19 25.648 246.838 25.648C249.654 25.648 251.51 25.36 252.406 24.784C253.302 24.144 253.75 23.28 253.75 22.192C253.75 21.488 253.974 21.136 254.422 21.136C254.742 21.136 255.03 21.36 255.286 21.808C255.606 22.192 255.766 22.672 255.766 23.248C255.766 24.784 254.902 26.032 253.174 26.992C251.51 27.952 249.174 28.432 246.166 28.432C242.198 28.432 238.07 27.792 233.782 26.512C229.494 25.168 224.95 23.696 220.15 22.096C218.422 24.976 216.726 28.752 215.062 33.424C213.398 38.032 211.446 43.248 209.206 49.072C211.958 49.328 214.87 49.552 217.942 49.744C221.014 49.872 223.51 49.936 225.43 49.936C226.07 49.936 226.39 50.128 226.39 50.512C226.39 51.024 225.654 51.472 224.182 51.856C223.222 52.112 221.59 52.304 219.286 52.432C217.046 52.56 214.71 52.624 212.278 52.624C211.766 52.624 211.126 52.624 210.358 52.624C209.59 52.56 208.758 52.528 207.862 52.528C207.286 54 206.678 55.504 206.038 57.04C205.462 58.512 204.822 60.048 204.118 61.648C201.43 67.984 198.134 73.136 194.23 77.104C190.39 81.008 186.262 84.016 181.846 86.128C177.494 88.304 173.142 89.776 168.79 90.544C164.502 91.312 160.566 91.696 156.982 91.696ZM228.305 82C225.937 82 224.273 81.328 223.313 79.984C222.353 78.576 221.873 76.976 221.873 75.184C221.873 74.224 221.969 73.264 222.161 72.304C222.417 71.28 222.705 70.352 223.025 69.52L229.457 53.104C229.649 52.592 229.745 52.144 229.745 51.76C229.745 51.12 229.585 50.576 229.265 50.128C228.945 49.616 228.721 49.264 228.593 49.072L233.873 48.88C234.833 48.816 235.505 48.944 235.889 49.264C236.337 49.52 236.561 49.84 236.561 50.224C236.561 50.608 236.337 51.312 235.889 52.336C235.249 53.872 234.385 55.792 233.297 58.096C232.209 60.4 231.121 62.768 230.033 65.2C229.009 67.632 228.113 69.904 227.345 72.016C226.641 74.128 226.289 75.76 226.289 76.912C226.289 77.744 226.481 78.448 226.865 79.024C227.313 79.6 228.049 79.888 229.073 79.888C230.417 79.888 231.729 79.376 233.009 78.352C234.353 77.264 235.601 75.888 236.753 74.224C237.905 72.56 238.961 70.768 239.921 68.848C240.945 66.928 241.809 65.136 242.513 63.472C243.281 63.472 243.665 63.76 243.665 64.336C243.025 65.936 242.193 67.76 241.169 69.808C240.145 71.856 238.961 73.808 237.617 75.664C236.337 77.456 234.897 78.96 233.297 80.176C231.761 81.392 230.097 82 228.305 82ZM236.849 42.928C236.017 42.928 235.281 42.608 234.641 41.968C234.065 41.328 233.777 40.56 233.777 39.664C233.777 38.576 234.225 37.616 235.121 36.784C236.017 35.888 237.009 35.44 238.097 35.44C238.993 35.44 239.761 35.728 240.401 36.304C241.041 36.88 241.361 37.616 241.361 38.512C241.361 39.664 240.913 40.688 240.017 41.584C239.121 42.48 238.065 42.928 236.849 42.928ZM247.004 82.288C244.636 82.288 242.876 81.584 241.724 80.176C240.636 78.704 240.092 76.976 240.092 74.992C240.092 72.944 240.38 70.832 240.956 68.656C241.532 66.48 242.044 64.656 242.492 63.184C243.516 59.6 244.796 55.792 246.332 51.76C247.932 47.664 249.66 43.664 251.516 39.76C253.436 35.792 255.324 32.24 257.18 29.104C258.652 26.608 260.22 24.752 261.884 23.536C263.612 22.256 265.116 21.616 266.396 21.616C267.42 21.616 268.22 22 268.796 22.768C269.436 23.472 269.756 24.56 269.756 26.032C269.756 27.056 269.564 28.272 269.18 29.68C268.86 31.088 268.284 32.688 267.452 34.48C265.212 39.472 262.524 44.464 259.388 49.456C256.316 54.448 252.412 59.12 247.676 63.472C246.908 65.264 246.268 67.184 245.756 69.232C245.244 71.28 244.988 72.944 244.988 74.224C244.988 78.192 246.332 80.176 249.02 80.176C251.068 80.176 253.34 78.704 255.836 75.76C258.332 72.752 260.7 68.656 262.94 63.472C263.196 63.472 263.452 63.536 263.708 63.664C263.964 63.728 264.092 63.952 264.092 64.336C263.388 66.064 262.492 67.984 261.404 70.096C260.38 72.144 259.164 74.096 257.756 75.952C256.412 77.808 254.844 79.344 253.052 80.56C251.26 81.712 249.244 82.288 247.004 82.288ZM248.444 60.4C250.748 58.032 252.988 55.312 255.164 52.24C257.34 49.104 259.356 45.872 261.212 42.544C263.132 39.152 264.732 35.952 266.012 32.944C266.46 31.984 266.812 30.928 267.068 29.776C267.388 28.624 267.548 27.664 267.548 26.896C267.548 26 267.324 25.552 266.876 25.552C266.62 25.552 266.236 25.808 265.724 26.32C265.212 26.768 264.54 27.568 263.708 28.72C262.492 30.32 261.148 32.496 259.676 35.248C258.268 38 256.828 40.944 255.356 44.08C253.884 47.216 252.54 50.256 251.324 53.2C250.108 56.08 249.148 58.48 248.444 60.4ZM268.69 82C266.066 82 264.114 81.072 262.834 79.216C261.618 77.296 261.01 74.992 261.01 72.304C261.01 69.808 261.49 67.216 262.45 64.528C263.474 61.584 264.882 58.896 266.674 56.464C268.53 54.032 270.546 52.08 272.722 50.608C274.962 49.072 277.17 48.304 279.346 48.304C281.97 48.304 283.89 49.2 285.106 50.992C286.386 52.784 287.026 55.056 287.026 57.808C287.026 59.728 286.706 61.744 286.066 63.856C285.426 65.968 284.562 68.048 283.474 70.096C284.306 70.928 285.49 71.344 287.026 71.344C288.818 71.344 290.354 70.768 291.634 69.616C292.914 68.464 294.162 66.416 295.378 63.472C296.146 63.472 296.53 63.76 296.53 64.336C295.314 67.28 293.906 69.456 292.306 70.864C290.77 72.208 288.786 72.848 286.354 72.784C284.882 72.784 283.666 72.368 282.706 71.536C280.914 74.48 278.77 76.976 276.274 79.024C273.842 81.008 271.314 82 268.69 82ZM270.034 79.888C271.506 79.888 272.978 79.28 274.45 78.064C275.922 76.784 277.266 75.344 278.482 73.744C279.698 72.144 280.562 70.768 281.074 69.616C280.05 67.76 279.442 66.384 279.25 65.488C279.122 64.528 279.058 63.824 279.058 63.376C279.058 62.16 279.378 61.232 280.018 60.592C280.658 59.952 281.298 59.632 281.938 59.632C282.834 59.632 283.602 60.016 284.242 60.784C284.37 60.08 284.466 59.44 284.53 58.864C284.594 58.224 284.626 57.616 284.626 57.04C284.626 55.376 284.306 54.032 283.666 53.008C283.09 51.92 282.162 51.376 280.882 51.376C279.538 51.376 278.13 51.952 276.658 53.104C275.186 54.256 273.778 55.792 272.434 57.712C271.154 59.632 270.034 61.776 269.074 64.144C268.242 66.128 267.602 68.016 267.154 69.808C266.706 71.536 266.482 73.136 266.482 74.608C266.482 76.208 266.77 77.488 267.346 78.448C267.922 79.408 268.818 79.888 270.034 79.888ZM297.383 82.384C294.759 82.384 292.615 81.584 290.951 79.984C289.351 78.32 288.551 76.592 288.551 74.8C288.551 73.328 288.935 71.984 289.703 70.768C290.407 69.488 291.367 68.848 292.583 68.848L292.679 68.656C294.087 66.096 295.431 63.504 296.711 60.88C298.055 58.192 299.527 55.344 301.127 52.336C302.471 49.84 303.911 47.792 305.447 46.192C307.047 44.592 308.903 43.792 311.015 43.792C311.527 43.792 312.231 43.92 313.127 44.176C314.023 44.368 314.471 44.816 314.471 45.52C314.471 46.032 314.183 46.288 313.607 46.288C313.159 46.288 312.647 46.16 312.071 45.904C311.559 45.648 311.143 45.52 310.823 45.52C309.607 45.52 308.583 46.224 307.751 47.632C306.919 49.04 306.503 50.544 306.503 52.144C306.503 53.872 306.791 55.44 307.367 56.848C307.943 58.192 308.615 59.504 309.383 60.784C310.151 62.064 310.823 63.376 311.399 64.72C311.975 66 312.263 67.408 312.263 68.944C312.263 72.016 311.655 74.512 310.439 76.432C309.287 78.288 307.751 79.696 305.831 80.656H305.927C309.319 80.656 312.103 79.088 314.279 75.952C316.519 72.752 318.727 68.592 320.903 63.472C321.671 63.472 322.055 63.76 322.055 64.336C320.839 67.216 319.495 70.032 318.023 72.784C316.551 75.536 314.823 77.808 312.839 79.6C310.855 81.392 308.423 82.288 305.543 82.288C304.327 82.288 303.207 82.16 302.183 81.904C300.711 82.224 299.111 82.384 297.383 82.384ZM295.943 72.208C295.943 73.744 296.295 75.216 296.999 76.624C297.703 78.032 298.983 79.088 300.839 79.792C302.503 78.832 303.783 77.36 304.679 75.376C305.639 73.328 306.119 71.216 306.119 69.04C306.119 67.248 305.927 65.424 305.543 63.568C305.159 61.712 304.743 59.888 304.295 58.096C303.911 56.304 303.719 54.704 303.719 53.296C303.719 52.848 303.719 52.464 303.719 52.144C303.783 51.76 303.847 51.408 303.911 51.088C302.759 52.816 301.575 54.832 300.359 57.136C299.207 59.44 298.087 61.648 296.999 63.76C295.911 65.872 294.919 67.6 294.023 68.944C295.303 69.136 295.943 70.224 295.943 72.208ZM292.775 77.008C292.775 78.032 293.127 78.928 293.831 79.696C294.535 80.464 295.591 80.848 296.999 80.848C297.639 80.848 298.247 80.784 298.823 80.656C297.479 79.824 296.391 78.768 295.559 77.488C294.791 76.208 294.407 74.736 294.407 73.072C293.831 73.712 293.415 74.384 293.159 75.088C292.903 75.728 292.775 76.368 292.775 77.008ZM326.721 82C324.097 82 322.145 81.072 320.865 79.216C319.649 77.296 319.041 74.992 319.041 72.304C319.041 69.808 319.521 67.216 320.481 64.528C321.505 61.584 322.913 58.896 324.705 56.464C326.561 54.032 328.577 52.08 330.753 50.608C332.993 49.072 335.201 48.304 337.377 48.304C340.001 48.304 341.921 49.2 343.137 50.992C344.417 52.784 345.057 55.056 345.057 57.808C345.057 59.728 344.737 61.744 344.097 63.856C343.457 65.968 342.593 68.048 341.505 70.096C342.337 70.928 343.521 71.344 345.057 71.344C346.849 71.344 348.385 70.768 349.665 69.616C350.945 68.464 352.193 66.416 353.409 63.472C354.177 63.472 354.561 63.76 354.561 64.336C353.345 67.28 351.937 69.456 350.337 70.864C348.801 72.208 346.817 72.848 344.385 72.784C342.913 72.784 341.697 72.368 340.737 71.536C338.945 74.48 336.801 76.976 334.305 79.024C331.873 81.008 329.345 82 326.721 82ZM328.065 79.888C329.537 79.888 331.009 79.28 332.481 78.064C333.953 76.784 335.297 75.344 336.513 73.744C337.729 72.144 338.593 70.768 339.105 69.616C338.081 67.76 337.473 66.384 337.281 65.488C337.153 64.528 337.089 63.824 337.089 63.376C337.089 62.16 337.409 61.232 338.049 60.592C338.689 59.952 339.329 59.632 339.969 59.632C340.865 59.632 341.633 60.016 342.273 60.784C342.401 60.08 342.497 59.44 342.561 58.864C342.625 58.224 342.657 57.616 342.657 57.04C342.657 55.376 342.337 54.032 341.697 53.008C341.121 51.92 340.193 51.376 338.913 51.376C337.569 51.376 336.161 51.952 334.689 53.104C333.217 54.256 331.809 55.792 330.465 57.712C329.185 59.632 328.065 61.776 327.105 64.144C326.273 66.128 325.633 68.016 325.185 69.808C324.737 71.536 324.513 73.136 324.513 74.608C324.513 76.208 324.801 77.488 325.377 78.448C325.953 79.408 326.849 79.888 328.065 79.888ZM374.902 82C372.534 82 370.87 81.328 369.91 79.984C368.95 78.576 368.47 76.976 368.47 75.184C368.47 75.056 368.47 74.96 368.47 74.896C366.934 76.944 365.238 78.672 363.382 80.08C361.59 81.424 359.734 82.096 357.814 82.096C357.878 82.544 357.91 82.992 357.91 83.44C357.91 83.952 357.91 84.464 357.91 84.976C357.91 88.304 357.494 91.76 356.662 95.344C355.894 98.928 354.774 102.256 353.302 105.328C351.83 108.4 350.102 110.896 348.118 112.816C346.134 114.736 343.926 115.696 341.494 115.696C340.086 115.696 338.87 115.344 337.846 114.64C336.758 113.936 336.214 112.56 336.214 110.512C336.214 107.312 337.174 102.96 339.094 97.456C341.014 91.952 343.35 85.904 346.102 79.312C345.334 78.032 344.95 76.688 344.95 75.28C344.95 73.04 345.59 71.504 346.87 70.672C347.958 69.776 349.11 69.424 350.326 69.616C352.63 64.432 354.966 59.344 357.334 54.352C359.702 49.296 361.974 44.528 364.15 40.048C366.39 35.568 368.406 31.632 370.198 28.24C371.286 26.128 372.406 24.496 373.558 23.344C374.774 22.192 376.342 21.616 378.262 21.616C378.838 21.616 379.51 21.744 380.278 22C381.11 22.192 381.846 22.256 382.486 22.192C381.014 23.6 379.158 25.968 376.918 29.296C374.742 32.56 372.374 36.464 369.814 41.008C367.254 45.552 364.63 50.48 361.942 55.792C359.318 61.04 356.79 66.384 354.358 71.824C354.934 72.592 355.51 73.616 356.086 74.896C356.726 76.176 357.174 77.552 357.43 79.024C357.43 79.216 357.462 79.44 357.526 79.696C357.59 79.888 357.654 80.08 357.718 80.272C359.638 80.4 361.622 79.472 363.67 77.488C365.718 75.504 367.574 73.2 369.238 70.576C369.366 70.256 369.494 69.904 369.622 69.52L376.054 53.104C376.246 52.592 376.342 52.144 376.342 51.76C376.342 51.12 376.182 50.576 375.862 50.128C375.542 49.616 375.318 49.264 375.19 49.072L380.47 48.88C381.43 48.816 382.102 48.944 382.486 49.264C382.934 49.52 383.158 49.84 383.158 50.224C383.158 50.608 382.934 51.312 382.486 52.336C381.846 53.872 380.982 55.792 379.894 58.096C378.806 60.4 377.718 62.768 376.63 65.2C375.606 67.632 374.71 69.904 373.942 72.016C373.238 74.128 372.886 75.76 372.886 76.912C372.886 77.744 373.078 78.448 373.462 79.024C373.91 79.6 374.646 79.888 375.67 79.888C377.014 79.888 378.326 79.376 379.606 78.352C380.95 77.264 382.198 75.888 383.35 74.224C384.502 72.56 385.558 70.768 386.518 68.848C387.542 66.928 388.406 65.136 389.11 63.472C389.878 63.472 390.262 63.76 390.262 64.336C389.622 65.936 388.79 67.76 387.766 69.808C386.742 71.856 385.558 73.808 384.214 75.664C382.934 77.456 381.494 78.96 379.894 80.176C378.358 81.392 376.694 82 374.902 82ZM382.486 42.928C381.654 42.928 380.918 42.608 380.278 41.968C379.702 41.328 379.414 40.56 379.414 39.664C379.414 38.576 379.862 37.616 380.758 36.784C381.654 35.888 382.646 35.44 383.734 35.44C384.63 35.44 385.398 35.728 386.038 36.304C386.678 36.88 386.998 37.616 386.998 38.512C386.998 39.664 386.55 40.688 385.654 41.584C384.758 42.48 383.702 42.928 382.486 42.928ZM355.126 80.656H355.606C355.542 78.992 355.254 77.552 354.742 76.336C354.358 75.44 353.878 74.672 353.302 74.032L351.286 78.928C351.862 80.08 353.142 80.656 355.126 80.656ZM342.934 113.104C343.574 113.104 344.342 112.72 345.238 111.952C346.134 111.248 346.998 110.32 347.83 109.168C349.43 107.056 350.838 104.464 352.054 101.392C353.27 98.32 354.23 95.12 354.934 91.792C355.638 88.464 355.958 85.36 355.894 82.48C355.766 82.48 355.606 82.48 355.414 82.48C355.286 82.544 355.158 82.576 355.03 82.576C354.198 82.576 353.334 82.416 352.438 82.096C351.542 81.776 350.806 81.392 350.23 80.944C348.566 85.232 347.03 89.456 345.622 93.616C344.15 97.84 343.03 101.552 342.262 104.752C342.006 105.968 341.814 107.024 341.686 107.92C341.558 108.816 341.494 109.584 341.494 110.224C341.494 112.144 341.974 113.104 342.934 113.104ZM449.587 94C447.667 94 446.067 93.296 444.787 91.888C443.571 90.48 443.091 87.824 443.347 83.92C443.603 79.888 444.851 74.704 447.091 68.368C449.331 62.032 452.243 54.576 455.827 46C456.979 43.248 458.131 40.176 459.283 36.784C460.499 33.392 461.523 30 462.355 26.608C463.187 23.152 463.603 20.048 463.603 17.296C463.603 15.376 463.347 13.712 462.835 12.304C462.387 10.832 461.555 9.744 460.339 9.04C458.931 8.144 457.427 7.504 455.827 7.12C454.227 6.736 452.531 6.544 450.739 6.544C446.707 6.544 442.451 7.472 437.971 9.328C433.555 11.184 429.267 13.744 425.107 17.008C421.011 20.208 417.331 23.856 414.067 27.952C410.867 32.048 408.435 36.304 406.771 40.72C405.811 43.344 405.107 45.808 404.659 48.112C404.211 50.416 403.987 52.496 403.987 54.352C403.987 57.872 404.627 60.816 405.907 63.184C407.251 65.488 408.979 67.216 411.091 68.368C413.267 69.456 415.603 70 418.099 70C420.467 70 422.707 69.584 424.819 68.752C427.571 67.728 430.035 66 432.211 63.568C434.387 61.136 436.115 58.448 437.395 55.504C438.675 52.496 439.315 49.744 439.315 47.248C439.315 45.072 438.739 43.248 437.587 41.776C436.499 40.304 434.675 39.568 432.115 39.568C431.731 39.568 431.347 39.568 430.963 39.568C430.643 39.568 430.259 39.632 429.811 39.76C429.555 39.824 429.331 39.856 429.139 39.856C428.947 39.856 428.787 39.856 428.659 39.856C428.083 39.856 427.795 39.728 427.795 39.472C427.795 39.088 428.403 38.672 429.619 38.224C431.603 37.584 433.459 37.264 435.187 37.264C438.195 37.264 440.435 38.16 441.907 39.952C443.379 41.68 444.115 43.888 444.115 46.576C444.115 49.264 443.379 52.176 441.907 55.312C440.435 58.384 438.259 61.328 435.379 64.144C432.563 66.96 429.011 69.264 424.723 71.056C422.419 72.016 420.051 72.496 417.619 72.496C414.291 72.496 411.155 71.632 408.211 69.904C405.267 68.176 402.867 65.712 401.011 62.512C399.155 59.312 398.227 55.536 398.227 51.184C398.227 49.072 398.483 46.864 398.995 44.56C399.507 42.256 400.307 39.824 401.395 37.264C403.507 32.336 406.387 27.856 410.035 23.824C413.683 19.728 417.747 16.208 422.227 13.264C426.771 10.256 431.411 7.952 436.147 6.352C440.883 4.752 445.395 3.952 449.683 3.952C453.459 3.952 456.883 4.624 459.955 5.96799C463.347 7.43999 465.715 9.552 467.059 12.304C468.467 14.992 469.171 18.032 469.171 21.424C469.171 25.136 468.531 29.104 467.251 33.328C466.035 37.488 464.531 41.584 462.739 45.616C460.755 50.16 458.803 54.896 456.883 59.824C454.963 64.752 453.299 69.424 451.891 73.84C450.483 78.256 449.491 81.936 448.915 84.88C448.787 85.584 448.691 86.192 448.627 86.704C448.563 87.28 448.531 87.76 448.531 88.144C448.531 90.384 449.267 91.504 450.739 91.504C451.635 91.504 452.691 91.12 453.907 90.352C456.275 88.944 458.675 86.832 461.107 84.016C463.539 81.2 465.939 78 468.307 74.416C470.739 70.768 473.075 67.056 475.315 63.28C477.555 59.44 479.699 55.824 481.747 52.432C483.795 49.04 485.651 46.16 487.315 43.792C488.339 42.384 489.299 41.36 490.195 40.72C491.091 40.016 491.859 39.664 492.499 39.664C493.843 39.664 494.515 40.688 494.515 42.736C494.515 43.952 494.227 45.424 493.651 47.152C492.819 49.584 491.699 52.368 490.291 55.504C488.883 58.576 487.571 61.712 486.355 64.912C485.139 68.048 484.339 70.992 483.955 73.744C483.891 74.448 483.827 75.088 483.763 75.664C483.763 76.176 483.763 76.72 483.763 77.296C483.763 80.624 484.435 82.992 485.779 84.4C487.123 85.872 488.883 86.608 491.059 86.608C493.555 86.608 496.371 85.808 499.507 84.208C502.707 82.608 505.907 80.496 509.107 77.872C512.307 75.184 515.187 72.24 517.747 69.04C520.371 65.84 522.355 62.64 523.699 59.44C525.171 55.92 526.291 52.496 527.059 49.168C527.827 45.84 528.211 42.8 528.211 40.048C528.211 35.632 527.251 32.048 525.331 29.296C523.411 26.48 520.403 25.072 516.307 25.072C515.987 25.072 515.635 25.104 515.251 25.168C514.867 25.168 514.451 25.2 514.003 25.264C512.467 25.648 511.347 25.84 510.643 25.84C509.811 25.84 509.395 25.648 509.395 25.264C509.395 24.752 510.035 24.176 511.315 23.536C512.595 22.896 513.939 22.704 515.347 22.96C518.419 22.704 521.299 23.408 523.987 25.072C526.739 26.672 528.947 29.104 530.611 32.368C532.275 35.568 533.107 39.472 533.107 44.08C533.107 46.448 532.851 49.008 532.339 51.76C531.827 54.512 530.963 57.392 529.747 60.4C528.147 64.432 525.907 68.176 523.027 71.632C520.147 75.088 516.915 78.128 513.331 80.752C509.811 83.376 506.195 85.392 502.483 86.8C498.835 88.272 495.411 89.008 492.211 89.008C488.563 89.008 485.491 87.856 482.995 85.552C480.563 83.312 479.347 79.664 479.347 74.608C479.347 72.496 479.539 70.352 479.923 68.176C480.307 66 480.755 64.08 481.267 62.416C480.179 64.208 478.739 66.448 476.947 69.136C475.155 71.76 473.107 74.512 470.803 77.392C468.563 80.272 466.227 82.96 463.795 85.456C461.363 88.016 458.931 90.064 456.499 91.6C454.067 93.2 451.763 94 449.587 94ZM556.668 82.288C555.196 82.288 553.884 81.872 552.732 81.04C551.644 80.208 551.1 78.512 551.1 75.952C551.1 74.864 551.164 73.84 551.292 72.88C551.484 71.92 551.708 70.896 551.964 69.808C551.388 70.768 550.588 71.952 549.564 73.36C548.54 74.768 547.388 76.144 546.108 77.488C544.892 78.832 543.612 79.952 542.268 80.848C540.988 81.744 539.772 82.192 538.62 82.192C536.956 82.192 535.612 81.456 534.588 79.984C533.564 78.448 533.052 76.464 533.052 74.032C533.052 71.408 533.66 68.592 534.876 65.584C536.092 62.576 537.756 59.696 539.868 56.944C541.98 54.192 544.412 51.952 547.164 50.224C549.916 48.496 552.796 47.632 555.804 47.632C557.276 47.632 558.684 47.888 560.028 48.4C561.372 48.848 562.556 49.616 563.58 50.704C564.028 51.152 564.252 51.664 564.252 52.24C564.252 52.624 564.092 52.944 563.772 53.2C563.452 53.456 563.036 53.52 562.524 53.392C561.82 51.152 560.316 50.032 558.012 50.032C556.924 50.032 555.676 50.384 554.268 51.088C552.54 51.984 550.684 53.424 548.7 55.408C546.78 57.328 544.956 59.536 543.228 62.032C541.564 64.464 540.188 66.928 539.1 69.424C538.012 71.92 537.468 74.192 537.468 76.24C537.468 78.352 538.268 79.408 539.868 79.408C541.276 79.408 542.716 78.736 544.188 77.392C545.724 76.048 547.164 74.384 548.508 72.4C549.916 70.352 551.196 68.336 552.348 66.352C553.5 64.368 554.396 62.768 555.036 61.552C555.996 59.824 556.892 58.384 557.724 57.232C558.556 56.08 559.74 55.504 561.276 55.504C561.98 55.504 562.684 55.6 563.388 55.792C564.092 55.984 564.828 56.016 565.596 55.888C563.676 57.808 561.98 60.08 560.508 62.704C559.1 65.328 558.012 67.92 557.244 70.48C556.476 72.976 556.092 75.088 556.092 76.816C556.092 78.736 556.732 79.696 558.012 79.696C559.036 79.696 560.124 79.12 561.276 77.968C562.492 76.816 563.644 75.376 564.732 73.648C565.884 71.856 566.94 70.064 567.9 68.272C568.86 66.416 569.628 64.816 570.204 63.472C570.524 63.472 570.78 63.504 570.972 63.568C571.228 63.632 571.356 63.888 571.356 64.336C571.292 64.592 571.164 64.88 570.972 65.2C570.844 65.456 570.62 65.936 570.3 66.64C569.788 67.664 569.084 69.04 568.188 70.768C567.292 72.496 566.236 74.256 565.02 76.048C563.804 77.776 562.492 79.248 561.084 80.464C559.676 81.68 558.204 82.288 556.668 82.288ZM570.338 63.184C570.85 62.096 571.522 60.368 572.354 58C573.186 55.568 574.05 52.88 574.946 49.936C575.842 46.992 576.514 44.208 576.962 41.584C577.154 40.56 577.506 39.824 578.018 39.376C578.53 38.864 579.074 38.608 579.65 38.608C580.482 38.608 581.25 39.024 581.954 39.856C582.658 40.624 583.01 41.744 583.01 43.216C583.01 45.008 582.466 46.544 581.378 47.824C580.354 49.104 579.074 50.32 577.538 51.472C578.178 51.536 578.85 51.6 579.554 51.664C580.258 51.664 581.026 51.664 581.858 51.664C584.866 51.664 587.842 51.472 590.786 51.088C590.914 51.472 590.978 51.76 590.978 51.952C590.978 52.784 590.722 53.84 590.21 55.12C589.762 56.4 589.282 57.552 588.77 58.576C588.514 59.152 588.002 60.208 587.234 61.744C586.466 63.216 585.634 64.912 584.738 66.832C583.842 68.688 583.074 70.544 582.434 72.4C581.858 74.192 581.57 75.728 581.57 77.008C581.57 78.672 582.21 79.504 583.49 79.504C584.706 79.504 586.402 78.096 588.578 75.28C590.754 72.4 592.93 68.464 595.106 63.472C595.874 63.472 596.258 63.76 596.258 64.336C595.554 66.064 594.658 67.952 593.57 70C592.546 72.048 591.394 74 590.114 75.856C588.834 77.648 587.458 79.152 585.986 80.368C584.514 81.52 582.978 82.096 581.378 82.096C580.162 82.096 578.946 81.616 577.73 80.656C576.514 79.632 575.906 78 575.906 75.76C575.906 73.776 576.29 71.856 577.058 70C577.826 68.08 578.69 66.288 579.65 64.624C580.61 62.96 581.474 61.488 582.242 60.208C583.01 58.928 583.394 57.904 583.394 57.136C583.394 55.984 582.658 55.152 581.186 54.64C579.778 54.128 577.922 53.84 575.618 53.776C574.466 56.72 573.602 58.896 573.026 60.304C572.45 61.712 571.906 63.056 571.394 64.336C570.37 64.336 570.018 63.952 570.338 63.184ZM585.87 82.768C588.174 78.096 590.382 73.488 592.494 68.944C594.606 64.336 596.782 59.952 599.022 55.792C600.302 53.488 601.39 51.888 602.286 50.992C603.182 50.032 604.366 49.552 605.838 49.552C606.35 49.552 606.894 49.648 607.47 49.84C608.046 49.968 608.622 50.032 609.198 50.032C609.582 50.032 609.87 50 610.062 49.936C609.166 50.448 607.982 51.728 606.51 53.776C605.102 55.76 603.662 58.064 602.19 60.688C600.718 63.312 599.406 65.776 598.254 68.08C599.47 66.608 600.75 65.136 602.094 63.664C603.438 62.192 604.91 60.784 606.51 59.44C608.046 58.096 609.87 56.72 611.982 55.312C614.158 53.84 616.27 52.624 618.318 51.664C620.366 50.704 621.998 50.224 623.214 50.224C623.662 50.224 623.982 50.256 624.174 50.32C624.174 50.32 623.822 50.96 623.118 52.24C622.414 53.456 621.518 55.088 620.43 57.136C619.406 59.12 618.35 61.264 617.262 63.568C616.174 65.808 615.182 67.984 614.286 70.096C613.454 72.144 612.91 73.872 612.654 75.28C612.462 76.112 612.366 76.88 612.366 77.584C612.366 78.608 612.558 79.28 612.942 79.6C613.326 79.92 613.742 80.08 614.19 80.08C615.406 80.08 616.654 79.536 617.934 78.448C619.214 77.36 620.43 75.984 621.582 74.32C622.798 72.592 623.918 70.768 624.942 68.848C625.966 66.928 626.83 65.136 627.534 63.472C628.302 63.472 628.686 63.76 628.686 64.336C627.982 66.064 627.086 67.984 625.998 70.096C624.974 72.144 623.79 74.096 622.446 75.952C621.166 77.808 619.726 79.344 618.126 80.56C616.526 81.776 614.798 82.384 612.942 82.384C611.662 82.384 610.318 81.936 608.91 81.04C607.566 80.144 606.894 78.48 606.894 76.048C606.894 75.344 606.958 74.608 607.086 73.84C607.214 73.008 607.438 72.112 607.758 71.152C608.27 69.872 608.878 68.496 609.582 67.024C610.286 65.552 611.438 63.536 613.038 60.976C613.486 60.272 613.742 59.728 613.806 59.344C613.934 58.96 613.998 58.64 613.998 58.384C613.998 57.616 613.646 57.232 612.942 57.232C612.366 57.232 611.502 57.552 610.35 58.192C609.262 58.832 607.886 59.952 606.222 61.552C604.622 63.088 602.702 65.264 600.462 68.08C598.286 70.896 595.758 75.056 592.878 80.56C592.43 81.392 591.918 81.84 591.342 81.904C590.83 81.968 590.094 82.032 589.134 82.096C588.494 82.16 587.886 82.192 587.31 82.192C586.734 82.256 586.254 82.448 585.87 82.768ZM648.355 82.288C646.883 82.288 645.571 81.872 644.419 81.04C643.331 80.208 642.787 78.512 642.787 75.952C642.787 74.864 642.851 73.84 642.979 72.88C643.171 71.92 643.395 70.896 643.651 69.808C643.075 70.768 642.275 71.952 641.251 73.36C640.227 74.768 639.075 76.144 637.795 77.488C636.579 78.832 635.299 79.952 633.955 80.848C632.675 81.744 631.459 82.192 630.307 82.192C628.643 82.192 627.299 81.456 626.275 79.984C625.251 78.448 624.739 76.464 624.739 74.032C624.739 71.408 625.347 68.592 626.563 65.584C627.779 62.576 629.443 59.696 631.555 56.944C633.667 54.192 636.099 51.952 638.851 50.224C641.603 48.496 644.483 47.632 647.491 47.632C648.963 47.632 650.371 47.888 651.715 48.4C653.059 48.848 654.243 49.616 655.267 50.704C655.715 51.152 655.939 51.664 655.939 52.24C655.939 52.624 655.779 52.944 655.459 53.2C655.139 53.456 654.723 53.52 654.211 53.392C653.507 51.152 652.003 50.032 649.699 50.032C648.611 50.032 647.363 50.384 645.955 51.088C644.227 51.984 642.371 53.424 640.387 55.408C638.467 57.328 636.643 59.536 634.915 62.032C633.251 64.464 631.875 66.928 630.787 69.424C629.699 71.92 629.155 74.192 629.155 76.24C629.155 78.352 629.955 79.408 631.555 79.408C632.963 79.408 634.403 78.736 635.875 77.392C637.411 76.048 638.851 74.384 640.195 72.4C641.603 70.352 642.883 68.336 644.035 66.352C645.187 64.368 646.083 62.768 646.723 61.552C647.683 59.824 648.579 58.384 649.411 57.232C650.243 56.08 651.427 55.504 652.963 55.504C653.667 55.504 654.371 55.6 655.075 55.792C655.779 55.984 656.515 56.016 657.283 55.888C655.363 57.808 653.667 60.08 652.195 62.704C650.787 65.328 649.699 67.92 648.931 70.48C648.163 72.976 647.779 75.088 647.779 76.816C647.779 78.736 648.419 79.696 649.699 79.696C650.723 79.696 651.811 79.12 652.963 77.968C654.179 76.816 655.331 75.376 656.419 73.648C657.571 71.856 658.627 70.064 659.587 68.272C660.547 66.416 661.315 64.816 661.891 63.472C662.211 63.472 662.467 63.504 662.659 63.568C662.915 63.632 663.043 63.888 663.043 64.336C662.979 64.592 662.851 64.88 662.659 65.2C662.531 65.456 662.307 65.936 661.987 66.64C661.475 67.664 660.771 69.04 659.875 70.768C658.979 72.496 657.923 74.256 656.707 76.048C655.491 77.776 654.179 79.248 652.771 80.464C651.363 81.68 649.891 82.288 648.355 82.288Z" fill="black"/>
<line x1="675.5" y1="59.5" x2="775.5" y2="59.5" stroke="black"/>
</svg>
