<svg width="415" height="80" viewBox="0 0 415 80" fill="none" xmlns="http://www.w3.org/2000/svg">
<line x1="0.5" y1="39.5" x2="100.5" y2="39.5" stroke="black"/>
<path d="M154.568 58.096C152.69 58.096 151.368 57.3493 150.6 55.856C149.832 54.4053 149.448 52.6987 149.448 50.736C149.448 48.9867 149.682 47.2587 150.152 45.552C150.664 43.8453 151.261 42.544 151.944 41.648C150.792 43.0133 149.362 44.5707 147.656 46.32C145.949 48.0693 144.072 49.7547 142.024 51.376C139.976 52.9973 137.864 54.3413 135.688 55.408C133.512 56.4747 131.357 57.008 129.224 57.008C126.408 57.008 124.296 56.112 122.888 54.32C121.522 52.528 120.84 50.0747 120.84 46.96C120.84 44.528 121.245 41.9253 122.056 39.152C122.909 36.336 124.146 33.4773 125.768 30.576C126.536 29.168 127.389 27.7813 128.328 26.416C129.309 25.008 130.354 23.6853 131.464 22.448C130.141 21.808 128.861 21.104 127.624 20.336C126.386 19.5253 125.384 18.5653 124.616 17.456C123.848 16.3467 123.464 15.024 123.464 13.488C123.464 12.6773 123.634 11.952 123.976 11.312C124.36 10.6293 124.765 10.288 125.192 10.288C125.576 10.288 125.768 10.5227 125.768 10.992C125.768 11.2907 125.682 11.6107 125.512 11.952C125.298 12.5067 125.192 13.0187 125.192 13.488C125.192 14.64 125.597 15.728 126.408 16.752C127.218 17.7333 128.2 18.5867 129.352 19.312C130.504 20.0373 131.57 20.6133 132.552 21.04C135.282 18.0533 138.269 15.3013 141.512 12.784C144.797 10.224 148.317 8.176 152.072 6.64C155.826 5.104 159.773 4.336 163.912 4.336C167.368 4.336 170.077 5.104 172.04 6.64C174.002 8.13333 174.984 10.0747 174.984 12.464C174.984 14.5973 174.365 16.432 173.128 17.968C171.933 19.4613 170.354 20.72 168.392 21.744C166.429 22.7253 164.296 23.5147 161.992 24.112C159.73 24.6667 157.49 25.072 155.272 25.328C153.053 25.5413 151.112 25.648 149.448 25.648C147.016 25.648 144.648 25.4987 142.344 25.2C140.082 24.9013 137.821 24.432 135.56 23.792C134.45 25.3707 133.234 27.2053 131.912 29.296C130.632 31.344 129.394 33.52 128.2 35.824C127.048 38.0853 126.088 40.3467 125.32 42.608C124.594 44.8267 124.232 46.896 124.232 48.816C124.232 50.9067 124.722 52.4853 125.704 53.552C126.685 54.576 128.008 55.088 129.672 55.088C131.677 55.088 133.789 54.4907 136.008 53.296C138.269 52.0587 140.53 50.4587 142.792 48.496C145.053 46.5333 147.208 44.4 149.256 42.096C151.304 39.792 153.138 37.5093 154.76 35.248C156.381 32.9867 157.661 30.9813 158.6 29.232C159.325 27.8667 160.029 26.9067 160.712 26.352C161.394 25.7547 161.97 25.456 162.44 25.456C162.909 25.456 163.272 25.648 163.528 26.032C163.784 26.3733 163.912 26.8427 163.912 27.44C163.912 28.6347 163.378 29.8293 162.312 31.024C160.861 32.688 159.453 34.7147 158.088 37.104C156.722 39.4507 155.613 41.9253 154.76 44.528C153.906 47.088 153.479 49.4987 153.479 51.76C153.479 53.3387 153.714 54.4693 154.184 55.152C154.696 55.8347 155.357 56.176 156.168 56.176C157.405 56.176 158.642 55.7493 159.88 54.896C161.16 54.0853 162.376 52.976 163.528 51.568C164.68 50.16 165.746 48.6027 166.728 46.896C167.709 45.1467 168.562 43.3973 169.288 41.648C169.501 41.648 169.672 41.6693 169.8 41.712C169.97 41.7547 170.056 41.9253 170.056 42.224C169.33 44.0587 168.456 45.9147 167.432 47.792C166.45 49.6693 165.32 51.3973 164.04 52.976C162.76 54.512 161.33 55.7493 159.752 56.688C158.173 57.6267 156.445 58.096 154.568 58.096ZM148.872 24.112C150.578 24.112 152.477 24.0267 154.568 23.856C156.658 23.6427 158.728 23.28 160.776 22.768C162.866 22.256 164.786 21.5307 166.536 20.592C168.285 19.6533 169.693 18.4587 170.76 17.008C171.826 15.5573 172.36 13.7867 172.36 11.696C172.36 9.81866 171.57 8.38933 169.992 7.408C168.456 6.42666 166.493 5.936 164.104 5.936C160.136 5.936 156.509 6.72533 153.224 8.304C149.981 9.84 146.994 11.8667 144.264 14.384C141.576 16.9013 139.016 19.6107 136.583 22.512C138.461 23.0667 140.381 23.472 142.344 23.728C144.349 23.984 146.525 24.112 148.872 24.112ZM163.132 54.512C164.668 51.3973 166.14 48.3253 167.548 45.296C168.956 42.224 170.407 39.3013 171.9 36.528C172.753 34.992 173.479 33.9253 174.076 33.328C174.673 32.688 175.463 32.368 176.444 32.368C176.785 32.368 177.148 32.432 177.532 32.56C177.916 32.6453 178.3 32.688 178.684 32.688C178.94 32.688 179.132 32.6667 179.26 32.624C178.663 32.9653 177.873 33.8187 176.892 35.184C175.953 36.5067 174.993 38.0427 174.012 39.792C173.031 41.5413 172.156 43.184 171.388 44.72C172.199 43.7387 173.052 42.7573 173.948 41.776C174.844 40.7947 175.825 39.856 176.892 38.96C177.916 38.064 179.132 37.1467 180.54 36.208C181.991 35.2267 183.399 34.416 184.764 33.776C186.129 33.136 187.217 32.816 188.028 32.816C188.327 32.816 188.54 32.8373 188.668 32.88C188.668 32.88 188.433 33.3067 187.964 34.16C187.495 34.9707 186.897 36.0587 186.172 37.424C185.489 38.7467 184.785 40.176 184.06 41.712C183.335 43.2053 182.673 44.656 182.076 46.064C181.521 47.4293 181.159 48.5813 180.988 49.52C180.86 50.0747 180.796 50.5867 180.796 51.056C180.796 51.7387 180.924 52.1867 181.18 52.4C181.436 52.6133 181.713 52.72 182.012 52.72C182.823 52.72 183.655 52.3573 184.508 51.632C185.361 50.9067 186.172 49.9893 186.94 48.88C187.751 47.728 188.497 46.512 189.18 45.232C189.863 43.952 190.439 42.7573 190.908 41.648C191.42 41.648 191.676 41.84 191.676 42.224C191.207 43.376 190.609 44.656 189.884 46.064C189.201 47.4293 188.412 48.7307 187.516 49.968C186.663 51.2053 185.703 52.2293 184.636 53.04C183.569 53.8507 182.417 54.256 181.18 54.256C180.327 54.256 179.431 53.9573 178.492 53.36C177.596 52.7627 177.148 51.6533 177.148 50.032C177.148 49.5627 177.191 49.072 177.276 48.56C177.361 48.0053 177.511 47.408 177.724 46.768C178.065 45.9147 178.471 44.9973 178.94 44.016C179.409 43.0347 180.177 41.6907 181.244 39.984C181.543 39.5147 181.713 39.152 181.756 38.896C181.841 38.64 181.884 38.4267 181.884 38.256C181.884 37.744 181.649 37.488 181.18 37.488C180.796 37.488 180.22 37.7013 179.452 38.128C178.727 38.5547 177.809 39.3013 176.7 40.368C175.633 41.392 174.353 42.8427 172.86 44.72C171.409 46.5973 169.724 49.3707 167.804 53.04C167.505 53.5947 167.164 53.8933 166.78 53.936C166.439 53.9787 165.948 54.0213 165.308 54.064C164.881 54.1067 164.476 54.128 164.092 54.128C163.708 54.1707 163.388 54.2987 163.132 54.512ZM186.485 74.416C182.432 74.416 180.405 72.752 180.405 69.424C180.405 67.8453 180.96 66.4373 182.069 65.2C183.178 63.9627 184.501 62.896 186.037 62C188.17 60.72 190.261 59.696 192.309 58.928C194.357 58.16 196.32 57.4773 198.197 56.88C200.074 56.3253 201.824 55.7067 203.445 55.024C203.829 53.9147 204.149 52.6987 204.405 51.376C204.661 50.0107 204.853 48.688 204.981 47.408C205.109 46.128 205.173 45.0187 205.173 44.08C205.173 43.0987 205.109 42.4587 204.981 42.16C204.512 43.056 203.872 44.1653 203.061 45.488C202.293 46.8107 201.376 48.1333 200.309 49.456C199.285 50.736 198.197 51.8027 197.045 52.656C195.893 53.5093 194.72 53.936 193.525 53.936C193.098 53.936 192.693 53.872 192.309 53.744C191.114 53.232 190.24 52.5067 189.685 51.568C189.173 50.6293 188.917 49.5627 188.917 48.368C188.917 46.448 189.472 44.3787 190.581 42.16C191.69 39.9413 193.013 37.9147 194.549 36.08C195.786 34.5867 197.237 33.392 198.901 32.496C200.565 31.6 202.25 31.152 203.957 31.152C205.92 31.152 207.754 31.8133 209.461 33.136C210.101 33.648 210.421 34.2027 210.421 34.8C210.421 35.44 210.165 35.76 209.653 35.76C209.226 35.76 208.928 35.4827 208.757 34.928C208.16 33.3493 207.2 32.56 205.877 32.56C204.81 32.56 203.594 33.0293 202.229 33.968C200.864 34.864 199.584 35.9947 198.389 37.36C197.365 38.512 196.362 39.8347 195.381 41.328C194.442 42.8213 193.653 44.2933 193.013 45.744C192.416 47.1947 192.117 48.4533 192.117 49.52C192.117 50.2453 192.288 50.864 192.629 51.376C192.97 51.888 193.504 52.144 194.229 52.144C195.21 52.144 196.234 51.6747 197.301 50.736C198.41 49.7973 199.456 48.6453 200.437 47.28C201.461 45.9147 202.336 44.528 203.061 43.12C203.829 41.712 204.362 40.5387 204.661 39.6C204.96 38.6187 205.365 38.0213 205.877 37.808C206.389 37.552 206.901 37.424 207.413 37.424C207.925 37.424 208.352 37.296 208.693 37.04C208.864 37.9787 208.97 38.9387 209.013 39.92C209.098 40.8587 209.141 41.8187 209.141 42.8C209.141 44.7627 209.013 46.5547 208.757 48.176C208.544 49.7973 208.16 51.5253 207.605 53.36C209.141 52.4213 210.464 51.248 211.573 49.84C212.725 48.3893 213.664 46.9387 214.389 45.488C215.157 43.9947 215.776 42.7147 216.245 41.648C216.757 41.648 217.013 41.84 217.013 42.224C216.458 43.376 215.754 44.784 214.901 46.448C214.09 48.112 213.045 49.7333 211.765 51.312C210.528 52.848 208.97 54.0427 207.093 54.896C206.368 56.944 205.322 59.0987 203.957 61.36C202.634 63.6213 201.056 65.7333 199.221 67.696C197.386 69.7013 195.381 71.3227 193.205 72.56C191.029 73.7973 188.789 74.416 186.485 74.416ZM184.949 73.136C185.888 73.136 186.869 72.9227 187.893 72.496C188.96 72.112 189.962 71.6427 190.901 71.088C191.84 70.5333 192.565 70.064 193.077 69.68C194.058 68.912 195.061 67.952 196.085 66.8C197.109 65.648 198.005 64.5387 198.773 63.472C199.498 62.448 200.245 61.36 201.013 60.208C201.781 59.0987 202.4 57.9893 202.869 56.88L200.245 57.712C198.837 58.1387 197.28 58.6507 195.573 59.248C193.909 59.888 192.245 60.592 190.581 61.36C188.917 62.128 187.402 62.96 186.037 63.856C184.842 64.6667 183.861 65.7333 183.093 67.056C182.282 68.3787 181.877 69.5307 181.877 70.512C181.877 71.2373 182.133 71.856 182.645 72.368C183.114 72.88 183.882 73.136 184.949 73.136ZM211.86 74.416C207.807 74.416 205.78 72.752 205.78 69.424C205.78 67.8453 206.335 66.4373 207.444 65.2C208.553 63.9627 209.876 62.896 211.412 62C213.545 60.72 215.636 59.696 217.684 58.928C219.732 58.16 221.695 57.4773 223.572 56.88C225.449 56.3253 227.199 55.7067 228.82 55.024C229.204 53.9147 229.524 52.6987 229.78 51.376C230.036 50.0107 230.228 48.688 230.356 47.408C230.484 46.128 230.548 45.0187 230.548 44.08C230.548 43.0987 230.484 42.4587 230.356 42.16C229.887 43.056 229.247 44.1653 228.436 45.488C227.668 46.8107 226.751 48.1333 225.684 49.456C224.66 50.736 223.572 51.8027 222.42 52.656C221.268 53.5093 220.095 53.936 218.9 53.936C218.473 53.936 218.068 53.872 217.684 53.744C216.489 53.232 215.615 52.5067 215.06 51.568C214.548 50.6293 214.292 49.5627 214.292 48.368C214.292 46.448 214.847 44.3787 215.956 42.16C217.065 39.9413 218.388 37.9147 219.924 36.08C221.161 34.5867 222.612 33.392 224.276 32.496C225.94 31.6 227.625 31.152 229.332 31.152C231.295 31.152 233.129 31.8133 234.836 33.136C235.476 33.648 235.796 34.2027 235.796 34.8C235.796 35.44 235.54 35.76 235.028 35.76C234.601 35.76 234.303 35.4827 234.132 34.928C233.535 33.3493 232.575 32.56 231.252 32.56C230.185 32.56 228.969 33.0293 227.604 33.968C226.239 34.864 224.959 35.9947 223.764 37.36C222.74 38.512 221.737 39.8347 220.756 41.328C219.817 42.8213 219.028 44.2933 218.388 45.744C217.791 47.1947 217.492 48.4533 217.492 49.52C217.492 50.2453 217.663 50.864 218.004 51.376C218.345 51.888 218.879 52.144 219.604 52.144C220.585 52.144 221.609 51.6747 222.676 50.736C223.785 49.7973 224.831 48.6453 225.812 47.28C226.836 45.9147 227.711 44.528 228.436 43.12C229.204 41.712 229.737 40.5387 230.036 39.6C230.335 38.6187 230.74 38.0213 231.252 37.808C231.764 37.552 232.276 37.424 232.788 37.424C233.3 37.424 233.727 37.296 234.068 37.04C234.239 37.9787 234.345 38.9387 234.388 39.92C234.473 40.8587 234.516 41.8187 234.516 42.8C234.516 44.7627 234.388 46.5547 234.132 48.176C233.919 49.7973 233.535 51.5253 232.98 53.36C234.516 52.4213 235.839 51.248 236.948 49.84C238.1 48.3893 239.039 46.9387 239.764 45.488C240.532 43.9947 241.151 42.7147 241.62 41.648C242.132 41.648 242.388 41.84 242.388 42.224C241.833 43.376 241.129 44.784 240.276 46.448C239.465 48.112 238.42 49.7333 237.14 51.312C235.903 52.848 234.345 54.0427 232.468 54.896C231.743 56.944 230.697 59.0987 229.332 61.36C228.009 63.6213 226.431 65.7333 224.596 67.696C222.761 69.7013 220.756 71.3227 218.58 72.56C216.404 73.7973 214.164 74.416 211.86 74.416ZM210.324 73.136C211.263 73.136 212.244 72.9227 213.268 72.496C214.335 72.112 215.337 71.6427 216.276 71.088C217.215 70.5333 217.94 70.064 218.452 69.68C219.433 68.912 220.436 67.952 221.46 66.8C222.484 65.648 223.38 64.5387 224.148 63.472C224.873 62.448 225.62 61.36 226.388 60.208C227.156 59.0987 227.775 57.9893 228.244 56.88L225.62 57.712C224.212 58.1387 222.655 58.6507 220.948 59.248C219.284 59.888 217.62 60.592 215.956 61.36C214.292 62.128 212.777 62.96 211.412 63.856C210.217 64.6667 209.236 65.7333 208.468 67.056C207.657 68.3787 207.252 69.5307 207.252 70.512C207.252 71.2373 207.508 71.856 208.02 72.368C208.489 72.88 209.257 73.136 210.324 73.136ZM245.491 54C243.742 54 242.44 53.3813 241.587 52.144C240.776 50.864 240.371 49.328 240.371 47.536C240.371 45.872 240.691 44.144 241.331 42.352C242.014 40.3893 242.952 38.5973 244.147 36.976C245.384 35.3547 246.728 34.0533 248.179 33.072C249.672 32.048 251.144 31.536 252.595 31.536C254.344 31.536 255.624 32.1333 256.435 33.328C257.288 34.5227 257.715 36.0373 257.715 37.872C257.715 39.152 257.502 40.496 257.075 41.904C256.648 43.312 256.072 44.6987 255.347 46.064C255.902 46.6187 256.691 46.896 257.715 46.896C258.91 46.896 259.934 46.512 260.787 45.744C261.64 44.976 262.472 43.6107 263.283 41.648C263.795 41.648 264.051 41.84 264.051 42.224C263.24 44.1867 262.302 45.6373 261.235 46.576C260.211 47.472 258.888 47.8987 257.267 47.856C256.286 47.856 255.475 47.5787 254.835 47.024C253.64 48.9867 252.211 50.6507 250.547 52.016C248.926 53.3387 247.24 54 245.491 54ZM246.387 52.592C247.368 52.592 248.35 52.1867 249.331 51.376C250.312 50.5227 251.208 49.5627 252.019 48.496C252.83 47.4293 253.406 46.512 253.747 45.744C253.064 44.5067 252.659 43.5893 252.531 42.992C252.446 42.352 252.403 41.8827 252.403 41.584C252.403 40.7733 252.616 40.1547 253.043 39.728C253.47 39.3013 253.896 39.088 254.323 39.088C254.92 39.088 255.432 39.344 255.859 39.856C255.944 39.3867 256.008 38.96 256.051 38.576C256.094 38.1493 256.115 37.744 256.115 37.36C256.115 36.2507 255.902 35.3547 255.475 34.672C255.091 33.9467 254.472 33.584 253.619 33.584C252.723 33.584 251.784 33.968 250.803 34.736C249.822 35.504 248.883 36.528 247.987 37.808C247.134 39.088 246.387 40.5173 245.747 42.096C245.192 43.4187 244.766 44.6773 244.467 45.872C244.168 47.024 244.019 48.0907 244.019 49.072C244.019 50.1387 244.211 50.992 244.595 51.632C244.979 52.272 245.576 52.592 246.387 52.592ZM276.524 20.208C275.969 21.0187 275.351 22.0427 274.668 23.28C273.985 24.5173 273.345 25.712 272.748 26.864C272.193 28.016 271.767 28.8907 271.468 29.488H277.356C277.356 29.6587 277.271 29.936 277.1 30.32C276.972 30.704 276.695 30.9813 276.268 31.152H270.7C270.188 32.304 269.591 33.6907 268.908 35.312C268.268 36.9333 267.628 38.6187 266.988 40.368C266.391 42.1173 265.879 43.76 265.452 45.296C265.068 46.7893 264.876 48.0053 264.876 48.944C264.876 50.224 265.047 51.184 265.388 51.824C265.729 52.4213 266.348 52.72 267.244 52.72C268.396 52.72 269.505 52.1653 270.572 51.056C271.639 49.904 272.641 48.4747 273.58 46.768C274.561 45.0613 275.415 43.3547 276.14 41.648C276.652 41.648 276.908 41.84 276.908 42.224C276.439 43.376 275.863 44.6347 275.18 46C274.497 47.3653 273.708 48.688 272.812 49.968C271.959 51.2053 270.977 52.2293 269.868 53.04C268.801 53.808 267.607 54.192 266.284 54.192C264.492 54.192 263.276 53.7013 262.636 52.72C261.996 51.696 261.676 50.3947 261.676 48.816C261.676 47.664 261.889 46.2773 262.316 44.656C262.743 42.992 263.255 41.2853 263.852 39.536C264.492 37.7867 265.111 36.1653 265.708 34.672C266.305 33.136 266.775 31.9627 267.116 31.152H263.02C263.02 30.8107 263.169 30.448 263.468 30.064C263.767 29.68 264.087 29.488 264.428 29.488H267.82C268.161 28.8053 268.545 27.952 268.972 26.928C269.441 25.904 270.06 24.7733 270.828 23.536C271.468 22.512 272.279 21.7013 273.26 21.104C274.284 20.5067 275.372 20.208 276.524 20.208ZM290.039 54.192C289.058 54.192 288.183 53.9147 287.415 53.36C286.69 52.8053 286.327 51.6747 286.327 49.968C286.327 49.2427 286.37 48.56 286.455 47.92C286.583 47.28 286.732 46.5973 286.903 45.872C286.519 46.512 285.986 47.3013 285.303 48.24C284.62 49.1787 283.852 50.096 282.999 50.992C282.188 51.888 281.335 52.6347 280.439 53.232C279.586 53.8293 278.775 54.128 278.007 54.128C276.898 54.128 276.002 53.6373 275.319 52.656C274.636 51.632 274.295 50.3093 274.295 48.688C274.295 46.9387 274.7 45.0613 275.511 43.056C276.322 41.0507 277.431 39.1307 278.839 37.296C280.247 35.4613 281.868 33.968 283.703 32.816C285.538 31.664 287.458 31.088 289.463 31.088C290.444 31.088 291.383 31.2587 292.279 31.6C293.175 31.8987 293.964 32.4107 294.647 33.136C294.946 33.4347 295.095 33.776 295.095 34.16C295.095 34.416 294.988 34.6293 294.775 34.8C294.562 34.9707 294.284 35.0133 293.943 34.928C293.474 33.4347 292.471 32.688 290.935 32.688C290.21 32.688 289.378 32.9227 288.439 33.392C287.287 33.9893 286.05 34.9493 284.727 36.272C283.447 37.552 282.231 39.024 281.079 40.688C279.97 42.3093 279.052 43.952 278.327 45.616C277.602 47.28 277.239 48.7947 277.239 50.16C277.239 51.568 277.772 52.272 278.839 52.272C279.778 52.272 280.738 51.824 281.719 50.928C282.743 50.032 283.703 48.9227 284.599 47.6C285.538 46.2347 286.391 44.8907 287.159 43.568C287.927 42.2453 288.524 41.1787 288.951 40.368C289.591 39.216 290.188 38.256 290.743 37.488C291.298 36.72 292.087 36.336 293.111 36.336C293.58 36.336 294.05 36.4 294.519 36.528C294.988 36.656 295.479 36.6773 295.991 36.592C294.711 37.872 293.58 39.3867 292.599 41.136C291.66 42.8853 290.935 44.6133 290.423 46.32C289.911 47.984 289.655 49.392 289.655 50.544C289.655 51.824 290.082 52.464 290.935 52.464C291.618 52.464 292.343 52.08 293.111 51.312C293.922 50.544 294.69 49.584 295.415 48.432C296.183 47.2373 296.887 46.0427 297.527 44.848C298.167 43.6107 298.679 42.544 299.063 41.648C299.276 41.648 299.447 41.6693 299.575 41.712C299.746 41.7547 299.831 41.9253 299.831 42.224C299.788 42.3947 299.703 42.5867 299.575 42.8C299.49 42.9707 299.34 43.2907 299.127 43.76C298.786 44.4427 298.316 45.36 297.719 46.512C297.122 47.664 296.418 48.8373 295.607 50.032C294.796 51.184 293.922 52.1653 292.983 52.976C292.044 53.7867 291.063 54.192 290.039 54.192Z" fill="black"/>
<line x1="314.5" y1="39.5" x2="414.5" y2="39.5" stroke="black"/>
</svg>
