<svg width="511" height="120" viewBox="0 0 511 120" fill="none" xmlns="http://www.w3.org/2000/svg">
<line x1="0.5" y1="59.5" x2="100.5" y2="59.5" stroke="#00A3CC"/>
<path d="M156.904 88.72C163.24 88.72 169.032 87.344 174.28 84.592C179.528 81.904 184.264 78.224 188.488 73.552C192.776 68.816 196.52 63.536 199.72 57.712C201.768 54 203.688 50.224 205.48 46.384C207.272 42.544 208.936 38.928 210.472 35.536C212.008 32.08 213.384 29.104 214.6 26.608C215.816 24.112 216.84 22.32 217.672 21.232C214.152 19.952 210.088 18.832 205.48 17.872C200.936 16.848 195.24 16.144 188.392 15.76C183.592 15.504 179.304 16.048 175.528 17.392C171.816 18.736 168.648 20.56 166.024 22.864C163.464 25.104 161.48 27.568 160.072 30.256C158.728 32.944 158.056 35.536 158.056 38.032C158.056 40.4 158.6 42.352 159.688 43.888C160.776 45.36 162.184 46.448 163.912 47.152C165.704 47.856 167.528 48.208 169.384 48.208C171.688 48.208 173.704 47.728 175.432 46.768C177.16 45.808 178.6 44.656 179.752 43.312C180.968 41.904 181.864 40.592 182.44 39.376C183.08 38.096 183.4 37.168 183.4 36.592V36.496C183.72 36.112 184.04 35.92 184.36 35.92C185 35.92 185.32 36.368 185.32 37.264C185 40.016 184.008 42.416 182.344 44.464C180.744 46.512 178.792 48.08 176.488 49.168C174.184 50.256 171.752 50.8 169.192 50.8C166.568 50.8 164.04 50.16 161.608 48.88C159.176 47.6 157.192 45.744 155.656 43.312C154.12 40.88 153.352 37.936 153.352 34.48C153.352 31.664 153.96 28.88 155.176 26.128C156.456 23.312 158.344 20.752 160.84 18.448C163.4 16.08 166.632 14.192 170.536 12.784C174.44 11.376 179.048 10.672 184.36 10.672C189.096 10.672 193.384 11.12 197.224 12.016C201.128 12.912 204.84 14.032 208.36 15.376C211.944 16.656 215.56 17.936 219.208 19.216C220.232 17.936 221.416 16.752 222.76 15.664C224.168 14.512 225.576 13.936 226.984 13.936C228.264 13.936 228.904 14.32 228.904 15.088C228.904 15.856 228.456 16.24 227.56 16.24C226.6 16.24 225.608 16.656 224.584 17.488C223.56 18.256 222.664 19.12 221.896 20.08C226.44 21.552 230.76 22.832 234.856 23.92C239.016 24.944 242.6 25.456 245.608 25.456C248.488 25.456 250.536 25.232 251.752 24.784C253.032 24.336 253.672 23.6 253.672 22.576C253.672 22.192 253.736 21.872 253.864 21.616C254.056 21.296 254.376 21.136 254.824 21.136C255.144 21.136 255.368 21.424 255.496 22C255.624 22.512 255.688 22.928 255.688 23.248C255.688 24.784 254.856 26.032 253.192 26.992C251.592 27.952 249.576 28.432 247.144 28.432C245.032 28.432 242.472 28.144 239.464 27.568C236.52 26.992 233.384 26.256 230.056 25.36C226.728 24.4 223.496 23.344 220.36 22.192C217.992 26.032 215.976 29.968 214.312 34C212.712 37.968 211.208 41.968 209.8 46C208.456 50.032 207.016 54 205.48 57.904C202.344 65.712 198.536 72.08 194.056 77.008C189.576 81.872 184.264 85.424 178.12 87.664C172.04 89.968 164.968 91.12 156.904 91.12C149.544 91.12 143.272 90.032 138.088 87.856C132.904 85.68 128.936 82.736 126.184 79.024C123.496 75.248 122.152 71.056 122.152 66.448C122.152 62.48 122.792 58.864 124.072 55.6C125.416 52.336 127.24 49.616 129.544 47.44C131.912 45.264 134.6 43.824 137.608 43.12C138.056 43.12 138.28 43.28 138.28 43.6C138.28 43.92 138.12 44.176 137.8 44.368C134.472 46.352 131.912 49.168 130.12 52.816C128.392 56.4 127.528 60.176 127.528 64.144C127.528 69.392 128.84 73.84 131.464 77.488C134.152 81.136 137.704 83.92 142.12 85.84C146.6 87.76 151.528 88.72 156.904 88.72ZM219.607 82.384C217.239 82.384 215.095 81.616 213.175 80.08C211.319 78.544 210.391 76.208 210.391 73.072C210.391 70.192 211.095 67.12 212.503 63.856C213.911 60.528 215.703 57.616 217.879 55.12C219.735 52.944 221.815 51.152 224.119 49.744C226.423 48.336 228.599 47.632 230.647 47.632C232.055 47.632 233.271 48.016 234.295 48.784C235.383 49.616 235.927 50.8 235.927 52.336C235.927 53.936 235.319 55.696 234.103 57.616C232.887 59.536 231.159 61.328 228.919 62.992C227.959 63.696 226.743 64.368 225.271 65.008C223.799 65.648 222.327 66.192 220.855 66.64C219.383 67.024 218.167 67.216 217.207 67.216C216.887 67.984 216.567 69.008 216.247 70.288C215.991 71.568 215.863 72.88 215.863 74.224C215.863 75.824 216.183 77.264 216.823 78.544C217.463 79.824 218.647 80.464 220.375 80.464C222.615 80.464 224.919 79.696 227.287 78.16C229.655 76.624 231.895 74.736 234.007 72.496C236.183 70.192 237.975 67.92 239.383 65.68C240.151 64.016 240.951 62.384 241.783 60.784C242.615 59.12 243.447 57.488 244.279 55.888C245.559 53.584 246.647 51.984 247.543 51.088C248.439 50.128 249.623 49.648 251.095 49.648C251.607 49.648 252.151 49.744 252.727 49.936C253.303 50.064 253.879 50.128 254.455 50.128C254.839 50.128 255.127 50.096 255.319 50.032C254.423 50.544 253.239 51.824 251.767 53.872C250.359 55.856 248.919 58.16 247.447 60.784C245.975 63.408 244.663 65.872 243.511 68.176C244.727 66.704 246.007 65.232 247.351 63.76C248.695 62.288 250.167 60.88 251.767 59.536C253.303 58.192 255.127 56.816 257.239 55.408C259.415 53.936 261.527 52.72 263.575 51.76C265.623 50.8 267.255 50.32 268.471 50.32C268.919 50.32 269.239 50.352 269.431 50.416C269.431 50.416 269.079 51.056 268.375 52.336C267.671 53.552 266.775 55.184 265.687 57.232C264.663 59.216 263.607 61.36 262.519 63.664C261.431 65.904 260.439 68.08 259.543 70.192C258.711 72.24 258.167 73.968 257.911 75.376C257.719 76.208 257.623 76.976 257.623 77.68C257.623 78.704 257.815 79.376 258.199 79.696C258.583 80.016 258.999 80.176 259.447 80.176C260.663 80.176 261.911 79.632 263.191 78.544C264.471 77.456 265.687 76.048 266.839 74.32C268.055 72.592 269.175 70.768 270.199 68.848C271.223 66.928 272.087 65.136 272.791 63.472C273.559 63.472 273.943 63.76 273.943 64.336C273.239 66.064 272.343 67.984 271.255 70.096C270.231 72.144 269.047 74.128 267.703 76.048C266.423 77.904 264.983 79.44 263.383 80.656C261.783 81.872 260.055 82.48 258.199 82.48C256.919 82.48 255.575 82.032 254.167 81.136C252.823 80.24 252.151 78.576 252.151 76.144C252.151 75.44 252.215 74.704 252.343 73.936C252.471 73.104 252.695 72.208 253.015 71.248C253.527 69.968 254.135 68.592 254.839 67.12C255.543 65.648 256.695 63.632 258.295 61.072C258.743 60.368 258.999 59.824 259.063 59.44C259.191 59.056 259.255 58.736 259.255 58.48C259.255 57.712 258.903 57.328 258.199 57.328C257.623 57.328 256.759 57.648 255.607 58.288C254.519 58.928 253.143 60.048 251.479 61.648C249.879 63.184 247.959 65.36 245.719 68.176C243.543 70.992 241.015 75.152 238.135 80.656C237.687 81.488 237.175 81.936 236.599 82C236.087 82.064 235.351 82.128 234.391 82.192C233.751 82.256 233.143 82.32 232.567 82.384C231.991 82.448 231.511 82.608 231.127 82.864C231.895 81.328 232.631 79.792 233.335 78.256C234.103 76.72 234.839 75.216 235.543 73.744C233.367 76.112 230.903 78.16 228.151 79.888C225.399 81.552 222.551 82.384 219.607 82.384ZM217.879 65.488C218.775 65.488 220.279 65.168 222.391 64.528C224.503 63.824 226.423 62.736 228.151 61.264C229.815 59.792 231.095 58.192 231.991 56.464C232.887 54.672 233.335 53.168 233.335 51.952C233.335 50.544 232.823 49.84 231.799 49.84C231.031 49.84 229.975 50.352 228.631 51.376C227.287 52.4 225.623 54.128 223.639 56.56C222.423 58.096 221.271 59.76 220.183 61.552C219.095 63.344 218.327 64.656 217.879 65.488ZM292.661 31.312C291.829 32.528 290.901 34.064 289.877 35.92C288.853 37.776 287.893 39.568 286.997 41.296C286.165 43.024 285.525 44.336 285.077 45.232H293.909C293.909 45.488 293.781 45.904 293.525 46.48C293.333 47.056 292.917 47.472 292.277 47.728H283.925C283.157 49.456 282.261 51.536 281.237 53.968C280.277 56.4 279.317 58.928 278.357 61.552C277.461 64.176 276.693 66.64 276.053 68.944C275.477 71.184 275.189 73.008 275.189 74.416C275.189 76.336 275.445 77.776 275.957 78.736C276.469 79.632 277.397 80.08 278.741 80.08C280.469 80.08 282.133 79.248 283.733 77.584C285.333 75.856 286.837 73.712 288.245 71.152C289.717 68.592 290.997 66.032 292.085 63.472C292.853 63.472 293.237 63.76 293.237 64.336C292.533 66.064 291.669 67.952 290.645 70C289.621 72.048 288.437 74.032 287.093 75.952C285.813 77.808 284.341 79.344 282.677 80.56C281.077 81.712 279.285 82.288 277.301 82.288C274.613 82.288 272.789 81.552 271.829 80.08C270.869 78.544 270.389 76.592 270.389 74.224C270.389 72.496 270.709 70.416 271.349 67.984C271.989 65.488 272.757 62.928 273.653 60.304C274.613 57.68 275.541 55.248 276.437 53.008C277.333 50.704 278.037 48.944 278.549 47.728H272.405C272.405 47.216 272.629 46.672 273.077 46.096C273.525 45.52 274.005 45.232 274.517 45.232H279.605C280.117 44.208 280.693 42.928 281.333 41.392C282.037 39.856 282.965 38.16 284.117 36.304C285.077 34.768 286.293 33.552 287.765 32.656C289.301 31.76 290.933 31.312 292.661 31.312ZM312.934 82.288C311.462 82.288 310.15 81.872 308.998 81.04C307.91 80.208 307.366 78.512 307.366 75.952C307.366 74.864 307.43 73.84 307.558 72.88C307.75 71.92 307.974 70.896 308.23 69.808C307.654 70.768 306.854 71.952 305.83 73.36C304.806 74.768 303.654 76.144 302.374 77.488C301.158 78.832 299.878 79.952 298.534 80.848C297.254 81.744 296.038 82.192 294.886 82.192C293.222 82.192 291.878 81.456 290.854 79.984C289.83 78.448 289.318 76.464 289.318 74.032C289.318 71.408 289.926 68.592 291.142 65.584C292.358 62.576 294.022 59.696 296.134 56.944C298.246 54.192 300.678 51.952 303.43 50.224C306.182 48.496 309.062 47.632 312.07 47.632C313.542 47.632 314.95 47.888 316.294 48.4C317.638 48.848 318.822 49.616 319.846 50.704C320.294 51.152 320.518 51.664 320.518 52.24C320.518 52.624 320.358 52.944 320.038 53.2C319.718 53.456 319.302 53.52 318.79 53.392C318.086 51.152 316.582 50.032 314.278 50.032C313.19 50.032 311.942 50.384 310.534 51.088C308.806 51.984 306.95 53.424 304.966 55.408C303.046 57.328 301.222 59.536 299.494 62.032C297.83 64.464 296.454 66.928 295.366 69.424C294.278 71.92 293.734 74.192 293.734 76.24C293.734 78.352 294.534 79.408 296.134 79.408C297.542 79.408 298.982 78.736 300.454 77.392C301.99 76.048 303.43 74.384 304.774 72.4C306.182 70.352 307.462 68.336 308.614 66.352C309.766 64.368 310.662 62.768 311.302 61.552C312.262 59.824 313.158 58.384 313.99 57.232C314.822 56.08 316.006 55.504 317.542 55.504C318.246 55.504 318.95 55.6 319.654 55.792C320.358 55.984 321.094 56.016 321.862 55.888C319.942 57.808 318.246 60.08 316.774 62.704C315.366 65.328 314.278 67.92 313.51 70.48C312.742 72.976 312.358 75.088 312.358 76.816C312.358 78.736 312.998 79.696 314.278 79.696C315.302 79.696 316.39 79.12 317.542 77.968C318.758 76.816 319.91 75.376 320.998 73.648C322.15 71.856 323.206 70.064 324.166 68.272C325.126 66.416 325.894 64.816 326.47 63.472C326.79 63.472 327.046 63.504 327.238 63.568C327.494 63.632 327.622 63.888 327.622 64.336C327.558 64.592 327.43 64.88 327.238 65.2C327.11 65.456 326.886 65.936 326.566 66.64C326.054 67.664 325.35 69.04 324.454 70.768C323.558 72.496 322.502 74.256 321.286 76.048C320.07 77.776 318.758 79.248 317.35 80.464C315.942 81.68 314.47 82.288 312.934 82.288ZM317.292 82.768C319.596 78.096 321.804 73.488 323.916 68.944C326.028 64.336 328.204 59.952 330.444 55.792C331.724 53.488 332.812 51.888 333.708 50.992C334.604 50.032 335.788 49.552 337.26 49.552C337.772 49.552 338.316 49.648 338.892 49.84C339.468 49.968 340.044 50.032 340.62 50.032C341.004 50.032 341.292 50 341.484 49.936C340.588 50.448 339.404 51.728 337.932 53.776C336.524 55.76 335.084 58.064 333.612 60.688C332.14 63.312 330.828 65.776 329.676 68.08C330.892 66.608 332.172 65.136 333.516 63.664C334.86 62.192 336.332 60.784 337.932 59.44C339.468 58.096 341.292 56.72 343.404 55.312C345.58 53.84 347.692 52.624 349.74 51.664C351.788 50.704 353.42 50.224 354.636 50.224C355.084 50.224 355.404 50.256 355.596 50.32C355.596 50.32 355.244 50.96 354.54 52.24C353.836 53.456 352.94 55.088 351.852 57.136C350.828 59.12 349.772 61.264 348.684 63.568C347.596 65.808 346.604 67.984 345.708 70.096C344.876 72.144 344.332 73.872 344.076 75.28C343.884 76.112 343.788 76.88 343.788 77.584C343.788 78.608 343.98 79.28 344.364 79.6C344.748 79.92 345.164 80.08 345.612 80.08C346.828 80.08 348.076 79.536 349.356 78.448C350.636 77.36 351.852 75.984 353.004 74.32C354.22 72.592 355.34 70.768 356.364 68.848C357.388 66.928 358.252 65.136 358.956 63.472C359.724 63.472 360.108 63.76 360.108 64.336C359.404 66.064 358.508 67.984 357.42 70.096C356.396 72.144 355.212 74.096 353.868 75.952C352.588 77.808 351.148 79.344 349.548 80.56C347.948 81.776 346.22 82.384 344.364 82.384C343.084 82.384 341.74 81.936 340.332 81.04C338.988 80.144 338.316 78.48 338.316 76.048C338.316 75.344 338.38 74.608 338.508 73.84C338.636 73.008 338.86 72.112 339.18 71.152C339.692 69.872 340.3 68.496 341.004 67.024C341.708 65.552 342.86 63.536 344.46 60.976C344.908 60.272 345.164 59.728 345.228 59.344C345.356 58.96 345.42 58.64 345.42 58.384C345.42 57.616 345.068 57.232 344.364 57.232C343.788 57.232 342.924 57.552 341.772 58.192C340.684 58.832 339.308 59.952 337.644 61.552C336.044 63.088 334.124 65.264 331.884 68.08C329.708 70.896 327.18 75.056 324.3 80.56C323.852 81.392 323.34 81.84 322.764 81.904C322.252 81.968 321.516 82.032 320.556 82.096C319.916 82.16 319.308 82.192 318.732 82.192C318.156 82.256 317.676 82.448 317.292 82.768ZM352.321 112.624C346.241 112.624 343.201 110.128 343.201 105.136C343.201 102.768 344.033 100.656 345.697 98.8C347.361 96.944 349.345 95.344 351.649 94C354.849 92.08 357.985 90.544 361.057 89.392C364.129 88.24 367.073 87.216 369.889 86.32C372.705 85.488 375.329 84.56 377.761 83.536C378.337 81.872 378.817 80.048 379.201 78.064C379.585 76.016 379.873 74.032 380.065 72.112C380.257 70.192 380.353 68.528 380.353 67.12C380.353 65.648 380.257 64.688 380.065 64.24C379.361 65.584 378.401 67.248 377.185 69.232C376.033 71.216 374.657 73.2 373.057 75.184C371.521 77.104 369.889 78.704 368.161 79.984C366.433 81.264 364.673 81.904 362.881 81.904C362.241 81.904 361.633 81.808 361.057 81.616C359.265 80.848 357.953 79.76 357.121 78.352C356.353 76.944 355.969 75.344 355.969 73.552C355.969 70.672 356.801 67.568 358.465 64.24C360.129 60.912 362.113 57.872 364.417 55.12C366.273 52.88 368.449 51.088 370.945 49.744C373.441 48.4 375.969 47.728 378.529 47.728C381.473 47.728 384.225 48.72 386.785 50.704C387.745 51.472 388.225 52.304 388.225 53.2C388.225 54.16 387.841 54.64 387.073 54.64C386.433 54.64 385.985 54.224 385.729 53.392C384.833 51.024 383.393 49.84 381.409 49.84C379.809 49.84 377.985 50.544 375.937 51.952C373.889 53.296 371.969 54.992 370.177 57.04C368.641 58.768 367.137 60.752 365.665 62.992C364.257 65.232 363.073 67.44 362.113 69.616C361.217 71.792 360.769 73.68 360.769 75.28C360.769 76.368 361.025 77.296 361.537 78.064C362.049 78.832 362.849 79.216 363.937 79.216C365.409 79.216 366.945 78.512 368.545 77.104C370.209 75.696 371.777 73.968 373.249 71.92C374.785 69.872 376.097 67.792 377.185 65.68C378.337 63.568 379.137 61.808 379.585 60.4C380.033 58.928 380.641 58.032 381.409 57.712C382.177 57.328 382.945 57.136 383.713 57.136C384.481 57.136 385.121 56.944 385.633 56.56C385.889 57.968 386.049 59.408 386.113 60.88C386.241 62.288 386.305 63.728 386.305 65.2C386.305 68.144 386.113 70.832 385.729 73.264C385.409 75.696 384.833 78.288 384.001 81.04C386.305 79.632 388.289 77.872 389.953 75.76C391.681 73.584 393.089 71.408 394.177 69.232C395.329 66.992 396.257 65.072 396.961 63.472C397.729 63.472 398.113 63.76 398.113 64.336C397.281 66.064 396.225 68.176 394.945 70.672C393.729 73.168 392.161 75.6 390.241 77.968C388.385 80.272 386.049 82.064 383.233 83.344C382.145 86.416 380.577 89.648 378.529 93.04C376.545 96.432 374.177 99.6 371.425 102.544C368.673 105.552 365.665 107.984 362.401 109.84C359.137 111.696 355.777 112.624 352.321 112.624ZM350.017 110.704C351.425 110.704 352.897 110.384 354.433 109.744C356.033 109.168 357.537 108.464 358.945 107.632C360.353 106.8 361.441 106.096 362.209 105.52C363.681 104.368 365.185 102.928 366.721 101.2C368.257 99.472 369.601 97.808 370.753 96.208C371.841 94.672 372.961 93.04 374.113 91.312C375.265 89.648 376.193 87.984 376.897 86.32L372.961 87.568C370.849 88.208 368.513 88.976 365.953 89.872C363.457 90.832 360.961 91.888 358.465 93.04C355.969 94.192 353.697 95.44 351.649 96.784C349.857 98 348.385 99.6 347.233 101.584C346.017 103.568 345.409 105.296 345.409 106.768C345.409 107.856 345.793 108.784 346.561 109.552C347.265 110.32 348.417 110.704 350.017 110.704Z" fill="#00A3CC"/>
<line x1="410.5" y1="59.5" x2="510.5" y2="59.5" stroke="#00A3CC"/>
</svg>
