<svg width="539" height="80" viewBox="0 0 539 80" fill="none" xmlns="http://www.w3.org/2000/svg">
<line y1="39.5" x2="100" y2="39.5" stroke="black"/>
<path d="M143.863 60.464C139.17 60.464 135.074 59.7387 131.575 58.288C128.119 56.8373 125.431 54.8533 123.511 52.336C121.634 49.776 120.695 46.8747 120.695 43.632C120.695 40.9867 121.165 38.576 122.103 36.4C123.042 34.224 124.279 32.4107 125.815 30.96C127.394 29.5093 129.122 28.5493 130.999 28.08C131.298 28.0373 131.447 28.144 131.447 28.4C131.447 28.6133 131.341 28.784 131.127 28.912C128.909 30.2347 127.202 32.1333 126.007 34.608C124.855 37.0827 124.279 39.8347 124.279 42.864C124.279 46.1493 125.133 48.9867 126.839 51.376C128.546 53.7227 130.871 55.5147 133.815 56.752C136.802 58.032 140.151 58.672 143.863 58.672C147.063 58.672 150.093 58.096 152.951 56.944C155.853 55.8347 158.519 54.2987 160.951 52.336C163.383 50.3733 165.559 48.1547 167.479 45.68C169.442 43.1627 171.085 40.5387 172.407 37.808C172.706 37.168 173.005 36.5493 173.303 35.952C173.602 35.3547 173.901 34.7573 174.199 34.16C173.175 34.1173 172.237 34.0747 171.383 34.032C170.573 33.9893 170.018 33.968 169.719 33.968C168.567 33.968 167.33 34.0533 166.007 34.224C164.727 34.352 163.511 34.6293 162.359 35.056C161.25 35.4827 160.333 36.144 159.607 37.04C159.309 37.3387 159.117 37.5733 159.031 37.744C158.989 37.9147 158.903 38 158.775 38C158.605 38 158.455 37.872 158.327 37.616C158.199 37.3173 158.221 36.9973 158.391 36.656C159.373 34.48 160.759 33.008 162.551 32.24C164.343 31.4293 166.349 31.024 168.567 31.024C169.037 31.024 169.911 31.1093 171.191 31.28C172.514 31.408 173.901 31.5573 175.351 31.728C177.229 27.9307 178.935 24.496 180.471 21.424C182.05 18.352 183.522 15.792 184.887 13.744C181.815 12.72 178.551 11.824 175.095 11.056C171.639 10.2453 167.927 9.84 163.959 9.84C161.015 9.84 158.349 10.2453 155.959 11.056C153.57 11.8667 151.522 12.9547 149.815 14.32C148.151 15.6853 146.871 17.2 145.975 18.864C145.079 20.528 144.631 22.192 144.631 23.856C144.631 25.7333 144.994 27.2267 145.719 28.336C146.445 29.4453 147.383 30.256 148.535 30.768C149.73 31.2373 150.946 31.472 152.183 31.472C154.018 31.472 155.575 31.024 156.855 30.128C158.178 29.232 159.223 28.2293 159.991 27.12C160.759 25.968 161.229 25.0293 161.399 24.304C161.57 23.6213 161.826 23.28 162.167 23.28C162.679 23.28 162.893 23.5787 162.807 24.176C162.551 26.0533 161.89 27.6747 160.823 29.04C159.757 30.4053 158.455 31.4507 156.919 32.176C155.383 32.8587 153.762 33.2 152.055 33.2C150.306 33.2 148.621 32.7733 146.999 31.92C145.378 31.0667 144.055 29.8293 143.031 28.208C142.007 26.5867 141.495 24.624 141.495 22.32C141.495 20.4427 141.901 18.5867 142.711 16.752C143.565 14.8747 144.823 13.168 146.487 11.632C148.194 10.0533 150.349 8.79466 152.951 7.856C155.554 6.91733 158.626 6.448 162.167 6.448C164.685 6.448 167.266 6.74666 169.911 7.344C172.557 7.89867 175.223 8.624 177.911 9.52C180.642 10.3733 183.33 11.2693 185.975 12.208C186.871 11.056 187.725 10.1813 188.535 9.584C189.346 8.944 190.157 8.624 190.967 8.624C191.309 8.624 191.543 8.70933 191.671 8.88C191.799 9.008 191.863 9.136 191.863 9.264C191.863 9.43466 191.799 9.62666 191.671 9.84C191.543 10.0533 191.309 10.16 190.967 10.16C189.559 10.16 188.237 10.9493 186.999 12.528C190.071 13.552 193.015 14.4693 195.831 15.28C198.69 16.048 201.335 16.432 203.767 16.432C205.645 16.432 206.882 16.24 207.479 15.856C208.077 15.4293 208.375 14.8533 208.375 14.128C208.375 13.6587 208.525 13.424 208.823 13.424C209.037 13.424 209.229 13.5733 209.399 13.872C209.613 14.128 209.719 14.448 209.719 14.832C209.719 15.856 209.143 16.688 207.991 17.328C206.882 17.968 205.325 18.288 203.319 18.288C200.674 18.288 197.922 17.8613 195.063 17.008C192.205 16.112 189.175 15.1307 185.975 14.064C184.823 15.984 183.693 18.5013 182.583 21.616C181.474 24.688 180.173 28.1653 178.679 32.048C180.514 32.2187 182.455 32.368 184.503 32.496C186.551 32.5813 188.215 32.624 189.495 32.624C189.922 32.624 190.135 32.752 190.135 33.008C190.135 33.3493 189.645 33.648 188.663 33.904C188.023 34.0747 186.935 34.2027 185.399 34.288C183.906 34.3733 182.349 34.416 180.727 34.416C180.386 34.416 179.959 34.416 179.447 34.416C178.935 34.3733 178.381 34.352 177.783 34.352C177.399 35.3333 176.994 36.336 176.567 37.36C176.183 38.3413 175.757 39.3653 175.287 40.432C173.495 44.656 171.298 48.0907 168.695 50.736C166.135 53.3387 163.383 55.344 160.439 56.752C157.538 58.2027 154.637 59.184 151.735 59.696C148.877 60.208 146.253 60.464 143.863 60.464ZM191.412 54C189.833 54 188.724 53.552 188.084 52.656C187.444 51.7173 187.124 50.6507 187.124 49.456C187.124 48.816 187.188 48.176 187.316 47.536C187.486 46.8533 187.678 46.2347 187.892 45.68L192.18 34.736C192.308 34.3947 192.372 34.096 192.372 33.84C192.372 33.4133 192.265 33.0507 192.052 32.752C191.838 32.4107 191.689 32.176 191.604 32.048L195.124 31.92C195.764 31.8773 196.212 31.9627 196.468 32.176C196.766 32.3467 196.916 32.56 196.916 32.816C196.916 33.072 196.766 33.5413 196.468 34.224C196.041 35.248 195.465 36.528 194.74 38.064C194.014 39.6 193.289 41.1787 192.564 42.8C191.881 44.4213 191.284 45.936 190.772 47.344C190.302 48.752 190.068 49.84 190.068 50.608C190.068 51.1627 190.196 51.632 190.452 52.016C190.75 52.4 191.241 52.592 191.924 52.592C192.82 52.592 193.694 52.2507 194.548 51.568C195.444 50.8427 196.276 49.9253 197.044 48.816C197.812 47.7067 198.516 46.512 199.156 45.232C199.838 43.952 200.414 42.7573 200.884 41.648C201.396 41.648 201.652 41.84 201.652 42.224C201.225 43.2907 200.67 44.5067 199.988 45.872C199.305 47.2373 198.516 48.5387 197.62 49.776C196.766 50.9707 195.806 51.9733 194.74 52.784C193.716 53.5947 192.606 54 191.412 54ZM197.108 27.952C196.553 27.952 196.062 27.7387 195.636 27.312C195.252 26.8853 195.06 26.3733 195.06 25.776C195.06 25.0507 195.358 24.4107 195.956 23.856C196.553 23.2587 197.214 22.96 197.94 22.96C198.537 22.96 199.049 23.152 199.476 23.536C199.902 23.92 200.116 24.4107 200.116 25.008C200.116 25.776 199.817 26.4587 199.22 27.056C198.622 27.6533 197.918 27.952 197.108 27.952ZM203.878 54.192C202.299 54.192 201.126 53.7227 200.358 52.784C199.632 51.8027 199.27 50.6507 199.27 49.328C199.27 47.9627 199.462 46.5547 199.846 45.104C200.23 43.6533 200.571 42.4373 200.87 41.456C201.552 39.0667 202.406 36.528 203.43 33.84C204.496 31.1093 205.648 28.4427 206.886 25.84C208.166 23.1947 209.424 20.8267 210.662 18.736C211.643 17.072 212.688 15.8347 213.798 15.024C214.95 14.1707 215.952 13.744 216.806 13.744C217.488 13.744 218.022 14 218.406 14.512C218.832 14.9813 219.046 15.7067 219.046 16.688C219.046 17.3707 218.918 18.1813 218.662 19.12C218.448 20.0587 218.064 21.1253 217.51 22.32C216.016 25.648 214.224 28.976 212.134 32.304C210.086 35.632 207.483 38.7467 204.326 41.648C203.814 42.8427 203.387 44.1227 203.046 45.488C202.704 46.8533 202.534 47.9627 202.534 48.816C202.534 51.4613 203.43 52.784 205.222 52.784C206.587 52.784 208.102 51.8027 209.766 49.84C211.43 47.8347 213.008 45.104 214.502 41.648C214.672 41.648 214.843 41.6907 215.014 41.776C215.184 41.8187 215.27 41.968 215.27 42.224C214.8 43.376 214.203 44.656 213.478 46.064C212.795 47.4293 211.984 48.7307 211.046 49.968C210.15 51.2053 209.104 52.2293 207.91 53.04C206.715 53.808 205.371 54.192 203.878 54.192ZM204.838 39.6C206.374 38.0213 207.867 36.208 209.318 34.16C210.768 32.0693 212.112 29.9147 213.35 27.696C214.63 25.4347 215.696 23.3013 216.55 21.296C216.848 20.656 217.083 19.952 217.254 19.184C217.467 18.416 217.574 17.776 217.574 17.264C217.574 16.6667 217.424 16.368 217.126 16.368C216.955 16.368 216.699 16.5387 216.358 16.88C216.016 17.1787 215.568 17.712 215.014 18.48C214.203 19.5467 213.307 20.9973 212.326 22.832C211.387 24.6667 210.427 26.6293 209.446 28.72C208.464 30.8107 207.568 32.8373 206.758 34.8C205.947 36.72 205.307 38.32 204.838 39.6ZM218.335 54C216.585 54 215.284 53.3813 214.431 52.144C213.62 50.864 213.215 49.328 213.215 47.536C213.215 45.872 213.535 44.144 214.175 42.352C214.857 40.3893 215.796 38.5973 216.991 36.976C218.228 35.3547 219.572 34.0533 221.023 33.072C222.516 32.048 223.988 31.536 225.439 31.536C227.188 31.536 228.468 32.1333 229.279 33.328C230.132 34.5227 230.559 36.0373 230.559 37.872C230.559 39.152 230.345 40.496 229.919 41.904C229.492 43.312 228.916 44.6987 228.191 46.064C228.745 46.6187 229.535 46.896 230.559 46.896C231.753 46.896 232.777 46.512 233.631 45.744C234.484 44.976 235.316 43.6107 236.127 41.648C236.639 41.648 236.895 41.84 236.895 42.224C236.084 44.1867 235.145 45.6373 234.079 46.576C233.055 47.472 231.732 47.8987 230.111 47.856C229.129 47.856 228.319 47.5787 227.679 47.024C226.484 48.9867 225.055 50.6507 223.391 52.016C221.769 53.3387 220.084 54 218.335 54ZM219.231 52.592C220.212 52.592 221.193 52.1867 222.175 51.376C223.156 50.5227 224.052 49.5627 224.863 48.496C225.673 47.4293 226.249 46.512 226.591 45.744C225.908 44.5067 225.503 43.5893 225.375 42.992C225.289 42.352 225.247 41.8827 225.247 41.584C225.247 40.7733 225.46 40.1547 225.887 39.728C226.313 39.3013 226.74 39.088 227.167 39.088C227.764 39.088 228.276 39.344 228.703 39.856C228.788 39.3867 228.852 38.96 228.895 38.576C228.937 38.1493 228.959 37.744 228.959 37.36C228.959 36.2507 228.745 35.3547 228.319 34.672C227.935 33.9467 227.316 33.584 226.463 33.584C225.567 33.584 224.628 33.968 223.647 34.736C222.665 35.504 221.727 36.528 220.831 37.808C219.977 39.088 219.231 40.5173 218.591 42.096C218.036 43.4187 217.609 44.6773 217.311 45.872C217.012 47.024 216.863 48.0907 216.863 49.072C216.863 50.1387 217.055 50.992 217.439 51.632C217.823 52.272 218.42 52.592 219.231 52.592ZM237.464 54.256C235.714 54.256 234.285 53.7227 233.176 52.656C232.109 51.5467 231.576 50.3947 231.576 49.2C231.576 48.2187 231.832 47.3227 232.344 46.512C232.813 45.6587 233.453 45.232 234.264 45.232L234.328 45.104C235.266 43.3973 236.162 41.6693 237.016 39.92C237.912 38.128 238.893 36.2293 239.96 34.224C240.856 32.56 241.816 31.1947 242.84 30.128C243.906 29.0613 245.144 28.528 246.552 28.528C246.893 28.528 247.362 28.6133 247.96 28.784C248.557 28.912 248.856 29.2107 248.856 29.68C248.856 30.0213 248.664 30.192 248.28 30.192C247.981 30.192 247.64 30.1067 247.256 29.936C246.914 29.7653 246.637 29.68 246.424 29.68C245.613 29.68 244.93 30.1493 244.376 31.088C243.821 32.0267 243.544 33.0293 243.544 34.096C243.544 35.248 243.736 36.2933 244.12 37.232C244.504 38.128 244.952 39.0027 245.464 39.856C245.976 40.7093 246.424 41.584 246.808 42.48C247.192 43.3333 247.384 44.272 247.384 45.296C247.384 47.344 246.978 49.008 246.168 50.288C245.4 51.5253 244.376 52.464 243.096 53.104H243.16C245.421 53.104 247.277 52.0587 248.728 49.968C250.221 47.8347 251.693 45.0613 253.144 41.648C253.656 41.648 253.912 41.84 253.912 42.224C253.101 44.144 252.205 46.0213 251.224 47.856C250.242 49.6907 249.09 51.2053 247.768 52.4C246.445 53.5947 244.824 54.192 242.904 54.192C242.093 54.192 241.346 54.1067 240.664 53.936C239.682 54.1493 238.616 54.256 237.464 54.256ZM236.504 47.472C236.504 48.496 236.738 49.4773 237.208 50.416C237.677 51.3547 238.53 52.0587 239.768 52.528C240.877 51.888 241.73 50.9067 242.328 49.584C242.968 48.2187 243.288 46.8107 243.288 45.36C243.288 44.1653 243.16 42.9493 242.904 41.712C242.648 40.4747 242.37 39.2587 242.072 38.064C241.816 36.8693 241.688 35.8027 241.688 34.864C241.688 34.5653 241.688 34.3093 241.688 34.096C241.73 33.84 241.773 33.6053 241.816 33.392C241.048 34.544 240.258 35.888 239.448 37.424C238.68 38.96 237.933 40.432 237.208 41.84C236.482 43.248 235.821 44.4 235.224 45.296C236.077 45.424 236.504 46.1493 236.504 47.472ZM234.392 50.672C234.392 51.3547 234.626 51.952 235.096 52.464C235.565 52.976 236.269 53.232 237.208 53.232C237.634 53.232 238.04 53.1893 238.424 53.104C237.528 52.5493 236.802 51.8453 236.248 50.992C235.736 50.1387 235.48 49.1573 235.48 48.048C235.096 48.4747 234.818 48.9227 234.648 49.392C234.477 49.8187 234.392 50.2453 234.392 50.672ZM257.022 54C255.273 54 253.972 53.3813 253.118 52.144C252.308 50.864 251.902 49.328 251.902 47.536C251.902 45.872 252.222 44.144 252.862 42.352C253.545 40.3893 254.484 38.5973 255.678 36.976C256.916 35.3547 258.26 34.0533 259.71 33.072C261.204 32.048 262.676 31.536 264.126 31.536C265.876 31.536 267.156 32.1333 267.966 33.328C268.82 34.5227 269.246 36.0373 269.246 37.872C269.246 39.152 269.033 40.496 268.606 41.904C268.18 43.312 267.604 44.6987 266.878 46.064C267.433 46.6187 268.222 46.896 269.246 46.896C270.441 46.896 271.465 46.512 272.318 45.744C273.172 44.976 274.004 43.6107 274.814 41.648C275.326 41.648 275.582 41.84 275.582 42.224C274.772 44.1867 273.833 45.6373 272.766 46.576C271.742 47.472 270.42 47.8987 268.798 47.856C267.817 47.856 267.006 47.5787 266.366 47.024C265.172 48.9867 263.742 50.6507 262.078 52.016C260.457 53.3387 258.772 54 257.022 54ZM257.918 52.592C258.9 52.592 259.881 52.1867 260.862 51.376C261.844 50.5227 262.74 49.5627 263.55 48.496C264.361 47.4293 264.937 46.512 265.278 45.744C264.596 44.5067 264.19 43.5893 264.062 42.992C263.977 42.352 263.934 41.8827 263.934 41.584C263.934 40.7733 264.148 40.1547 264.574 39.728C265.001 39.3013 265.428 39.088 265.854 39.088C266.452 39.088 266.964 39.344 267.39 39.856C267.476 39.3867 267.54 38.96 267.582 38.576C267.625 38.1493 267.646 37.744 267.646 37.36C267.646 36.2507 267.433 35.3547 267.006 34.672C266.622 33.9467 266.004 33.584 265.15 33.584C264.254 33.584 263.316 33.968 262.334 34.736C261.353 35.504 260.414 36.528 259.518 37.808C258.665 39.088 257.918 40.5173 257.278 42.096C256.724 43.4187 256.297 44.6773 255.998 45.872C255.7 47.024 255.55 48.0907 255.55 49.072C255.55 50.1387 255.742 50.992 256.126 51.632C256.51 52.272 257.108 52.592 257.918 52.592ZM289.143 54C287.565 54 286.455 53.552 285.815 52.656C285.175 51.7173 284.855 50.6507 284.855 49.456C284.855 49.3707 284.855 49.3067 284.855 49.264C283.831 50.6293 282.701 51.7813 281.463 52.72C280.269 53.616 279.031 54.064 277.751 54.064C277.794 54.3627 277.815 54.6613 277.815 54.96C277.815 55.3013 277.815 55.6427 277.815 55.984C277.815 58.2027 277.538 60.5067 276.983 62.896C276.471 65.2853 275.725 67.504 274.743 69.552C273.762 71.6 272.61 73.264 271.287 74.544C269.965 75.824 268.493 76.464 266.871 76.464C265.933 76.464 265.122 76.2293 264.439 75.76C263.714 75.2907 263.351 74.3733 263.351 73.008C263.351 70.8747 263.991 67.9733 265.271 64.304C266.551 60.6347 268.109 56.6027 269.943 52.208C269.431 51.3547 269.175 50.4587 269.175 49.52C269.175 48.0267 269.602 47.0027 270.455 46.448C271.181 45.8507 271.949 45.616 272.759 45.744C274.295 42.288 275.853 38.896 277.431 35.568C279.01 32.1973 280.525 29.0187 281.975 26.032C283.469 23.0453 284.813 20.4213 286.007 18.16C286.733 16.752 287.479 15.664 288.247 14.896C289.058 14.128 290.103 13.744 291.383 13.744C291.767 13.744 292.215 13.8293 292.727 14C293.282 14.128 293.773 14.1707 294.199 14.128C293.218 15.0667 291.981 16.6453 290.487 18.864C289.037 21.04 287.458 23.6427 285.751 26.672C284.045 29.7013 282.295 32.9867 280.503 36.528C278.754 40.0267 277.069 43.5893 275.447 47.216C275.831 47.728 276.215 48.4107 276.599 49.264C277.026 50.1173 277.325 51.0347 277.495 52.016C277.495 52.144 277.517 52.2933 277.559 52.464C277.602 52.592 277.645 52.72 277.687 52.848C278.967 52.9333 280.29 52.3147 281.655 50.992C283.021 49.6693 284.258 48.1333 285.367 46.384C285.453 46.1707 285.538 45.936 285.623 45.68L289.911 34.736C290.039 34.3947 290.103 34.096 290.103 33.84C290.103 33.4133 289.997 33.0507 289.783 32.752C289.57 32.4107 289.421 32.176 289.335 32.048L292.855 31.92C293.495 31.8773 293.943 31.9627 294.199 32.176C294.498 32.3467 294.647 32.56 294.647 32.816C294.647 33.072 294.498 33.5413 294.199 34.224C293.773 35.248 293.197 36.528 292.471 38.064C291.746 39.6 291.021 41.1787 290.295 42.8C289.613 44.4213 289.015 45.936 288.503 47.344C288.034 48.752 287.799 49.84 287.799 50.608C287.799 51.1627 287.927 51.632 288.183 52.016C288.482 52.4 288.973 52.592 289.655 52.592C290.551 52.592 291.426 52.2507 292.279 51.568C293.175 50.8427 294.007 49.9253 294.775 48.816C295.543 47.7067 296.247 46.512 296.887 45.232C297.57 43.952 298.146 42.7573 298.615 41.648C299.127 41.648 299.383 41.84 299.383 42.224C298.957 43.2907 298.402 44.5067 297.719 45.872C297.037 47.2373 296.247 48.5387 295.351 49.776C294.498 50.9707 293.538 51.9733 292.471 52.784C291.447 53.5947 290.338 54 289.143 54ZM294.199 27.952C293.645 27.952 293.154 27.7387 292.727 27.312C292.343 26.8853 292.151 26.3733 292.151 25.776C292.151 25.0507 292.45 24.4107 293.047 23.856C293.645 23.2587 294.306 22.96 295.031 22.96C295.629 22.96 296.141 23.152 296.567 23.536C296.994 23.92 297.207 24.4107 297.207 25.008C297.207 25.776 296.909 26.4587 296.311 27.056C295.714 27.6533 295.01 27.952 294.199 27.952ZM275.959 53.104H276.279C276.237 51.9947 276.045 51.0347 275.703 50.224C275.447 49.6267 275.127 49.1147 274.743 48.688L273.399 51.952C273.783 52.72 274.637 53.104 275.959 53.104ZM267.831 74.736C268.258 74.736 268.77 74.48 269.367 73.968C269.965 73.4987 270.541 72.88 271.095 72.112C272.162 70.704 273.101 68.976 273.911 66.928C274.722 64.88 275.362 62.7467 275.831 60.528C276.301 58.3093 276.514 56.24 276.471 54.32C276.386 54.32 276.279 54.32 276.151 54.32C276.066 54.3627 275.981 54.384 275.895 54.384C275.341 54.384 274.765 54.2773 274.167 54.064C273.57 53.8507 273.079 53.5947 272.695 53.296C271.586 56.1547 270.562 58.9707 269.623 61.744C268.642 64.56 267.895 67.0347 267.383 69.168C267.213 69.9787 267.085 70.6827 266.999 71.28C266.914 71.8773 266.871 72.3893 266.871 72.816C266.871 74.096 267.191 74.736 267.831 74.736ZM356.917 73.904C356.491 73.904 356.213 73.8187 356.085 73.648C355.957 73.52 355.893 73.3707 355.893 73.2C356.661 73.072 357.408 72.496 358.133 71.472C358.859 70.4907 359.221 69.3387 359.221 68.016C359.221 65.9253 358.539 63.8987 357.173 61.936C355.808 60.016 353.888 58.2453 351.413 56.624C348.939 55.0027 346.037 53.616 342.709 52.464C339.424 51.2693 335.819 50.3947 331.893 49.84C330.443 51.888 328.8 53.7653 326.965 55.472C325.173 57.2213 323.168 58.608 320.949 59.632C318.773 60.6987 316.405 61.232 313.845 61.232C311.157 61.232 309.109 60.6133 307.701 59.376C306.293 58.1387 305.589 56.7093 305.589 55.088C305.589 53.5947 306.187 52.1013 307.381 50.608C308.619 49.072 310.475 47.8133 312.949 46.832C315.467 45.808 318.645 45.296 322.485 45.296C325.429 45.296 328.416 45.552 331.445 46.064C332.512 44.1867 333.472 42.3093 334.325 40.432C335.179 38.5547 335.925 36.784 336.565 35.12C332.341 34.9493 329.013 34.3093 326.581 33.2C324.149 32.048 322.421 30.6187 321.397 28.912C320.373 27.2053 319.861 25.456 319.861 23.664C319.861 21.4027 320.544 19.2693 321.909 17.264C323.275 15.216 325.131 13.552 327.477 12.272C329.824 10.992 332.448 10.352 335.349 10.352C335.691 10.352 335.904 10.48 335.989 10.736C336.075 10.992 336.117 11.2053 336.117 11.376C334.496 11.376 332.917 11.7387 331.381 12.464C329.888 13.1893 328.544 14.1707 327.349 15.408C326.155 16.6027 325.195 17.9467 324.469 19.44C323.787 20.9333 323.445 22.4693 323.445 24.048C323.445 25.584 323.851 27.0987 324.661 28.592C325.472 30.0427 326.859 31.2587 328.821 32.24C330.784 33.2213 333.536 33.7547 337.077 33.84C337.461 32.8587 337.781 31.9627 338.037 31.152C338.336 30.2987 338.592 29.5733 338.805 28.976C339.829 25.904 340.917 22.8533 342.069 19.824C343.264 16.7947 344.608 14.0427 346.101 11.568C347.637 9.09333 349.451 7.10933 351.541 5.616C353.632 4.12267 356.128 3.376 359.029 3.376C360.907 3.376 362.357 3.90933 363.381 4.976C364.448 6.04266 364.981 7.51466 364.981 9.392C364.981 11.2267 364.555 13.2533 363.701 15.472C362.848 17.648 361.653 19.824 360.117 22C358.581 24.176 356.768 26.2027 354.677 28.08C352.587 29.9573 350.304 31.5147 347.829 32.752C345.355 33.9893 342.752 34.7573 340.021 35.056C339.381 36.4213 338.571 38.1493 337.589 40.24C336.608 42.288 335.435 44.4 334.069 46.576C337.781 47.4293 341.28 48.5813 344.565 50.032C347.893 51.4827 350.816 53.1253 353.333 54.96C355.893 56.8373 357.899 58.8213 359.349 60.912C360.8 63.0453 361.525 65.1573 361.525 67.248C361.525 69.1253 361.056 70.704 360.117 71.984C359.179 73.264 358.112 73.904 356.917 73.904ZM359.029 6.64C357.195 6.64 355.467 7.45067 353.845 9.072C352.224 10.6507 350.667 12.7627 349.173 15.408C347.723 18.0107 346.293 20.912 344.885 24.112C343.477 27.312 342.069 30.4907 340.661 33.648C343.179 33.3067 345.525 32.5387 347.701 31.344C349.877 30.1493 351.861 28.6987 353.653 26.992C355.445 25.2427 356.981 23.3867 358.261 21.424C359.541 19.4613 360.523 17.5413 361.205 15.664C361.888 13.744 362.229 12.0373 362.229 10.544C362.229 9.34933 361.973 8.41066 361.461 7.728C360.949 7.00267 360.139 6.64 359.029 6.64ZM307.189 55.984C307.189 57.0507 307.765 57.968 308.917 58.736C310.069 59.5467 311.712 59.952 313.845 59.952C317.003 59.952 319.861 58.928 322.421 56.88C324.981 54.8747 327.264 52.4213 329.269 49.52C327.008 49.3067 324.747 49.2 322.485 49.2C318.987 49.2 316.107 49.5627 313.845 50.288C311.584 50.9707 309.899 51.8453 308.789 52.912C307.723 53.936 307.189 54.96 307.189 55.984ZM358.96 54C357.21 54 355.909 53.3813 355.056 52.144C354.245 50.864 353.84 49.328 353.84 47.536C353.84 45.872 354.16 44.144 354.8 42.352C355.482 40.3893 356.421 38.5973 357.616 36.976C358.853 35.3547 360.197 34.0533 361.648 33.072C363.141 32.048 364.613 31.536 366.064 31.536C367.813 31.536 369.093 32.1333 369.904 33.328C370.757 34.5227 371.184 36.0373 371.184 37.872C371.184 39.152 370.97 40.496 370.544 41.904C370.117 43.312 369.541 44.6987 368.816 46.064C369.37 46.6187 370.16 46.896 371.184 46.896C372.378 46.896 373.402 46.512 374.256 45.744C375.109 44.976 375.941 43.6107 376.752 41.648C377.264 41.648 377.52 41.84 377.52 42.224C376.709 44.1867 375.77 45.6373 374.704 46.576C373.68 47.472 372.357 47.8987 370.736 47.856C369.754 47.856 368.944 47.5787 368.304 47.024C367.109 48.9867 365.68 50.6507 364.016 52.016C362.394 53.3387 360.709 54 358.96 54ZM359.856 52.592C360.837 52.592 361.818 52.1867 362.8 51.376C363.781 50.5227 364.677 49.5627 365.488 48.496C366.298 47.4293 366.874 46.512 367.216 45.744C366.533 44.5067 366.128 43.5893 366 42.992C365.914 42.352 365.872 41.8827 365.872 41.584C365.872 40.7733 366.085 40.1547 366.512 39.728C366.938 39.3013 367.365 39.088 367.792 39.088C368.389 39.088 368.901 39.344 369.328 39.856C369.413 39.3867 369.477 38.96 369.52 38.576C369.562 38.1493 369.584 37.744 369.584 37.36C369.584 36.2507 369.37 35.3547 368.944 34.672C368.56 33.9467 367.941 33.584 367.088 33.584C366.192 33.584 365.253 33.968 364.272 34.736C363.29 35.504 362.352 36.528 361.456 37.808C360.602 39.088 359.856 40.5173 359.216 42.096C358.661 43.4187 358.234 44.6773 357.936 45.872C357.637 47.024 357.488 48.0907 357.488 49.072C357.488 50.1387 357.68 50.992 358.064 51.632C358.448 52.272 359.045 52.592 359.856 52.592ZM372.329 74.416C368.275 74.416 366.249 72.752 366.249 69.424C366.249 67.8453 366.803 66.4373 367.913 65.2C369.022 63.9627 370.345 62.896 371.881 62C374.014 60.72 376.105 59.696 378.153 58.928C380.201 58.16 382.163 57.4773 384.041 56.88C385.918 56.3253 387.667 55.7067 389.289 55.024C389.673 53.9147 389.993 52.6987 390.249 51.376C390.505 50.0107 390.697 48.688 390.825 47.408C390.953 46.128 391.017 45.0187 391.017 44.08C391.017 43.0987 390.953 42.4587 390.825 42.16C390.355 43.056 389.715 44.1653 388.905 45.488C388.137 46.8107 387.219 48.1333 386.153 49.456C385.129 50.736 384.041 51.8027 382.889 52.656C381.737 53.5093 380.563 53.936 379.369 53.936C378.942 53.936 378.537 53.872 378.153 53.744C376.958 53.232 376.083 52.5067 375.529 51.568C375.017 50.6293 374.761 49.5627 374.761 48.368C374.761 46.448 375.315 44.3787 376.425 42.16C377.534 39.9413 378.857 37.9147 380.393 36.08C381.63 34.5867 383.081 33.392 384.745 32.496C386.409 31.6 388.094 31.152 389.801 31.152C391.763 31.152 393.598 31.8133 395.305 33.136C395.945 33.648 396.265 34.2027 396.265 34.8C396.265 35.44 396.009 35.76 395.497 35.76C395.07 35.76 394.771 35.4827 394.601 34.928C394.003 33.3493 393.043 32.56 391.721 32.56C390.654 32.56 389.438 33.0293 388.073 33.968C386.707 34.864 385.427 35.9947 384.233 37.36C383.209 38.512 382.206 39.8347 381.225 41.328C380.286 42.8213 379.497 44.2933 378.857 45.744C378.259 47.1947 377.961 48.4533 377.961 49.52C377.961 50.2453 378.131 50.864 378.473 51.376C378.814 51.888 379.347 52.144 380.073 52.144C381.054 52.144 382.078 51.6747 383.145 50.736C384.254 49.7973 385.299 48.6453 386.281 47.28C387.305 45.9147 388.179 44.528 388.905 43.12C389.673 41.712 390.206 40.5387 390.505 39.6C390.803 38.6187 391.209 38.0213 391.721 37.808C392.233 37.552 392.745 37.424 393.257 37.424C393.769 37.424 394.195 37.296 394.537 37.04C394.707 37.9787 394.814 38.9387 394.857 39.92C394.942 40.8587 394.985 41.8187 394.985 42.8C394.985 44.7627 394.857 46.5547 394.601 48.176C394.387 49.7973 394.003 51.5253 393.449 53.36C394.985 52.4213 396.307 51.248 397.417 49.84C398.569 48.3893 399.507 46.9387 400.233 45.488C401.001 43.9947 401.619 42.7147 402.089 41.648C402.601 41.648 402.857 41.84 402.857 42.224C402.302 43.376 401.598 44.784 400.745 46.448C399.934 48.112 398.889 49.7333 397.609 51.312C396.371 52.848 394.814 54.0427 392.937 54.896C392.211 56.944 391.166 59.0987 389.801 61.36C388.478 63.6213 386.899 65.7333 385.065 67.696C383.23 69.7013 381.225 71.3227 379.049 72.56C376.873 73.7973 374.633 74.416 372.329 74.416ZM370.793 73.136C371.731 73.136 372.713 72.9227 373.737 72.496C374.803 72.112 375.806 71.6427 376.745 71.088C377.683 70.5333 378.409 70.064 378.921 69.68C379.902 68.912 380.905 67.952 381.929 66.8C382.953 65.648 383.849 64.5387 384.617 63.472C385.342 62.448 386.089 61.36 386.857 60.208C387.625 59.0987 388.243 57.9893 388.713 56.88L386.089 57.712C384.681 58.1387 383.123 58.6507 381.417 59.248C379.753 59.888 378.089 60.592 376.425 61.36C374.761 62.128 373.246 62.96 371.881 63.856C370.686 64.6667 369.705 65.7333 368.937 67.056C368.126 68.3787 367.721 69.5307 367.721 70.512C367.721 71.2373 367.977 71.856 368.489 72.368C368.958 72.88 369.726 73.136 370.793 73.136ZM405.96 54C404.21 54 402.909 53.3813 402.056 52.144C401.245 50.864 400.84 49.328 400.84 47.536C400.84 45.872 401.16 44.144 401.8 42.352C402.482 40.3893 403.421 38.5973 404.616 36.976C405.853 35.3547 407.197 34.0533 408.648 33.072C410.141 32.048 411.613 31.536 413.064 31.536C414.813 31.536 416.093 32.1333 416.904 33.328C417.757 34.5227 418.184 36.0373 418.184 37.872C418.184 39.152 417.97 40.496 417.544 41.904C417.117 43.312 416.541 44.6987 415.816 46.064C416.37 46.6187 417.16 46.896 418.184 46.896C419.378 46.896 420.402 46.512 421.256 45.744C422.109 44.976 422.941 43.6107 423.752 41.648C424.264 41.648 424.52 41.84 424.52 42.224C423.709 44.1867 422.77 45.6373 421.704 46.576C420.68 47.472 419.357 47.8987 417.736 47.856C416.754 47.856 415.944 47.5787 415.304 47.024C414.109 48.9867 412.68 50.6507 411.016 52.016C409.394 53.3387 407.709 54 405.96 54ZM406.856 52.592C407.837 52.592 408.818 52.1867 409.8 51.376C410.781 50.5227 411.677 49.5627 412.488 48.496C413.298 47.4293 413.874 46.512 414.216 45.744C413.533 44.5067 413.128 43.5893 413 42.992C412.914 42.352 412.872 41.8827 412.872 41.584C412.872 40.7733 413.085 40.1547 413.512 39.728C413.938 39.3013 414.365 39.088 414.792 39.088C415.389 39.088 415.901 39.344 416.328 39.856C416.413 39.3867 416.477 38.96 416.52 38.576C416.562 38.1493 416.584 37.744 416.584 37.36C416.584 36.2507 416.37 35.3547 415.944 34.672C415.56 33.9467 414.941 33.584 414.088 33.584C413.192 33.584 412.253 33.968 411.272 34.736C410.29 35.504 409.352 36.528 408.456 37.808C407.602 39.088 406.856 40.5173 406.216 42.096C405.661 43.4187 405.234 44.6773 404.936 45.872C404.637 47.024 404.488 48.0907 404.488 49.072C404.488 50.1387 404.68 50.992 405.064 51.632C405.448 52.272 406.045 52.592 406.856 52.592Z" fill="black"/>
<line x1="439" y1="39.5" x2="539" y2="39.5" stroke="black"/>
</svg>
