<svg width="429" height="73" viewBox="0 0 429 73" fill="none" xmlns="http://www.w3.org/2000/svg">
<line y1="36" x2="100" y2="36" stroke="black"/>
<path d="M190.514 60.73C187.807 60.73 185.178 59.8793 182.626 58.178C180.112 56.5153 177.966 53.7313 176.188 49.826C175.414 48.086 174.776 46.3267 174.274 44.548C173.81 42.7693 173.462 41.1067 173.23 39.56C172.998 38.0133 172.882 36.7373 172.882 35.732C172.882 34.4947 173.017 33.7987 173.288 33.644C174.022 33.7213 175.24 33.412 176.942 32.716C178.682 32.02 180.731 30.9953 183.09 29.642C185.487 28.2887 188.058 26.6647 190.804 24.77C193.588 22.8367 196.372 20.6713 199.156 18.274C201.978 15.8767 204.685 13.286 207.276 10.502C209.866 7.718 212.148 4.79867 214.12 1.744C214.39 1.31866 214.603 1.00933 214.758 0.815997C214.912 0.622664 215.067 0.525997 215.222 0.525997C215.415 0.525997 215.589 0.622664 215.744 0.815997C215.898 0.970664 215.976 1.14466 215.976 1.338C215.976 1.64733 215.84 2.01466 215.57 2.44C213.714 5.53333 211.51 8.56867 208.958 11.546C206.444 14.4847 203.757 17.2493 200.896 19.84C198.034 22.4307 195.154 24.77 192.254 26.858C189.354 28.946 186.589 30.686 183.96 32.078C181.33 33.47 179.01 34.4173 177 34.92C176.884 34.8427 176.826 35.036 176.826 35.5C176.826 36.1573 176.961 37.2207 177.232 38.69C177.502 40.1207 177.908 41.764 178.45 43.62C179.03 45.4373 179.726 47.2933 180.538 49.188C182.007 52.6293 183.728 54.988 185.7 56.264C187.71 57.5787 189.779 58.236 191.906 58.236C193.259 58.236 194.651 57.9653 196.082 57.424C197.512 56.8827 198.827 56.1287 200.026 55.162C201.224 54.234 202.152 53.132 202.81 51.856C203.042 51.4693 203.216 51.276 203.332 51.276C203.602 51.276 203.738 51.4307 203.738 51.74C203.738 51.856 203.699 51.972 203.622 52.088C203.583 52.2427 203.467 52.5327 203.274 52.958C202.732 54.0407 201.824 55.1813 200.548 56.38C199.31 57.6173 197.822 58.642 196.082 59.454C194.38 60.3047 192.524 60.73 190.514 60.73ZM141.272 59.976C138.642 59.976 136.09 59.6087 133.616 58.874C131.18 58.178 128.976 57.134 127.004 55.742C125.07 54.35 123.524 52.6487 122.364 50.638C121.242 48.6273 120.682 46.346 120.682 43.794C120.682 41.938 120.952 40.2947 121.494 38.864C122.074 37.3947 122.77 36.1767 123.582 35.21C124.432 34.2433 125.264 33.5087 126.076 33.006C126.926 32.5033 127.622 32.252 128.164 32.252C128.55 32.252 128.744 32.368 128.744 32.6C128.744 32.7933 128.647 32.948 128.454 33.064C127.564 33.528 126.656 34.2047 125.728 35.094C124.8 35.9833 124.026 37.1433 123.408 38.574C122.789 40.0047 122.48 41.7833 122.48 43.91C122.48 46.23 122.963 48.2213 123.93 49.884C124.935 51.508 126.23 52.842 127.816 53.886C129.44 54.93 131.18 55.684 133.036 56.148C134.892 56.6507 136.67 56.902 138.372 56.902C142.161 56.902 145.699 56.1673 148.986 54.698C152.272 53.2287 155.269 51.276 157.976 48.84C160.721 46.3653 163.138 43.62 165.226 40.604C167.314 37.588 169.034 34.5333 170.388 31.44C170.89 30.3187 171.49 28.9847 172.186 27.438C172.882 25.8527 173.636 24.1707 174.448 22.392C175.26 20.6133 176.052 18.8733 176.826 17.172C177.599 15.4707 178.295 13.9433 178.914 12.59C179.571 11.198 180.093 10.1347 180.48 9.4C177.889 9.70933 175.086 9.99933 172.07 10.27C169.092 10.502 166.25 11.0047 163.544 11.778C160.528 12.6287 158.053 13.866 156.12 15.49C154.225 17.114 152.814 18.8733 151.886 20.768C150.996 22.6627 150.552 24.4413 150.552 26.104C150.552 28.1147 151.054 29.7773 152.06 31.092C153.065 32.368 154.515 33.006 156.41 33.006C157.84 33.006 159.116 32.6 160.238 31.788C161.359 30.9373 162.248 29.8547 162.906 28.54C163.563 27.1867 163.892 25.756 163.892 24.248C163.892 23.6293 163.834 23.1073 163.718 22.682C163.602 22.2567 163.544 21.928 163.544 21.696C163.544 21.4253 163.64 21.29 163.834 21.29C164.104 21.29 164.356 21.522 164.588 21.986C164.974 22.8753 165.168 23.7453 165.168 24.596C165.168 26.4133 164.723 28.0567 163.834 29.526C162.944 30.9567 161.804 32.0973 160.412 32.948C159.02 33.7987 157.55 34.224 156.004 34.224C154.186 34.224 152.601 33.7987 151.248 32.948C149.933 32.0587 148.908 30.8987 148.174 29.468C147.439 28.0373 147.072 26.4907 147.072 24.828C147.072 22.9333 147.594 21.0193 148.638 19.086C149.682 17.114 151.364 15.3353 153.684 13.75C156.004 12.126 159.058 10.8887 162.848 10.038C166.018 9.342 169.247 8.89733 172.534 8.704C175.82 8.472 178.72 8.24 181.234 8.008C182.587 5.92 183.689 4.60533 184.54 4.064C185.39 3.484 186.164 3.194 186.86 3.194C187.556 3.194 188.097 3.38733 188.484 3.774C188.909 4.16066 189.122 4.62466 189.122 5.166C189.122 5.93933 188.581 6.77067 187.498 7.66C186.454 8.51067 184.675 9.07133 182.162 9.342C180.924 11.6233 179.784 14.1753 178.74 16.998C177.696 19.782 176.652 22.7013 175.608 25.756C174.564 28.8107 173.423 31.846 172.186 34.862C170.098 39.8887 167.623 44.2967 164.762 48.086C161.9 51.8367 158.536 54.756 154.67 56.844C150.803 58.932 146.337 59.976 141.272 59.976ZM183.264 7.892C184.23 7.81466 185.158 7.544 186.048 7.08C186.937 6.57733 187.382 6.036 187.382 5.456C187.382 5.06933 187.188 4.876 186.802 4.876C186.454 4.876 185.97 5.108 185.352 5.572C184.733 5.99733 184.037 6.77066 183.264 7.892ZM196.553 50.232C195.122 50.232 193.827 49.768 192.667 48.84C191.546 47.912 190.985 46.5007 190.985 44.606C190.985 43.0207 191.333 41.3387 192.029 39.56C192.764 37.7813 193.711 36.1187 194.871 34.572C196.07 32.9867 197.384 31.7107 198.815 30.744C200.284 29.7387 201.754 29.236 203.223 29.236C203.958 29.236 204.673 29.4487 205.369 29.874C206.065 30.2993 206.413 31.034 206.413 32.078C206.413 33.0447 206.046 34.108 205.311 35.268C204.576 36.428 203.532 37.5107 202.179 38.516C201.599 38.9413 200.864 39.3473 199.975 39.734C199.086 40.1207 198.196 40.4493 197.307 40.72C196.418 40.952 195.683 41.068 195.103 41.068C194.91 41.532 194.716 42.1507 194.523 42.924C194.368 43.6973 194.291 44.49 194.291 45.302C194.291 46.2687 194.484 47.1387 194.871 47.912C195.258 48.6853 195.973 49.072 197.017 49.072C198.293 49.072 199.472 48.7047 200.555 47.97C201.676 47.2353 202.662 46.3073 203.513 45.186C204.402 44.0647 205.156 42.924 205.775 41.764C206.394 40.604 206.877 39.618 207.225 38.806C207.689 38.806 207.921 38.98 207.921 39.328C207.418 40.4107 206.838 41.59 206.181 42.866C205.562 44.142 204.808 45.3407 203.919 46.462C203.068 47.5447 202.024 48.4533 200.787 49.188C199.588 49.884 198.177 50.232 196.553 50.232ZM195.509 40.024C196.05 40.024 196.959 39.8307 198.235 39.444C199.511 39.0187 200.671 38.3613 201.715 37.472C202.72 36.5827 203.494 35.616 204.035 34.572C204.576 33.4893 204.847 32.5807 204.847 31.846C204.847 30.9953 204.538 30.57 203.919 30.57C203.455 30.57 202.817 30.8793 202.005 31.498C201.193 32.1167 200.188 33.1607 198.989 34.63C198.254 35.558 197.558 36.5633 196.901 37.646C196.244 38.7287 195.78 39.5213 195.509 40.024ZM203.215 68.502C199.542 68.502 197.705 66.994 197.705 63.978C197.705 62.5473 198.208 61.2713 199.213 60.15C200.218 59.0287 201.417 58.062 202.809 57.25C204.742 56.09 206.637 55.162 208.493 54.466C210.349 53.77 212.128 53.1513 213.829 52.61C215.53 52.1073 217.116 51.5467 218.585 50.928C218.933 49.9227 219.223 48.8207 219.455 47.622C219.687 46.3847 219.861 45.186 219.977 44.026C220.093 42.866 220.151 41.8607 220.151 41.01C220.151 40.1207 220.093 39.5407 219.977 39.27C219.552 40.082 218.972 41.0873 218.237 42.286C217.541 43.4847 216.71 44.6833 215.743 45.882C214.815 47.042 213.829 48.0087 212.785 48.782C211.741 49.5553 210.678 49.942 209.595 49.942C209.208 49.942 208.841 49.884 208.493 49.768C207.41 49.304 206.618 48.6467 206.115 47.796C205.651 46.9453 205.419 45.9787 205.419 44.896C205.419 43.156 205.922 41.2807 206.927 39.27C207.932 37.2593 209.131 35.4227 210.523 33.76C211.644 32.4067 212.959 31.324 214.467 30.512C215.975 29.7 217.502 29.294 219.049 29.294C220.828 29.294 222.49 29.8933 224.037 31.092C224.617 31.556 224.907 32.0587 224.907 32.6C224.907 33.18 224.675 33.47 224.211 33.47C223.824 33.47 223.554 33.2187 223.399 32.716C222.858 31.2853 221.988 30.57 220.789 30.57C219.822 30.57 218.72 30.9953 217.483 31.846C216.246 32.658 215.086 33.6827 214.003 34.92C213.075 35.964 212.166 37.1627 211.277 38.516C210.426 39.8693 209.711 41.2033 209.131 42.518C208.59 43.8327 208.319 44.9733 208.319 45.94C208.319 46.5973 208.474 47.158 208.783 47.622C209.092 48.086 209.576 48.318 210.233 48.318C211.122 48.318 212.05 47.8927 213.017 47.042C214.022 46.1913 214.97 45.1473 215.859 43.91C216.787 42.6727 217.58 41.416 218.237 40.14C218.933 38.864 219.416 37.8007 219.687 36.95C219.958 36.0607 220.325 35.5193 220.789 35.326C221.253 35.094 221.717 34.978 222.181 34.978C222.645 34.978 223.032 34.862 223.341 34.63C223.496 35.4807 223.592 36.3507 223.631 37.24C223.708 38.0907 223.747 38.9607 223.747 39.85C223.747 41.6287 223.631 43.2527 223.399 44.722C223.206 46.1913 222.858 47.7573 222.355 49.42C223.747 48.5693 224.946 47.506 225.951 46.23C226.995 44.9153 227.846 43.6007 228.503 42.286C229.199 40.9327 229.76 39.7727 230.185 38.806C230.649 38.806 230.881 38.98 230.881 39.328C230.378 40.372 229.74 41.648 228.967 43.156C228.232 44.664 227.285 46.1333 226.125 47.564C225.004 48.956 223.592 50.0387 221.891 50.812C221.234 52.668 220.286 54.6207 219.049 56.67C217.85 58.7193 216.42 60.6333 214.757 62.412C213.094 64.2293 211.277 65.6987 209.305 66.82C207.333 67.9413 205.303 68.502 203.215 68.502ZM201.823 67.342C202.674 67.342 203.563 67.1487 204.491 66.762C205.458 66.414 206.366 65.9887 207.217 65.486C208.068 64.9833 208.725 64.558 209.189 64.21C210.078 63.514 210.987 62.644 211.915 61.6C212.843 60.556 213.655 59.5507 214.351 58.584C215.008 57.656 215.685 56.67 216.381 55.626C217.077 54.6207 217.638 53.6153 218.063 52.61L215.685 53.364C214.409 53.7507 212.998 54.2147 211.451 54.756C209.943 55.336 208.435 55.974 206.927 56.67C205.419 57.366 204.046 58.12 202.809 58.932C201.726 59.6667 200.837 60.6333 200.141 61.832C199.406 63.0307 199.039 64.0747 199.039 64.964C199.039 65.6213 199.271 66.182 199.735 66.646C200.16 67.11 200.856 67.342 201.823 67.342ZM231.837 50C230.406 50 229.401 49.594 228.821 48.782C228.241 47.9313 227.951 46.9647 227.951 45.882C227.951 45.302 228.009 44.722 228.125 44.142C228.28 43.5233 228.454 42.9627 228.647 42.46L232.533 32.542C232.649 32.2327 232.707 31.962 232.707 31.73C232.707 31.3433 232.61 31.0147 232.417 30.744C232.224 30.4347 232.088 30.222 232.011 30.106L235.201 29.99C235.781 29.9513 236.187 30.0287 236.419 30.222C236.69 30.3767 236.825 30.57 236.825 30.802C236.825 31.034 236.69 31.4593 236.419 32.078C236.032 33.006 235.51 34.166 234.853 35.558C234.196 36.95 233.538 38.3807 232.881 39.85C232.262 41.3193 231.721 42.692 231.257 43.968C230.832 45.244 230.619 46.23 230.619 46.926C230.619 47.4287 230.735 47.854 230.967 48.202C231.238 48.55 231.682 48.724 232.301 48.724C233.113 48.724 233.906 48.4147 234.679 47.796C235.491 47.1387 236.245 46.3073 236.941 45.302C237.637 44.2967 238.275 43.214 238.855 42.054C239.474 40.894 239.996 39.8113 240.421 38.806C240.885 38.806 241.117 38.98 241.117 39.328C240.73 40.2947 240.228 41.3967 239.609 42.634C238.99 43.8713 238.275 45.0507 237.463 46.172C236.69 47.2547 235.82 48.1633 234.853 48.898C233.925 49.6327 232.92 50 231.837 50ZM236.999 26.394C236.496 26.394 236.052 26.2007 235.665 25.814C235.317 25.4273 235.143 24.9633 235.143 24.422C235.143 23.7647 235.414 23.1847 235.955 22.682C236.496 22.1407 237.096 21.87 237.753 21.87C238.294 21.87 238.758 22.044 239.145 22.392C239.532 22.74 239.725 23.1847 239.725 23.726C239.725 24.422 239.454 25.0407 238.913 25.582C238.372 26.1233 237.734 26.394 236.999 26.394ZM252.994 50.174C252.105 50.174 251.312 49.9227 250.616 49.42C249.959 48.9173 249.63 47.8927 249.63 46.346C249.63 45.6887 249.669 45.07 249.746 44.49C249.862 43.91 249.998 43.2913 250.152 42.634C249.804 43.214 249.321 43.9293 248.702 44.78C248.084 45.6307 247.388 46.462 246.614 47.274C245.88 48.086 245.106 48.7627 244.294 49.304C243.521 49.8453 242.786 50.116 242.09 50.116C241.085 50.116 240.273 49.6713 239.654 48.782C239.036 47.854 238.726 46.6553 238.726 45.186C238.726 43.6007 239.094 41.8993 239.828 40.082C240.563 38.2647 241.568 36.5247 242.844 34.862C244.12 33.1993 245.59 31.846 247.252 30.802C248.915 29.758 250.655 29.236 252.472 29.236C253.362 29.236 254.212 29.3907 255.024 29.7C255.836 29.9707 256.552 30.4347 257.17 31.092C257.441 31.3627 257.576 31.672 257.576 32.02C257.576 32.252 257.48 32.4453 257.286 32.6C257.093 32.7547 256.842 32.7933 256.532 32.716C256.107 31.3627 255.198 30.686 253.806 30.686C253.149 30.686 252.395 30.8987 251.544 31.324C250.5 31.8653 249.379 32.7353 248.18 33.934C247.02 35.094 245.918 36.428 244.874 37.936C243.869 39.4053 243.038 40.894 242.38 42.402C241.723 43.91 241.394 45.2827 241.394 46.52C241.394 47.796 241.878 48.434 242.844 48.434C243.695 48.434 244.565 48.028 245.454 47.216C246.382 46.404 247.252 45.3987 248.064 44.2C248.915 42.9627 249.688 41.7447 250.384 40.546C251.08 39.3473 251.622 38.3807 252.008 37.646C252.588 36.602 253.13 35.732 253.632 35.036C254.135 34.34 254.85 33.992 255.778 33.992C256.204 33.992 256.629 34.05 257.054 34.166C257.48 34.282 257.924 34.3013 258.388 34.224C257.228 35.384 256.204 36.7567 255.314 38.342C254.464 39.9273 253.806 41.4933 253.342 43.04C252.878 44.548 252.646 45.824 252.646 46.868C252.646 48.028 253.033 48.608 253.806 48.608C254.425 48.608 255.082 48.26 255.778 47.564C256.513 46.868 257.209 45.998 257.866 44.954C258.562 43.8713 259.2 42.7887 259.78 41.706C260.36 40.5847 260.824 39.618 261.172 38.806C261.366 38.806 261.52 38.8253 261.636 38.864C261.791 38.9027 261.868 39.0573 261.868 39.328C261.83 39.4827 261.752 39.6567 261.636 39.85C261.559 40.0047 261.424 40.2947 261.23 40.72C260.921 41.3387 260.496 42.17 259.954 43.214C259.413 44.258 258.775 45.3213 258.04 46.404C257.306 47.448 256.513 48.3373 255.662 49.072C254.812 49.8067 253.922 50.174 252.994 50.174ZM273.201 19.376C272.699 20.1107 272.138 21.0387 271.519 22.16C270.901 23.2813 270.321 24.364 269.779 25.408C269.277 26.452 268.89 27.2447 268.619 27.786H273.955C273.955 27.9407 273.878 28.192 273.723 28.54C273.607 28.888 273.356 29.1393 272.969 29.294H267.923C267.459 30.338 266.918 31.5947 266.299 33.064C265.719 34.5333 265.139 36.0607 264.559 37.646C264.018 39.2313 263.554 40.72 263.167 42.112C262.819 43.4653 262.645 44.5673 262.645 45.418C262.645 46.578 262.8 47.448 263.109 48.028C263.419 48.5693 263.979 48.84 264.791 48.84C265.835 48.84 266.841 48.3373 267.807 47.332C268.774 46.288 269.683 44.9927 270.533 43.446C271.423 41.8993 272.196 40.3527 272.853 38.806C273.317 38.806 273.549 38.98 273.549 39.328C273.124 40.372 272.602 41.5127 271.983 42.75C271.365 43.9873 270.649 45.186 269.837 46.346C269.064 47.4673 268.175 48.3953 267.169 49.13C266.203 49.826 265.12 50.174 263.921 50.174C262.297 50.174 261.195 49.7293 260.615 48.84C260.035 47.912 259.745 46.7327 259.745 45.302C259.745 44.258 259.939 43.0013 260.325 41.532C260.712 40.024 261.176 38.4773 261.717 36.892C262.297 35.3067 262.858 33.8373 263.399 32.484C263.941 31.092 264.366 30.0287 264.675 29.294H260.963C260.963 28.9847 261.099 28.656 261.369 28.308C261.64 27.96 261.93 27.786 262.239 27.786H265.313C265.623 27.1673 265.971 26.394 266.357 25.466C266.783 24.538 267.343 23.5133 268.039 22.392C268.619 21.464 269.354 20.7293 270.243 20.188C271.171 19.6467 272.157 19.376 273.201 19.376ZM285.449 50.174C284.56 50.174 283.767 49.9227 283.071 49.42C282.414 48.9173 282.085 47.8927 282.085 46.346C282.085 45.6887 282.124 45.07 282.201 44.49C282.317 43.91 282.453 43.2913 282.607 42.634C282.259 43.214 281.776 43.9293 281.157 44.78C280.539 45.6307 279.843 46.462 279.069 47.274C278.335 48.086 277.561 48.7627 276.749 49.304C275.976 49.8453 275.241 50.116 274.545 50.116C273.54 50.116 272.728 49.6713 272.109 48.782C271.491 47.854 271.181 46.6553 271.181 45.186C271.181 43.6007 271.549 41.8993 272.283 40.082C273.018 38.2647 274.023 36.5247 275.299 34.862C276.575 33.1993 278.045 31.846 279.707 30.802C281.37 29.758 283.11 29.236 284.927 29.236C285.817 29.236 286.667 29.3907 287.479 29.7C288.291 29.9707 289.007 30.4347 289.625 31.092C289.896 31.3627 290.031 31.672 290.031 32.02C290.031 32.252 289.935 32.4453 289.741 32.6C289.548 32.7547 289.297 32.7933 288.987 32.716C288.562 31.3627 287.653 30.686 286.261 30.686C285.604 30.686 284.85 30.8987 283.999 31.324C282.955 31.8653 281.834 32.7353 280.635 33.934C279.475 35.094 278.373 36.428 277.329 37.936C276.324 39.4053 275.493 40.894 274.835 42.402C274.178 43.91 273.849 45.2827 273.849 46.52C273.849 47.796 274.333 48.434 275.299 48.434C276.15 48.434 277.02 48.028 277.909 47.216C278.837 46.404 279.707 45.3987 280.519 44.2C281.37 42.9627 282.143 41.7447 282.839 40.546C283.535 39.3473 284.077 38.3807 284.463 37.646C285.043 36.602 285.585 35.732 286.087 35.036C286.59 34.34 287.305 33.992 288.233 33.992C288.659 33.992 289.084 34.05 289.509 34.166C289.935 34.282 290.379 34.3013 290.843 34.224C289.683 35.384 288.659 36.7567 287.769 38.342C286.919 39.9273 286.261 41.4933 285.797 43.04C285.333 44.548 285.101 45.824 285.101 46.868C285.101 48.028 285.488 48.608 286.261 48.608C286.88 48.608 287.537 48.26 288.233 47.564C288.968 46.868 289.664 45.998 290.321 44.954C291.017 43.8713 291.655 42.7887 292.235 41.706C292.815 40.5847 293.279 39.618 293.627 38.806C293.821 38.806 293.975 38.8253 294.091 38.864C294.246 38.9027 294.323 39.0573 294.323 39.328C294.285 39.4827 294.207 39.6567 294.091 39.85C294.014 40.0047 293.879 40.2947 293.685 40.72C293.376 41.3387 292.951 42.17 292.409 43.214C291.868 44.258 291.23 45.3213 290.495 46.404C289.761 47.448 288.968 48.3373 288.117 49.072C287.267 49.8067 286.377 50.174 285.449 50.174ZM288.083 50.464C289.475 47.6413 290.809 44.8573 292.085 42.112C293.361 39.328 294.675 36.6793 296.029 34.166C296.802 32.774 297.459 31.8073 298.001 31.266C298.542 30.686 299.257 30.396 300.147 30.396C300.456 30.396 300.785 30.454 301.133 30.57C301.481 30.6473 301.829 30.686 302.177 30.686C302.409 30.686 302.583 30.6667 302.699 30.628C302.157 30.9373 301.442 31.7107 300.553 32.948C299.702 34.1467 298.832 35.5387 297.943 37.124C297.053 38.7093 296.261 40.198 295.565 41.59C296.299 40.7007 297.073 39.8113 297.885 38.922C298.697 38.0327 299.586 37.182 300.553 36.37C301.481 35.558 302.583 34.7267 303.859 33.876C305.173 32.9867 306.449 32.252 307.687 31.672C308.924 31.092 309.91 30.802 310.645 30.802C310.915 30.802 311.109 30.8213 311.225 30.86C311.225 30.86 311.012 31.2467 310.587 32.02C310.161 32.7547 309.62 33.7407 308.963 34.978C308.344 36.1767 307.706 37.472 307.049 38.864C306.391 40.2173 305.792 41.532 305.251 42.808C304.748 44.0453 304.419 45.0893 304.265 45.94C304.149 46.4427 304.091 46.9067 304.091 47.332C304.091 47.9507 304.207 48.3567 304.439 48.55C304.671 48.7433 304.922 48.84 305.193 48.84C305.927 48.84 306.681 48.5113 307.455 47.854C308.228 47.1967 308.963 46.3653 309.659 45.36C310.393 44.316 311.07 43.214 311.689 42.054C312.307 40.894 312.829 39.8113 313.255 38.806C313.719 38.806 313.951 38.98 313.951 39.328C313.525 40.372 312.984 41.532 312.327 42.808C311.708 44.0453 310.993 45.2247 310.181 46.346C309.407 47.4673 308.537 48.3953 307.571 49.13C306.604 49.8647 305.56 50.232 304.439 50.232C303.665 50.232 302.853 49.9613 302.003 49.42C301.191 48.8787 300.785 47.8733 300.785 46.404C300.785 45.9787 300.823 45.534 300.901 45.07C300.978 44.5673 301.113 44.026 301.307 43.446C301.616 42.6727 301.983 41.8413 302.409 40.952C302.834 40.0627 303.53 38.8447 304.497 37.298C304.767 36.8727 304.922 36.544 304.961 36.312C305.038 36.08 305.077 35.8867 305.077 35.732C305.077 35.268 304.864 35.036 304.439 35.036C304.091 35.036 303.569 35.2293 302.873 35.616C302.215 36.0027 301.384 36.6793 300.379 37.646C299.412 38.574 298.252 39.8887 296.899 41.59C295.584 43.2913 294.057 45.8047 292.317 49.13C292.046 49.6327 291.737 49.9033 291.389 49.942C291.079 49.9807 290.635 50.0193 290.055 50.058C289.668 50.0967 289.301 50.116 288.953 50.116C288.605 50.1547 288.315 50.2707 288.083 50.464Z" fill="black"/>
<line x1="329" y1="36" x2="429" y2="36" stroke="black"/>
</svg>
