<svg width="421" height="80" viewBox="0 0 421 80" fill="none" xmlns="http://www.w3.org/2000/svg">
<line y1="39.5" x2="100" y2="39.5" stroke="black"/>
<path d="M143.895 60.464C139.201 60.464 135.105 59.7387 131.607 58.288C128.151 56.8373 125.463 54.8533 123.543 52.336C121.665 49.776 120.727 46.8747 120.727 43.632C120.727 40.9867 121.196 38.576 122.135 36.4C123.073 34.224 124.311 32.4107 125.847 30.96C127.425 29.5093 129.153 28.5493 131.031 28.08C131.329 28.0373 131.479 28.144 131.479 28.4C131.479 28.6133 131.372 28.784 131.159 28.912C128.94 30.2347 127.233 32.1333 126.039 34.608C124.887 37.0827 124.311 39.8347 124.311 42.864C124.311 46.1493 125.164 48.9867 126.871 51.376C128.577 53.7227 130.903 55.5147 133.847 56.752C136.833 58.032 140.183 58.672 143.895 58.672C147.095 58.672 150.124 58.096 152.983 56.944C155.884 55.8347 158.551 54.2987 160.983 52.336C163.415 50.3733 165.591 48.1547 167.511 45.68C169.473 43.1627 171.116 40.5387 172.439 37.808C172.737 37.168 173.036 36.5493 173.335 35.952C173.633 35.3547 173.932 34.7573 174.231 34.16C173.207 34.1173 172.268 34.0747 171.415 34.032C170.604 33.9893 170.049 33.968 169.751 33.968C168.599 33.968 167.361 34.0533 166.039 34.224C164.759 34.352 163.543 34.6293 162.391 35.056C161.281 35.4827 160.364 36.144 159.639 37.04C159.34 37.3387 159.148 37.5733 159.062 37.744C159.02 37.9147 158.935 38 158.807 38C158.636 38 158.487 37.872 158.359 37.616C158.231 37.3173 158.252 36.9973 158.423 36.656C159.404 34.48 160.791 33.008 162.583 32.24C164.375 31.4293 166.38 31.024 168.599 31.024C169.068 31.024 169.943 31.1093 171.223 31.28C172.545 31.408 173.932 31.5573 175.383 31.728C177.26 27.9307 178.967 24.496 180.503 21.424C182.081 18.352 183.553 15.792 184.919 13.744C181.847 12.72 178.583 11.824 175.127 11.056C171.671 10.2453 167.959 9.84 163.991 9.84C161.047 9.84 158.38 10.2453 155.991 11.056C153.601 11.8667 151.553 12.9547 149.847 14.32C148.183 15.6853 146.903 17.2 146.007 18.864C145.111 20.528 144.663 22.192 144.663 23.856C144.663 25.7333 145.025 27.2267 145.751 28.336C146.476 29.4453 147.415 30.256 148.567 30.768C149.761 31.2373 150.977 31.472 152.215 31.472C154.049 31.472 155.607 31.024 156.887 30.128C158.209 29.232 159.255 28.2293 160.023 27.12C160.791 25.968 161.26 25.0293 161.431 24.304C161.601 23.6213 161.857 23.28 162.199 23.28C162.711 23.28 162.924 23.5787 162.839 24.176C162.583 26.0533 161.921 27.6747 160.855 29.04C159.788 30.4053 158.487 31.4507 156.951 32.176C155.415 32.8587 153.793 33.2 152.087 33.2C150.337 33.2 148.652 32.7733 147.031 31.92C145.409 31.0667 144.087 29.8293 143.063 28.208C142.039 26.5867 141.527 24.624 141.527 22.32C141.527 20.4427 141.932 18.5867 142.743 16.752C143.596 14.8747 144.855 13.168 146.519 11.632C148.225 10.0533 150.38 8.79466 152.983 7.856C155.585 6.91733 158.657 6.448 162.199 6.448C164.716 6.448 167.297 6.74666 169.943 7.344C172.588 7.89867 175.255 8.624 177.943 9.52C180.673 10.3733 183.361 11.2693 186.007 12.208C186.903 11.056 187.756 10.1813 188.567 9.584C189.377 8.944 190.188 8.624 190.999 8.624C191.34 8.624 191.575 8.70933 191.703 8.88C191.831 9.008 191.895 9.136 191.895 9.264C191.895 9.43466 191.831 9.62666 191.703 9.84C191.575 10.0533 191.34 10.16 190.999 10.16C189.591 10.16 188.268 10.9493 187.031 12.528C190.103 13.552 193.047 14.4693 195.863 15.28C198.721 16.048 201.367 16.432 203.799 16.432C205.676 16.432 206.913 16.24 207.511 15.856C208.108 15.4293 208.407 14.8533 208.407 14.128C208.407 13.6587 208.556 13.424 208.855 13.424C209.068 13.424 209.26 13.5733 209.431 13.872C209.644 14.128 209.751 14.448 209.751 14.832C209.751 15.856 209.175 16.688 208.023 17.328C206.913 17.968 205.356 18.288 203.351 18.288C200.705 18.288 197.953 17.8613 195.095 17.008C192.236 16.112 189.207 15.1307 186.007 14.064C184.855 15.984 183.724 18.5013 182.615 21.616C181.505 24.688 180.204 28.1653 178.711 32.048C180.545 32.2187 182.487 32.368 184.535 32.496C186.583 32.5813 188.247 32.624 189.527 32.624C189.953 32.624 190.167 32.752 190.167 33.008C190.167 33.3493 189.676 33.648 188.695 33.904C188.055 34.0747 186.967 34.2027 185.431 34.288C183.937 34.3733 182.38 34.416 180.759 34.416C180.417 34.416 179.991 34.416 179.479 34.416C178.967 34.3733 178.412 34.352 177.815 34.352C177.431 35.3333 177.025 36.336 176.599 37.36C176.215 38.3413 175.788 39.3653 175.319 40.432C173.527 44.656 171.329 48.0907 168.727 50.736C166.167 53.3387 163.415 55.344 160.471 56.752C157.569 58.2027 154.668 59.184 151.767 59.696C148.908 60.208 146.284 60.464 143.895 60.464ZM242.63 58.096C240.753 58.096 239.43 57.3493 238.662 55.856C237.894 54.4053 237.51 52.6987 237.51 50.736C237.51 48.9867 237.745 47.2587 238.214 45.552C238.726 43.8453 239.323 42.544 240.006 41.648C238.854 43.0133 237.425 44.5707 235.718 46.32C234.011 48.0693 232.134 49.7547 230.086 51.376C228.038 52.9973 225.926 54.3413 223.75 55.408C221.574 56.4747 219.419 57.008 217.286 57.008C214.47 57.008 212.358 56.112 210.95 54.32C209.585 52.528 208.902 50.0747 208.902 46.96C208.902 44.528 209.307 41.9253 210.118 39.152C210.971 36.336 212.209 33.4773 213.83 30.576C214.598 29.168 215.451 27.7813 216.39 26.416C217.371 25.008 218.417 23.6853 219.526 22.448C218.203 21.808 216.923 21.104 215.686 20.336C214.449 19.5253 213.446 18.5653 212.678 17.456C211.91 16.3467 211.526 15.024 211.526 13.488C211.526 12.6773 211.697 11.952 212.038 11.312C212.422 10.6293 212.827 10.288 213.254 10.288C213.638 10.288 213.83 10.5227 213.83 10.992C213.83 11.2907 213.745 11.6107 213.574 11.952C213.361 12.5067 213.254 13.0187 213.254 13.488C213.254 14.64 213.659 15.728 214.47 16.752C215.281 17.7333 216.262 18.5867 217.414 19.312C218.566 20.0373 219.633 20.6133 220.614 21.04C223.345 18.0533 226.331 15.3013 229.574 12.784C232.859 10.224 236.379 8.176 240.134 6.64C243.889 5.104 247.835 4.336 251.974 4.336C255.43 4.336 258.139 5.104 260.102 6.64C262.065 8.13333 263.046 10.0747 263.046 12.464C263.046 14.5973 262.427 16.432 261.19 17.968C259.995 19.4613 258.417 20.72 256.454 21.744C254.491 22.7253 252.358 23.5147 250.054 24.112C247.793 24.6667 245.553 25.072 243.334 25.328C241.115 25.5413 239.174 25.648 237.51 25.648C235.078 25.648 232.71 25.4987 230.406 25.2C228.145 24.9013 225.883 24.432 223.622 23.792C222.513 25.3707 221.297 27.2053 219.974 29.296C218.694 31.344 217.457 33.52 216.262 35.824C215.11 38.0853 214.15 40.3467 213.382 42.608C212.657 44.8267 212.294 46.896 212.294 48.816C212.294 50.9067 212.785 52.4853 213.766 53.552C214.747 54.576 216.07 55.088 217.734 55.088C219.739 55.088 221.851 54.4907 224.07 53.296C226.331 52.0587 228.593 50.4587 230.854 48.496C233.115 46.5333 235.27 44.4 237.318 42.096C239.366 39.792 241.201 37.5093 242.822 35.248C244.443 32.9867 245.723 30.9813 246.662 29.232C247.387 27.8667 248.091 26.9067 248.774 26.352C249.457 25.7547 250.033 25.456 250.502 25.456C250.971 25.456 251.334 25.648 251.59 26.032C251.846 26.3733 251.974 26.8427 251.974 27.44C251.974 28.6347 251.441 29.8293 250.374 31.024C248.923 32.688 247.515 34.7147 246.15 37.104C244.785 39.4507 243.675 41.9253 242.822 44.528C241.969 47.088 241.542 49.4987 241.542 51.76C241.542 53.3387 241.777 54.4693 242.246 55.152C242.758 55.8347 243.419 56.176 244.23 56.176C245.467 56.176 246.705 55.7493 247.942 54.896C249.222 54.0853 250.438 52.976 251.59 51.568C252.742 50.16 253.809 48.6027 254.79 46.896C255.771 45.1467 256.625 43.3973 257.35 41.648C257.563 41.648 257.734 41.6693 257.862 41.712C258.033 41.7547 258.118 41.9253 258.118 42.224C257.393 44.0587 256.518 45.9147 255.494 47.792C254.513 49.6693 253.382 51.3973 252.102 52.976C250.822 54.512 249.393 55.7493 247.814 56.688C246.235 57.6267 244.507 58.096 242.63 58.096ZM236.934 24.112C238.641 24.112 240.539 24.0267 242.63 23.856C244.721 23.6427 246.79 23.28 248.838 22.768C250.929 22.256 252.849 21.5307 254.598 20.592C256.347 19.6533 257.755 18.4587 258.822 17.008C259.889 15.5573 260.422 13.7867 260.422 11.696C260.422 9.81866 259.633 8.38933 258.054 7.408C256.518 6.42666 254.555 5.936 252.166 5.936C248.198 5.936 244.571 6.72533 241.286 8.304C238.043 9.84 235.057 11.8667 232.326 14.384C229.638 16.9013 227.078 19.6107 224.646 22.512C226.523 23.0667 228.443 23.472 230.406 23.728C232.411 23.984 234.587 24.112 236.934 24.112ZM273.787 58.032C271.141 58.032 268.667 57.3707 266.363 56.048C264.101 54.768 262.373 52.6347 261.179 49.648C260.667 48.4107 260.283 47.1307 260.027 45.808C259.813 44.4427 259.707 43.0987 259.707 41.776C259.707 38.9173 260.155 36.0587 261.051 33.2C261.989 30.2987 263.248 27.568 264.827 25.008C266.448 22.448 268.24 20.1867 270.203 18.224C272.208 16.2187 274.299 14.64 276.475 13.488C278.693 12.336 280.848 11.76 282.939 11.76C284.603 11.76 286.16 12.1653 287.611 12.976C287.952 13.1893 288.123 13.3813 288.123 13.552C288.123 13.68 288.016 13.7867 287.803 13.872C287.589 13.9573 287.355 13.9573 287.099 13.872C286.587 13.7013 285.947 13.616 285.179 13.616C283.344 13.616 281.424 14.2347 279.419 15.472C277.413 16.7093 275.451 18.3947 273.531 20.528C271.653 22.6187 269.947 24.9867 268.411 27.632C266.875 30.2773 265.637 33.0293 264.699 35.888C263.803 38.704 263.355 41.456 263.355 44.144C263.355 45.7653 263.547 47.3227 263.931 48.816C264.741 51.632 266 53.6587 267.707 54.896C269.456 56.1333 271.44 56.752 273.659 56.752C275.579 56.752 277.605 56.3253 279.739 55.472C281.872 54.6187 283.92 53.4453 285.882 51.952C288.997 49.6053 291.557 47.024 293.562 44.208C295.611 41.3493 297.125 38.4053 298.107 35.376C299.131 32.304 299.643 29.296 299.643 26.352C299.643 23.536 299.173 20.8693 298.235 18.352C297.339 15.792 295.973 13.5307 294.139 11.568C292.347 9.60533 290.107 8.06933 287.419 6.96C284.773 5.808 281.723 5.232 278.267 5.232C277.584 5.232 276.88 5.27466 276.155 5.36C275.429 5.40266 274.683 5.46666 273.915 5.552C269.776 6.10667 266.64 7.664 264.507 10.224C262.373 12.784 261.307 15.9627 261.307 19.76C261.307 20.5707 261.349 21.424 261.435 22.32C261.563 23.1733 261.733 24.048 261.947 24.944C261.989 25.072 262.01 25.264 262.01 25.52C262.01 26.032 261.84 26.288 261.499 26.288C261.157 26.288 260.795 25.9467 260.411 25.264C259.899 24.24 259.515 23.216 259.259 22.192C259.045 21.168 258.939 20.1653 258.939 19.184C258.939 16.7093 259.579 14.4267 260.859 12.336C262.139 10.2027 263.888 8.41066 266.107 6.96C268.325 5.50933 270.843 4.54933 273.659 4.08C275.024 3.86666 276.325 3.696 277.563 3.568C278.843 3.44 280.059 3.376 281.211 3.376C286.288 3.376 290.427 4.31467 293.627 6.192C296.869 8.02666 299.259 10.5013 300.795 13.616C302.331 16.7307 303.099 20.144 303.099 23.856C303.099 27.5253 302.395 31.2587 300.987 35.056C299.621 38.8533 297.659 42.416 295.099 45.744C292.581 49.0293 289.595 51.824 286.139 54.128C284.261 55.3653 282.235 56.3253 280.059 57.008C277.883 57.6907 275.792 58.032 273.787 58.032ZM296.379 77.744C292.624 77.744 289.339 77.3173 286.523 76.464C283.749 75.6107 281.317 74.5013 279.227 73.136C277.179 71.7707 275.344 70.32 273.723 68.784C272.144 67.2907 270.651 65.8613 269.243 64.496C267.835 63.1307 266.405 62.0213 264.955 61.168C263.547 60.3147 261.968 59.888 260.219 59.888C259.792 59.888 259.28 59.9947 258.683 60.208C258.128 60.4213 257.616 60.7413 257.147 61.168C256.72 61.5947 256.507 62.1707 256.507 62.896C256.507 63.1947 256.443 63.3867 256.315 63.472C256.187 63.6 256.08 63.664 255.995 63.664C255.611 63.664 255.419 63.344 255.419 62.704C255.419 61.3813 255.931 60.2507 256.955 59.312C257.979 58.416 259.216 57.968 260.667 57.968C262.971 57.968 265.061 58.4587 266.939 59.44C268.859 60.4213 270.736 61.6587 272.571 63.152C274.448 64.688 276.496 66.2667 278.715 67.888C280.72 69.3387 282.896 70.6827 285.243 71.92C287.632 73.2 290.043 74.224 292.475 74.992C294.949 75.76 297.275 76.144 299.451 76.144C300.517 76.144 301.52 76.016 302.459 75.76C303.397 75.504 304.165 75.0347 304.763 74.352C305.403 73.6693 305.723 72.7307 305.723 71.536C305.723 70.2987 305.296 69.0187 304.443 67.696C303.632 66.416 302.437 65.264 300.859 64.24C299.28 63.2587 297.381 62.5973 295.163 62.256C294.821 62.1707 294.565 62.0427 294.395 61.872C294.224 61.7013 294.139 61.5307 294.139 61.36C294.139 61.0187 294.416 60.8693 294.971 60.912C297.659 61.3387 299.92 62.0853 301.755 63.152C303.632 64.2613 305.061 65.4987 306.043 66.864C307.024 68.272 307.515 69.6587 307.515 71.024C307.515 72.816 306.619 74.3733 304.827 75.696C303.035 77.0613 300.219 77.744 296.379 77.744Z" fill="black"/>
<line x1="321" y1="39.5" x2="421" y2="39.5" stroke="black"/>
</svg>
