<svg width="454" height="80" viewBox="0 0 454 80" fill="none" xmlns="http://www.w3.org/2000/svg">
<line y1="39.5" x2="100" y2="39.5" stroke="black"/>
<path d="M145.463 59.888C141.282 59.888 137.442 59.2693 133.943 58.032C130.487 56.7947 127.693 54.9813 125.559 52.592C123.426 50.16 122.253 47.1733 122.039 43.632C121.954 42.1813 122.189 40.5813 122.743 38.832C123.298 37.0827 124.066 35.3547 125.047 33.648C126.071 31.8987 127.266 30.3413 128.631 28.976C130.039 27.568 131.533 26.5013 133.111 25.776C133.239 25.6907 133.431 25.6267 133.687 25.584C133.986 25.5413 134.199 25.52 134.327 25.52C134.583 25.52 134.711 25.584 134.711 25.712C134.711 25.9253 134.391 26.2667 133.751 26.736C131.959 28.144 130.487 29.7653 129.335 31.6C128.141 33.4347 127.245 35.3973 126.647 37.488C126.05 39.5787 125.751 41.6907 125.751 43.824C125.751 46.3413 126.285 48.5173 127.351 50.352C128.461 52.144 129.933 53.616 131.767 54.768C133.602 55.9627 135.693 56.8373 138.039 57.392C140.386 57.9467 142.839 58.224 145.399 58.224C148.258 58.224 151.074 57.904 153.847 57.264C156.663 56.624 159.223 55.7067 161.527 54.512C165.069 52.6347 167.863 50.3093 169.911 47.536C172.002 44.7627 173.047 42.0107 173.047 39.28C173.047 37.8293 172.727 36.4427 172.087 35.12C171.49 33.7973 170.509 32.6027 169.143 31.536C168.119 30.7253 166.861 29.9573 165.367 29.232C163.917 28.5067 162.359 27.8027 160.695 27.12C159.074 26.4373 157.474 25.7547 155.895 25.072C154.317 24.3467 152.93 23.5787 151.735 22.768C150.029 21.616 148.77 20.3787 147.959 19.056C147.191 17.7333 146.807 16.4107 146.807 15.088C146.807 13.5093 147.255 11.9733 148.151 10.48C149.09 8.98667 150.349 7.64266 151.927 6.448C153.549 5.21067 155.362 4.25067 157.367 3.568C159.117 2.97066 161.015 2.50133 163.063 2.16C165.154 1.81866 167.202 1.648 169.207 1.648C170.871 1.648 172.45 1.776 173.943 2.032C175.479 2.24533 176.823 2.65066 177.975 3.248C179.426 3.93067 180.535 4.848 181.303 6C182.071 7.10933 182.455 8.28266 182.455 9.52C182.455 11.2267 181.687 12.72 180.151 14C179.597 14.4267 178.978 14.832 178.295 15.216C177.613 15.5573 176.802 15.856 175.863 16.112C175.693 16.1547 175.501 16.176 175.287 16.176C174.775 16.176 174.519 16.0267 174.519 15.728C174.519 15.5573 174.647 15.3867 174.903 15.216C175.202 15.0027 175.629 14.8747 176.183 14.832C177.463 14.6613 178.423 14.1707 179.063 13.36C179.746 12.5493 180.087 11.6107 180.087 10.544C180.087 9.43466 179.703 8.34666 178.935 7.28C178.21 6.17066 177.079 5.25333 175.543 4.528C174.007 3.76 172.045 3.376 169.655 3.376C168.29 3.376 166.775 3.52533 165.111 3.824C163.49 4.12267 161.719 4.61333 159.799 5.296C157.453 6.10666 155.49 7.30133 153.911 8.88C152.375 10.4587 151.607 12.144 151.607 13.936C151.607 15.0453 151.97 16.176 152.695 17.328C153.463 18.4373 154.679 19.504 156.343 20.528C157.751 21.3813 159.351 22.2347 161.143 23.088C162.935 23.8987 164.749 24.7307 166.583 25.584C168.418 26.3947 170.082 27.2693 171.575 28.208C173.922 29.6587 175.607 31.216 176.631 32.88C177.655 34.544 178.167 36.2507 178.167 38C178.167 40.048 177.549 42.1173 176.311 44.208C175.117 46.256 173.538 48.1973 171.575 50.032C169.613 51.824 167.458 53.424 165.111 54.832C162.381 56.4533 159.287 57.6907 155.831 58.544C152.418 59.44 148.962 59.888 145.463 59.888ZM195.945 54.192C194.964 54.192 194.089 53.9147 193.321 53.36C192.596 52.8053 192.233 51.6747 192.233 49.968C192.233 49.2427 192.276 48.56 192.361 47.92C192.489 47.28 192.639 46.5973 192.809 45.872C192.425 46.512 191.892 47.3013 191.209 48.24C190.527 49.1787 189.759 50.096 188.905 50.992C188.095 51.888 187.241 52.6347 186.345 53.232C185.492 53.8293 184.681 54.128 183.913 54.128C182.804 54.128 181.908 53.6373 181.225 52.656C180.543 51.632 180.201 50.3093 180.201 48.688C180.201 46.9387 180.607 45.0613 181.417 43.056C182.228 41.0507 183.337 39.1307 184.745 37.296C186.153 35.4613 187.775 33.968 189.609 32.816C191.444 31.664 193.364 31.088 195.369 31.088C196.351 31.088 197.289 31.2587 198.185 31.6C199.081 31.8987 199.871 32.4107 200.553 33.136C200.852 33.4347 201.001 33.776 201.001 34.16C201.001 34.416 200.895 34.6293 200.681 34.8C200.468 34.9707 200.191 35.0133 199.849 34.928C199.38 33.4347 198.377 32.688 196.841 32.688C196.116 32.688 195.284 32.9227 194.345 33.392C193.193 33.9893 191.956 34.9493 190.633 36.272C189.353 37.552 188.137 39.024 186.985 40.688C185.876 42.3093 184.959 43.952 184.233 45.616C183.508 47.28 183.145 48.7947 183.145 50.16C183.145 51.568 183.679 52.272 184.745 52.272C185.684 52.272 186.644 51.824 187.625 50.928C188.649 50.032 189.609 48.9227 190.505 47.6C191.444 46.2347 192.297 44.8907 193.065 43.568C193.833 42.2453 194.431 41.1787 194.857 40.368C195.497 39.216 196.095 38.256 196.649 37.488C197.204 36.72 197.993 36.336 199.017 36.336C199.487 36.336 199.956 36.4 200.425 36.528C200.895 36.656 201.385 36.6773 201.897 36.592C200.617 37.872 199.487 39.3867 198.505 41.136C197.567 42.8853 196.841 44.6133 196.329 46.32C195.817 47.984 195.561 49.392 195.561 50.544C195.561 51.824 195.988 52.464 196.841 52.464C197.524 52.464 198.249 52.08 199.017 51.312C199.828 50.544 200.596 49.584 201.321 48.432C202.089 47.2373 202.793 46.0427 203.433 44.848C204.073 43.6107 204.585 42.544 204.969 41.648C205.183 41.648 205.353 41.6693 205.481 41.712C205.652 41.7547 205.737 41.9253 205.737 42.224C205.695 42.3947 205.609 42.5867 205.481 42.8C205.396 42.9707 205.247 43.2907 205.033 43.76C204.692 44.4427 204.223 45.36 203.625 46.512C203.028 47.664 202.324 48.8373 201.513 50.032C200.703 51.184 199.828 52.1653 198.889 52.976C197.951 53.7867 196.969 54.192 195.945 54.192ZM198.787 54.32C200.365 51.2907 201.859 48.2613 203.267 45.232C204.675 42.16 206.104 39.2587 207.555 36.528C208.408 34.992 209.112 33.9253 209.667 33.328C210.264 32.688 211.053 32.368 212.035 32.368C212.376 32.368 212.739 32.432 213.123 32.56C213.507 32.6453 213.891 32.688 214.275 32.688C214.531 32.688 214.723 32.6667 214.851 32.624C214.253 32.9653 213.485 33.8187 212.547 35.184C211.608 36.5067 210.648 38.0427 209.667 39.792C208.685 41.5413 207.811 43.184 207.043 44.72C207.853 43.7387 208.685 42.7573 209.539 41.776C210.435 40.7947 211.416 39.856 212.483 38.96C213.421 38.1493 214.403 37.2747 215.427 36.336C216.493 35.3547 217.539 34.5227 218.563 33.84C219.587 33.1573 220.483 32.816 221.251 32.816C221.549 32.816 221.741 32.8373 221.827 32.88C222.637 33.2213 223.043 33.776 223.043 34.544C223.043 34.8 222.936 35.184 222.723 35.696C222.168 37.1467 221.443 38.64 220.547 40.176C219.693 41.6693 218.883 43.184 218.115 44.72C218.755 43.952 219.544 43.0133 220.483 41.904C221.464 40.7947 222.445 39.8133 223.427 38.96C224.365 38.1067 225.56 37.2107 227.011 36.272C228.461 35.3333 229.891 34.5227 231.299 33.84C232.707 33.1573 233.837 32.816 234.691 32.816C234.989 32.816 235.203 32.8373 235.331 32.88C235.331 32.88 235.096 33.3067 234.627 34.16C234.157 34.9707 233.56 36.0587 232.835 37.424C232.152 38.7467 231.448 40.176 230.723 41.712C229.997 43.2053 229.336 44.656 228.739 46.064C228.184 47.4293 227.821 48.5813 227.651 49.52C227.523 50.0747 227.459 50.5867 227.459 51.056C227.459 51.7387 227.587 52.1867 227.843 52.4C228.099 52.6133 228.376 52.72 228.675 52.72C229.528 52.72 230.36 52.3573 231.171 51.632C232.024 50.9067 232.856 49.9893 233.667 48.88C234.477 47.728 235.203 46.512 235.843 45.232C236.525 43.952 237.101 42.7573 237.571 41.648C238.083 41.648 238.339 41.84 238.339 42.224C237.869 43.376 237.272 44.656 236.547 46.064C235.864 47.4293 235.075 48.7307 234.179 49.968C233.283 51.2053 232.301 52.2293 231.235 53.04C230.168 53.8507 229.016 54.256 227.779 54.256C226.883 54.256 226.029 53.9573 225.219 53.36C224.451 52.7627 224.067 51.6533 224.067 50.032C224.067 48.2827 224.472 46.5333 225.283 44.784C226.136 43.0347 227.011 41.4347 227.907 39.984C228.333 39.2587 228.547 38.6827 228.547 38.256C228.547 37.744 228.291 37.488 227.779 37.488C227.352 37.488 226.755 37.7013 225.987 38.128C225.261 38.5547 224.344 39.3013 223.235 40.368C222.552 41.008 221.741 41.904 220.803 43.056C219.907 44.1653 218.989 45.3813 218.051 46.704C217.112 48.0267 216.301 49.328 215.619 50.608C214.936 51.888 214.488 53.0187 214.275 54C213.635 54 213.123 53.744 212.739 53.232C212.355 52.6773 212.163 52.0373 212.163 51.312C212.163 51.184 212.163 51.056 212.163 50.928C212.163 50.8 212.184 50.6507 212.227 50.48C212.44 49.1573 212.781 48.048 213.251 47.152C213.72 46.2133 214.253 45.1253 214.851 43.888C215.149 43.3333 215.491 42.6933 215.875 41.968C216.259 41.2 216.6 40.4747 216.899 39.792C217.197 39.0667 217.347 38.4693 217.347 38C217.347 37.5733 217.176 37.36 216.835 37.36C216.451 37.36 215.939 37.552 215.299 37.936C214.701 38.32 214.125 38.768 213.571 39.28C213.016 39.7493 212.589 40.112 212.291 40.368C211.224 41.392 209.923 42.864 208.387 44.784C206.893 46.704 205.251 49.4347 203.459 52.976C203.203 53.4453 202.904 53.744 202.563 53.872C202.221 53.9573 201.688 54 200.963 54C200.493 54 200.109 54 199.811 54C199.469 54.0427 199.128 54.1493 198.787 54.32ZM241.461 54.32C239.712 54.32 238.475 53.7867 237.749 52.72C237.024 51.6533 236.661 50.352 236.661 48.816C236.661 47.7493 236.768 46.7467 236.981 45.808C237.237 44.8693 237.6 43.8027 238.069 42.608H237.941C237.6 42.608 237.429 42.4373 237.429 42.096C237.429 41.9253 237.6 41.4347 237.941 40.624C238.325 39.8133 238.795 38.832 239.349 37.68C239.947 36.528 240.544 35.3547 241.141 34.16C241.781 32.9653 242.357 31.8987 242.869 30.96C243.723 29.3813 244.661 27.76 245.685 26.096C246.709 24.3893 247.712 22.768 248.693 21.232C249.717 19.696 250.571 18.4373 251.253 17.456C252.789 15.3227 254.219 14.256 255.541 14.256H255.861C256.245 14.256 256.672 14.32 257.141 14.448C257.653 14.576 258.123 14.5973 258.549 14.512C257.909 15.1947 256.928 16.432 255.605 18.224C254.325 19.9733 252.917 21.9787 251.381 24.24C250.741 25.1787 249.931 26.4373 248.949 28.016C248.011 29.5947 247.008 31.3653 245.941 33.328C244.875 35.2907 243.872 37.296 242.933 39.344C242.037 41.3493 241.291 43.312 240.693 45.232C240.096 47.1093 239.797 48.7947 239.797 50.288C239.797 51.2693 239.968 51.952 240.309 52.336C240.651 52.72 241.077 52.912 241.589 52.912C242.229 52.912 242.976 52.5493 243.829 51.824C244.725 51.056 245.621 50.0747 246.517 48.88C247.456 47.6427 248.309 46.2987 249.077 44.848C249.845 43.3547 250.464 41.8613 250.933 40.368C251.445 38.832 251.701 37.424 251.701 36.144C251.701 34.9067 251.467 34.0107 250.997 33.456C250.571 32.9013 249.995 32.624 249.269 32.624C248.971 32.624 248.672 32.7093 248.373 32.88C248.075 33.008 247.819 33.072 247.605 33.072C247.392 33.072 247.285 32.9653 247.285 32.752C247.285 32.5387 247.499 32.304 247.925 32.048C248.395 31.792 249.077 31.664 249.973 31.664C250.784 31.664 251.595 31.8773 252.405 32.304C253.259 32.7307 253.963 33.4347 254.517 34.416C255.072 35.3547 255.349 36.592 255.349 38.128C255.349 39.9627 254.923 41.84 254.069 43.76C253.216 45.6373 252.107 47.3867 250.741 49.008C249.376 50.5867 247.861 51.8667 246.197 52.848C244.576 53.8293 242.997 54.32 241.461 54.32ZM260.351 54C259.881 54 259.305 53.8933 258.623 53.68C257.983 53.4667 257.407 53.0827 256.895 52.528C256.425 51.9307 256.191 51.056 256.191 49.904C256.191 48.7947 256.553 47.5147 257.279 46.064C258.004 44.6133 258.644 43.3333 259.199 42.224C258.729 42.224 258.495 42.032 258.495 41.648C258.537 41.52 258.729 41.1147 259.071 40.432C259.412 39.7493 259.817 38.9387 260.287 38C260.756 37.0613 261.204 36.1653 261.631 35.312C262.1 34.416 262.463 33.7333 262.719 33.264C263.231 32.3253 264.041 31.856 265.151 31.856H269.119C268.393 32.4107 267.732 33.0293 267.135 33.712C266.58 34.352 265.876 35.5467 265.023 37.296C265.023 37.296 264.873 37.5947 264.575 38.192C264.276 38.7893 263.892 39.5573 263.423 40.496C262.996 41.392 262.548 42.3093 262.079 43.248C261.652 44.1867 261.289 44.976 260.991 45.616C260.436 46.8107 260.073 47.7707 259.903 48.496C259.732 49.1787 259.647 49.8187 259.647 50.416C259.647 51.824 260.116 52.528 261.055 52.528C262.079 52.528 263.316 51.696 264.767 50.032C265.961 48.624 267.135 46.9387 268.287 44.976C269.439 43.0133 270.527 40.9867 271.551 38.896C272.617 36.8053 273.556 34.928 274.367 33.264C274.836 32.3253 275.668 31.856 276.863 31.856H280.383C279.444 32.624 278.484 33.776 277.503 35.312C276.564 36.848 275.519 38.8107 274.367 41.2C274.068 41.84 273.684 42.6507 273.215 43.632C272.745 44.6133 272.319 45.6587 271.935 46.768C271.593 47.8773 271.423 48.9867 271.423 50.096C271.423 51.5893 271.956 52.336 273.023 52.336C274.473 52.336 275.881 51.3333 277.247 49.328C278.612 47.3227 279.956 44.7627 281.279 41.648C281.62 41.648 281.812 41.6693 281.855 41.712C281.94 41.7547 282.004 41.9253 282.047 42.224C281.577 43.376 281.001 44.6347 280.319 46C279.679 47.3227 278.932 48.6027 278.079 49.84C277.268 51.0773 276.351 52.08 275.327 52.848C274.345 53.616 273.257 54 272.063 54C270.996 54 270.121 53.616 269.439 52.848C268.756 52.0373 268.415 50.9067 268.415 49.456C268.415 48.304 268.628 47.0667 269.055 45.744C268.329 47.024 267.497 48.304 266.559 49.584C265.62 50.864 264.617 51.9307 263.551 52.784C262.484 53.5947 261.417 54 260.351 54ZM294.555 20.208C294.001 21.0187 293.382 22.0427 292.699 23.28C292.017 24.5173 291.377 25.712 290.779 26.864C290.225 28.016 289.798 28.8907 289.499 29.488H295.387C295.387 29.6587 295.302 29.936 295.131 30.32C295.003 30.704 294.726 30.9813 294.299 31.152H288.731C288.219 32.304 287.622 33.6907 286.939 35.312C286.299 36.9333 285.659 38.6187 285.019 40.368C284.422 42.1173 283.91 43.76 283.483 45.296C283.099 46.7893 282.907 48.0053 282.907 48.944C282.907 50.224 283.078 51.184 283.419 51.824C283.761 52.4213 284.379 52.72 285.275 52.72C286.427 52.72 287.537 52.1653 288.603 51.056C289.67 49.904 290.673 48.4747 291.611 46.768C292.593 45.0613 293.446 43.3547 294.171 41.648C294.683 41.648 294.939 41.84 294.939 42.224C294.47 43.376 293.894 44.6347 293.211 46C292.529 47.3653 291.739 48.688 290.843 49.968C289.99 51.2053 289.009 52.2293 287.899 53.04C286.833 53.808 285.638 54.192 284.315 54.192C282.523 54.192 281.307 53.7013 280.667 52.72C280.027 51.696 279.707 50.3947 279.707 48.816C279.707 47.664 279.921 46.2773 280.347 44.656C280.774 42.992 281.286 41.2853 281.883 39.536C282.523 37.7867 283.142 36.1653 283.739 34.672C284.337 33.136 284.806 31.9627 285.147 31.152H281.051C281.051 30.8107 281.201 30.448 281.499 30.064C281.798 29.68 282.118 29.488 282.459 29.488H285.851C286.193 28.8053 286.577 27.952 287.003 26.928C287.473 25.904 288.091 24.7733 288.859 23.536C289.499 22.512 290.31 21.7013 291.291 21.104C292.315 20.5067 293.403 20.208 294.555 20.208ZM308.07 54.192C307.089 54.192 306.214 53.9147 305.446 53.36C304.721 52.8053 304.358 51.6747 304.358 49.968C304.358 49.2427 304.401 48.56 304.486 47.92C304.614 47.28 304.764 46.5973 304.934 45.872C304.55 46.512 304.017 47.3013 303.334 48.24C302.652 49.1787 301.884 50.096 301.03 50.992C300.22 51.888 299.366 52.6347 298.47 53.232C297.617 53.8293 296.806 54.128 296.038 54.128C294.929 54.128 294.033 53.6373 293.35 52.656C292.668 51.632 292.326 50.3093 292.326 48.688C292.326 46.9387 292.732 45.0613 293.542 43.056C294.353 41.0507 295.462 39.1307 296.87 37.296C298.278 35.4613 299.9 33.968 301.734 32.816C303.569 31.664 305.489 31.088 307.494 31.088C308.476 31.088 309.414 31.2587 310.31 31.6C311.206 31.8987 311.996 32.4107 312.678 33.136C312.977 33.4347 313.126 33.776 313.126 34.16C313.126 34.416 313.02 34.6293 312.806 34.8C312.593 34.9707 312.316 35.0133 311.974 34.928C311.505 33.4347 310.502 32.688 308.966 32.688C308.241 32.688 307.409 32.9227 306.47 33.392C305.318 33.9893 304.081 34.9493 302.758 36.272C301.478 37.552 300.262 39.024 299.11 40.688C298.001 42.3093 297.084 43.952 296.358 45.616C295.633 47.28 295.27 48.7947 295.27 50.16C295.27 51.568 295.804 52.272 296.87 52.272C297.809 52.272 298.769 51.824 299.75 50.928C300.774 50.032 301.734 48.9227 302.63 47.6C303.569 46.2347 304.422 44.8907 305.19 43.568C305.958 42.2453 306.556 41.1787 306.982 40.368C307.622 39.216 308.22 38.256 308.774 37.488C309.329 36.72 310.118 36.336 311.142 36.336C311.612 36.336 312.081 36.4 312.55 36.528C313.02 36.656 313.51 36.6773 314.022 36.592C312.742 37.872 311.612 39.3867 310.63 41.136C309.692 42.8853 308.966 44.6133 308.454 46.32C307.942 47.984 307.686 49.392 307.686 50.544C307.686 51.824 308.113 52.464 308.966 52.464C309.649 52.464 310.374 52.08 311.142 51.312C311.953 50.544 312.721 49.584 313.446 48.432C314.214 47.2373 314.918 46.0427 315.558 44.848C316.198 43.6107 316.71 42.544 317.094 41.648C317.308 41.648 317.478 41.6693 317.606 41.712C317.777 41.7547 317.862 41.9253 317.862 42.224C317.82 42.3947 317.734 42.5867 317.606 42.8C317.521 42.9707 317.372 43.2907 317.158 43.76C316.817 44.4427 316.348 45.36 315.75 46.512C315.153 47.664 314.449 48.8373 313.638 50.032C312.828 51.184 311.953 52.1653 311.014 52.976C310.076 53.7867 309.094 54.192 308.07 54.192ZM310.976 54.512C312.512 51.3973 313.984 48.3253 315.392 45.296C316.8 42.224 318.25 39.3013 319.744 36.528C320.597 34.992 321.322 33.9253 321.92 33.328C322.517 32.688 323.306 32.368 324.288 32.368C324.629 32.368 324.992 32.432 325.376 32.56C325.76 32.6453 326.144 32.688 326.528 32.688C326.784 32.688 326.976 32.6667 327.104 32.624C326.506 32.9653 325.717 33.8187 324.736 35.184C323.797 36.5067 322.837 38.0427 321.856 39.792C320.874 41.5413 320 43.184 319.232 44.72C320.042 43.7387 320.896 42.7573 321.792 41.776C322.688 40.7947 323.669 39.856 324.736 38.96C325.76 38.064 326.976 37.1467 328.384 36.208C329.834 35.2267 331.242 34.416 332.608 33.776C333.973 33.136 335.061 32.816 335.872 32.816C336.17 32.816 336.384 32.8373 336.512 32.88C336.512 32.88 336.277 33.3067 335.808 34.16C335.338 34.9707 334.741 36.0587 334.016 37.424C333.333 38.7467 332.629 40.176 331.904 41.712C331.178 43.2053 330.517 44.656 329.92 46.064C329.365 47.4293 329.002 48.5813 328.832 49.52C328.704 50.0747 328.64 50.5867 328.64 51.056C328.64 51.7387 328.768 52.1867 329.024 52.4C329.28 52.6133 329.557 52.72 329.856 52.72C330.666 52.72 331.498 52.3573 332.352 51.632C333.205 50.9067 334.016 49.9893 334.784 48.88C335.594 47.728 336.341 46.512 337.024 45.232C337.706 43.952 338.282 42.7573 338.752 41.648C339.264 41.648 339.52 41.84 339.52 42.224C339.05 43.376 338.453 44.656 337.728 46.064C337.045 47.4293 336.256 48.7307 335.36 49.968C334.506 51.2053 333.546 52.2293 332.48 53.04C331.413 53.8507 330.261 54.256 329.024 54.256C328.17 54.256 327.274 53.9573 326.336 53.36C325.44 52.7627 324.992 51.6533 324.992 50.032C324.992 49.5627 325.034 49.072 325.12 48.56C325.205 48.0053 325.354 47.408 325.568 46.768C325.909 45.9147 326.314 44.9973 326.784 44.016C327.253 43.0347 328.021 41.6907 329.088 39.984C329.386 39.5147 329.557 39.152 329.6 38.896C329.685 38.64 329.728 38.4267 329.728 38.256C329.728 37.744 329.493 37.488 329.024 37.488C328.64 37.488 328.064 37.7013 327.296 38.128C326.57 38.5547 325.653 39.3013 324.544 40.368C323.477 41.392 322.197 42.8427 320.704 44.72C319.253 46.5973 317.568 49.3707 315.648 53.04C315.349 53.5947 315.008 53.8933 314.624 53.936C314.282 53.9787 313.792 54.0213 313.152 54.064C312.725 54.1067 312.32 54.128 311.936 54.128C311.552 54.1707 311.232 54.2987 310.976 54.512Z" fill="black"/>
<line x1="354" y1="39.5" x2="454" y2="39.5" stroke="black"/>
</svg>
