<svg width="449" height="73" viewBox="0 0 449 73" fill="none" xmlns="http://www.w3.org/2000/svg">
<line y1="36" x2="100" y2="36" stroke="black"/>
<path d="M138.368 53.422C134.347 53.422 131.021 52.8613 128.392 51.74C125.801 50.6187 123.868 49.1493 122.592 47.332C121.355 45.5147 120.736 43.5813 120.736 41.532C120.736 39.212 121.335 37.1047 122.534 35.21C123.733 33.3153 125.299 31.672 127.232 30.28C129.204 28.888 131.369 27.786 133.728 26.974C136.087 26.162 138.407 25.698 140.688 25.582C138.677 24.8473 137.034 23.842 135.758 22.566C134.521 21.2513 133.902 19.8207 133.902 18.274C133.902 16.6887 134.385 15.1807 135.352 13.75C136.357 12.2807 137.691 10.9467 139.354 9.748C141.017 8.51067 142.892 7.44733 144.98 6.558C147.107 5.66867 149.311 4.992 151.592 4.528C153.873 4.02533 156.077 3.774 158.204 3.774C161.645 3.774 164.391 4.354 166.44 5.514C168.489 6.674 169.514 8.16266 169.514 9.98C169.514 11.6427 168.605 13.286 166.788 14.91C165.009 16.534 162.535 17.694 159.364 18.39C158.745 18.506 158.339 18.564 158.146 18.564C157.721 18.564 157.508 18.39 157.508 18.042C157.508 17.926 157.566 17.8487 157.682 17.81C157.837 17.7327 158.146 17.6167 158.61 17.462C160.891 16.6887 162.709 15.606 164.062 14.214C165.415 12.7833 166.092 11.2753 166.092 9.69C166.092 8.33666 165.435 7.254 164.12 6.442C162.844 5.59133 160.911 5.166 158.32 5.166C156 5.166 153.661 5.49466 151.302 6.152C148.943 6.80933 146.778 7.73733 144.806 8.936C142.834 10.1347 141.249 11.5073 140.05 13.054C138.851 14.6007 138.252 16.2827 138.252 18.1C138.252 19.4147 138.639 20.478 139.412 21.29C140.185 22.102 141.171 22.7593 142.37 23.262C143.569 23.726 144.806 24.1127 146.082 24.422C147.397 24.6927 148.595 25.002 149.678 25.35C150.065 25.466 150.316 25.6207 150.432 25.814C150.548 26.0073 150.606 26.2007 150.606 26.394C150.606 26.8967 150.316 27.322 149.736 27.67C149.195 28.018 148.421 28.192 147.416 28.192C146.797 28.192 146.101 28.192 145.328 28.192C144.593 28.1533 143.801 28.134 142.95 28.134C141.751 28.134 140.475 28.192 139.122 28.308C137.807 28.424 136.357 28.7333 134.772 29.236C132.761 29.8547 131.002 30.8213 129.494 32.136C128.025 33.4507 126.884 34.9007 126.072 36.486C125.26 38.0713 124.854 39.6373 124.854 41.184C124.854 43.1947 125.318 45.012 126.246 46.636C127.174 48.26 128.643 49.536 130.654 50.464C132.665 51.4307 135.313 51.914 138.6 51.914C141.616 51.914 144.535 51.5273 147.358 50.754C150.181 49.9807 152.791 48.9947 155.188 47.796C157.585 46.5587 159.635 45.2827 161.336 43.968C162.728 42.8467 163.849 41.706 164.7 40.546C165.589 39.386 166.034 38.3807 166.034 37.53C166.034 36.4473 165.28 35.79 163.772 35.558C163.385 35.5193 163.192 35.4033 163.192 35.21C163.192 34.9007 163.463 34.746 164.004 34.746C165.125 34.746 166.111 35.1327 166.962 35.906C167.851 36.6407 168.296 37.5687 168.296 38.69C168.296 40.894 166.73 43.214 163.598 45.65C161.703 47.158 159.383 48.492 156.638 49.652C153.931 50.812 150.993 51.7207 147.822 52.378C144.69 53.074 141.539 53.422 138.368 53.422ZM172.366 37.82C172.173 37.82 172.076 37.7427 172.076 37.588C172.076 37.3173 172.173 37.008 172.366 36.66C172.598 36.2733 173.024 36.08 173.642 36.08H187.388C187.582 36.08 187.678 36.1573 187.678 36.312C187.678 36.7373 187.562 37.1047 187.33 37.414C187.098 37.6847 186.654 37.82 185.996 37.82H172.366ZM267.562 56.67C266.982 56.5927 266.189 56.438 265.184 56.206C264.178 56.0127 263.154 55.6067 262.11 54.988C261.066 54.3693 260.176 53.422 259.442 52.146C258.707 50.9087 258.34 49.246 258.34 47.158C258.34 44.7607 258.823 42.1313 259.79 39.27C260.795 36.37 262.013 33.354 263.444 30.222C264.874 27.09 266.247 23.9967 267.562 20.942C268.606 18.506 269.128 16.65 269.128 15.374C269.128 14.098 268.644 13.46 267.678 13.46C266.595 13.46 264.971 14.33 262.806 16.07C260.679 17.7713 258.204 20.362 255.382 23.842C254.647 24.77 253.7 26.0653 252.54 27.728C251.38 29.352 250.142 31.1693 248.828 33.18C247.513 35.152 246.218 37.1627 244.942 39.212C243.704 41.2227 242.602 43.0787 241.636 44.78C240.708 46.4813 240.031 47.8347 239.606 48.84C239.103 50.0387 238.523 50.8507 237.866 51.276C237.208 51.74 236.59 51.972 236.01 51.972C235.507 51.972 235.082 51.8367 234.734 51.566C234.347 51.2953 234.154 50.9667 234.154 50.58C234.154 50.348 234.212 50.1547 234.328 50C234.56 49.536 235.14 48.4727 236.068 46.81C236.996 45.1473 238.078 42.9433 239.316 40.198C240.553 37.4527 241.732 34.2627 242.854 30.628C243.202 29.5067 243.55 28.2113 243.898 26.742C244.284 25.2727 244.632 23.7647 244.942 22.218C245.251 20.6327 245.502 19.1633 245.696 17.81C245.928 16.418 246.044 15.2967 246.044 14.446C246.044 13.0927 245.812 12.1067 245.348 11.488C244.884 10.8307 244.265 10.502 243.492 10.502C242.641 10.502 241.674 10.8693 240.592 11.604C239.509 12.3387 238.407 13.402 237.286 14.794C235.352 17.23 233.651 19.492 232.182 21.58C230.712 23.6293 229.359 25.6787 228.122 27.728C226.923 29.7773 225.724 31.962 224.526 34.282C223.366 36.602 222.128 39.212 220.814 42.112C219.499 44.9733 217.991 48.2987 216.29 52.088C216.019 52.7067 215.555 53.1513 214.898 53.422C214.279 53.6927 213.699 53.828 213.158 53.828C212.616 53.828 212.172 53.712 211.824 53.48C211.476 53.248 211.36 52.9193 211.476 52.494C212.326 51.1407 213.274 49.4587 214.318 47.448C215.362 45.3987 216.425 43.1367 217.508 40.662C218.59 38.1873 219.634 35.616 220.64 32.948C221.645 30.28 222.534 27.67 223.308 25.118C224.12 22.566 224.758 20.1687 225.222 17.926C225.686 15.6833 225.918 13.7693 225.918 12.184C225.918 9.20667 225.28 7.08 224.004 5.804C222.766 4.528 221.162 3.89 219.19 3.89C217.45 3.89 215.536 4.31533 213.448 5.166C211.36 6.01666 209.252 7.17666 207.126 8.646C205.038 10.1153 203.066 11.778 201.21 13.634C198.542 16.302 196.434 19.202 194.888 22.334C193.38 25.466 192.626 28.6367 192.626 31.846C192.626 34.0113 193.032 35.848 193.844 37.356C194.656 38.864 195.719 40.0047 197.034 40.778C198.387 41.5513 199.876 41.938 201.5 41.938C203.162 41.938 204.709 41.532 206.14 40.72C207.609 39.8693 208.885 38.7867 209.968 37.472C211.089 36.1187 211.959 34.7073 212.578 33.238C213.196 31.73 213.506 30.3187 213.506 29.004C213.506 27.8827 213.196 26.9547 212.578 26.22C211.959 25.4853 210.973 25.118 209.62 25.118C209.465 25.118 209.291 25.1373 209.098 25.176C208.943 25.176 208.769 25.176 208.576 25.176H208.402C208.131 25.176 207.88 25.1373 207.648 25.06C207.416 24.944 207.3 24.8087 207.3 24.654C207.3 24.4993 207.493 24.3253 207.88 24.132C208.305 23.9387 209.059 23.842 210.142 23.842C211.882 23.842 213.177 24.364 214.028 25.408C214.917 26.4133 215.362 27.7087 215.362 29.294C215.362 30.8407 214.956 32.426 214.144 34.05C213.37 35.674 212.307 37.182 210.954 38.574C209.6 39.966 208.073 41.0873 206.372 41.938C204.709 42.7887 202.988 43.214 201.21 43.214C199.122 43.214 197.169 42.7307 195.352 41.764C193.573 40.7973 192.142 39.4053 191.06 37.588C189.977 35.732 189.436 33.528 189.436 30.976C189.436 28.54 189.938 26.1427 190.944 23.784C191.949 21.3867 193.244 19.144 194.83 17.056C196.454 14.9293 198.174 13.054 199.992 11.43C202.002 9.61267 204.129 8.066 206.372 6.79C208.614 5.47533 210.838 4.47 213.042 3.774C215.284 3.03933 217.372 2.672 219.306 2.672C222.167 2.672 224.526 3.52266 226.382 5.224C228.276 6.92533 229.224 9.67066 229.224 13.46C229.224 15.0067 229.011 16.7853 228.586 18.796C228.16 20.768 227.658 22.7593 227.078 24.77C226.498 26.742 225.937 28.5013 225.396 30.048H225.512C226.904 27.5347 228.141 25.3887 229.224 23.61C230.345 21.7927 231.466 20.1107 232.588 18.564C233.709 17.0173 234.966 15.3933 236.358 13.692C237.556 12.2613 238.929 11.1207 240.476 10.27C242.022 9.41933 243.511 8.994 244.942 8.994C246.218 8.994 247.3 9.41933 248.19 10.27C249.079 11.1207 249.524 12.5707 249.524 14.62C249.524 14.852 249.524 15.0453 249.524 15.2C249.524 15.3547 249.504 15.5867 249.466 15.896C249.118 19.608 248.383 23.262 247.262 26.858C246.14 30.4153 244.98 34.0113 243.782 37.646C244.98 35.79 246.604 33.4313 248.654 30.57C250.703 27.7087 252.946 24.7507 255.382 21.696C258.359 17.984 261.124 15.2 263.676 13.344C266.228 11.488 268.335 10.56 269.998 10.56C272.086 10.56 273.13 11.836 273.13 14.388C273.13 15.3547 272.936 16.5147 272.55 17.868C272.202 19.2213 271.641 20.652 270.868 22.16C270.017 23.8613 269.07 25.8333 268.026 28.076C267.02 30.28 266.054 32.6 265.126 35.036C264.198 37.472 263.424 39.8693 262.806 42.228C262.226 44.548 261.936 46.694 261.936 48.666C261.936 50.7927 262.419 52.494 263.386 53.77C264.391 55.0847 266.112 55.742 268.548 55.742H268.896C269.476 55.742 269.766 55.858 269.766 56.09C269.766 56.2447 269.572 56.3993 269.186 56.554C268.799 56.7087 268.258 56.7473 267.562 56.67ZM281.884 50.174C280.995 50.174 280.202 49.9227 279.506 49.42C278.849 48.9173 278.52 47.8927 278.52 46.346C278.52 45.6887 278.559 45.07 278.636 44.49C278.752 43.91 278.887 43.2913 279.042 42.634C278.694 43.214 278.211 43.9293 277.592 44.78C276.973 45.6307 276.277 46.462 275.504 47.274C274.769 48.086 273.996 48.7627 273.184 49.304C272.411 49.8453 271.676 50.116 270.98 50.116C269.975 50.116 269.163 49.6713 268.544 48.782C267.925 47.854 267.616 46.6553 267.616 45.186C267.616 43.6007 267.983 41.8993 268.718 40.082C269.453 38.2647 270.458 36.5247 271.734 34.862C273.01 33.1993 274.479 31.846 276.142 30.802C277.805 29.758 279.545 29.236 281.362 29.236C282.251 29.236 283.102 29.3907 283.914 29.7C284.726 29.9707 285.441 30.4347 286.06 31.092C286.331 31.3627 286.466 31.672 286.466 32.02C286.466 32.252 286.369 32.4453 286.176 32.6C285.983 32.7547 285.731 32.7933 285.422 32.716C284.997 31.3627 284.088 30.686 282.696 30.686C282.039 30.686 281.285 30.8987 280.434 31.324C279.39 31.8653 278.269 32.7353 277.07 33.934C275.91 35.094 274.808 36.428 273.764 37.936C272.759 39.4053 271.927 40.894 271.27 42.402C270.613 43.91 270.284 45.2827 270.284 46.52C270.284 47.796 270.767 48.434 271.734 48.434C272.585 48.434 273.455 48.028 274.344 47.216C275.272 46.404 276.142 45.3987 276.954 44.2C277.805 42.9627 278.578 41.7447 279.274 40.546C279.97 39.3473 280.511 38.3807 280.898 37.646C281.478 36.602 282.019 35.732 282.522 35.036C283.025 34.34 283.74 33.992 284.668 33.992C285.093 33.992 285.519 34.05 285.944 34.166C286.369 34.282 286.814 34.3013 287.278 34.224C286.118 35.384 285.093 36.7567 284.204 38.342C283.353 39.9273 282.696 41.4933 282.232 43.04C281.768 44.548 281.536 45.824 281.536 46.868C281.536 48.028 281.923 48.608 282.696 48.608C283.315 48.608 283.972 48.26 284.668 47.564C285.403 46.868 286.099 45.998 286.756 44.954C287.452 43.8713 288.09 42.7887 288.67 41.706C289.25 40.5847 289.714 39.618 290.062 38.806C290.255 38.806 290.41 38.8253 290.526 38.864C290.681 38.9027 290.758 39.0573 290.758 39.328C290.719 39.4827 290.642 39.6567 290.526 39.85C290.449 40.0047 290.313 40.2947 290.12 40.72C289.811 41.3387 289.385 42.17 288.844 43.214C288.303 44.258 287.665 45.3213 286.93 46.404C286.195 47.448 285.403 48.3373 284.552 49.072C283.701 49.8067 282.812 50.174 281.884 50.174ZM286.083 68.502C282.41 68.502 280.573 66.994 280.573 63.978C280.573 62.5473 281.076 61.2713 282.081 60.15C283.086 59.0287 284.285 58.062 285.677 57.25C287.61 56.09 289.505 55.162 291.361 54.466C293.217 53.77 294.996 53.1513 296.697 52.61C298.398 52.1073 299.984 51.5467 301.453 50.928C301.801 49.9227 302.091 48.8207 302.323 47.622C302.555 46.3847 302.729 45.186 302.845 44.026C302.961 42.866 303.019 41.8607 303.019 41.01C303.019 40.1207 302.961 39.5407 302.845 39.27C302.42 40.082 301.84 41.0873 301.105 42.286C300.409 43.4847 299.578 44.6833 298.611 45.882C297.683 47.042 296.697 48.0087 295.653 48.782C294.609 49.5553 293.546 49.942 292.463 49.942C292.076 49.942 291.709 49.884 291.361 49.768C290.278 49.304 289.486 48.6467 288.983 47.796C288.519 46.9453 288.287 45.9787 288.287 44.896C288.287 43.156 288.79 41.2807 289.795 39.27C290.8 37.2593 291.999 35.4227 293.391 33.76C294.512 32.4067 295.827 31.324 297.335 30.512C298.843 29.7 300.37 29.294 301.917 29.294C303.696 29.294 305.358 29.8933 306.905 31.092C307.485 31.556 307.775 32.0587 307.775 32.6C307.775 33.18 307.543 33.47 307.079 33.47C306.692 33.47 306.422 33.2187 306.267 32.716C305.726 31.2853 304.856 30.57 303.657 30.57C302.69 30.57 301.588 30.9953 300.351 31.846C299.114 32.658 297.954 33.6827 296.871 34.92C295.943 35.964 295.034 37.1627 294.145 38.516C293.294 39.8693 292.579 41.2033 291.999 42.518C291.458 43.8327 291.187 44.9733 291.187 45.94C291.187 46.5973 291.342 47.158 291.651 47.622C291.96 48.086 292.444 48.318 293.101 48.318C293.99 48.318 294.918 47.8927 295.885 47.042C296.89 46.1913 297.838 45.1473 298.727 43.91C299.655 42.6727 300.448 41.416 301.105 40.14C301.801 38.864 302.284 37.8007 302.555 36.95C302.826 36.0607 303.193 35.5193 303.657 35.326C304.121 35.094 304.585 34.978 305.049 34.978C305.513 34.978 305.9 34.862 306.209 34.63C306.364 35.4807 306.46 36.3507 306.499 37.24C306.576 38.0907 306.615 38.9607 306.615 39.85C306.615 41.6287 306.499 43.2527 306.267 44.722C306.074 46.1913 305.726 47.7573 305.223 49.42C306.615 48.5693 307.814 47.506 308.819 46.23C309.863 44.9153 310.714 43.6007 311.371 42.286C312.067 40.9327 312.628 39.7727 313.053 38.806C313.517 38.806 313.749 38.98 313.749 39.328C313.246 40.372 312.608 41.648 311.835 43.156C311.1 44.664 310.153 46.1333 308.993 47.564C307.872 48.956 306.46 50.0387 304.759 50.812C304.102 52.668 303.154 54.6207 301.917 56.67C300.718 58.7193 299.288 60.6333 297.625 62.412C295.962 64.2293 294.145 65.6987 292.173 66.82C290.201 67.9413 288.171 68.502 286.083 68.502ZM284.691 67.342C285.542 67.342 286.431 67.1487 287.359 66.762C288.326 66.414 289.234 65.9887 290.085 65.486C290.936 64.9833 291.593 64.558 292.057 64.21C292.946 63.514 293.855 62.644 294.783 61.6C295.711 60.556 296.523 59.5507 297.219 58.584C297.876 57.656 298.553 56.67 299.249 55.626C299.945 54.6207 300.506 53.6153 300.931 52.61L298.553 53.364C297.277 53.7507 295.866 54.2147 294.319 54.756C292.811 55.336 291.303 55.974 289.795 56.67C288.287 57.366 286.914 58.12 285.677 58.932C284.594 59.6667 283.705 60.6333 283.009 61.832C282.274 63.0307 281.907 64.0747 281.907 64.964C281.907 65.6213 282.139 66.182 282.603 66.646C283.028 67.11 283.724 67.342 284.691 67.342ZM313.081 38.806C313.352 38.1873 313.642 37.5493 313.951 36.892C314.261 36.196 314.705 35.326 315.285 34.282C315.981 33.0447 316.716 32.136 317.489 31.556C318.263 30.9373 319.017 30.5313 319.751 30.338C320.486 30.1447 321.085 30.048 321.549 30.048C322.516 30.048 323.367 30.1833 324.101 30.454C324.836 30.7247 325.493 31.0147 326.073 31.324C326.692 31.5947 327.291 31.73 327.871 31.73C328.606 31.73 329.147 31.5367 329.495 31.15C329.843 30.7633 330.153 30.57 330.423 30.57C330.694 30.57 330.926 30.686 331.119 30.918C331.313 31.15 331.409 31.44 331.409 31.788C331.409 32.2907 331.197 32.658 330.771 32.89C330.346 33.122 329.631 33.5087 328.625 34.05C327.543 34.63 326.576 35.4613 325.725 36.544C324.875 37.6267 324.043 38.7867 323.231 40.024C322.458 41.2613 321.607 42.4793 320.679 43.678C319.751 44.838 318.669 45.824 317.431 46.636C318.901 46.868 320.254 47.1193 321.491 47.39C322.729 47.6607 323.811 47.796 324.739 47.796C324.971 47.796 325.165 47.796 325.319 47.796C325.513 47.7573 325.706 47.7187 325.899 47.68C327.059 47.3707 328.065 46.752 328.915 45.824C329.805 44.8573 330.578 43.7553 331.235 42.518C331.893 41.2807 332.473 40.0433 332.975 38.806C333.439 38.806 333.671 38.98 333.671 39.328C332.975 41.068 332.144 42.7887 331.177 44.49C330.211 46.1913 329.128 47.6027 327.929 48.724C326.731 49.8453 325.416 50.406 323.985 50.406C322.284 50.406 320.776 50.2513 319.461 49.942C318.147 49.6327 317.045 49.478 316.155 49.478C315.421 49.478 314.705 49.6713 314.009 50.058C313.352 50.4833 312.637 50.696 311.863 50.696C311.167 50.696 310.819 50.406 310.819 49.826C310.819 49.4393 310.916 49.1107 311.109 48.84C311.225 48.608 311.631 48.3567 312.327 48.086C313.023 47.7767 313.739 47.4867 314.473 47.216C315.247 46.9067 315.769 46.6747 316.039 46.52C316.735 46.172 317.489 45.5147 318.301 44.548C319.152 43.5427 320.022 42.4213 320.911 41.184C321.801 39.908 322.671 38.6707 323.521 37.472C324.372 36.2733 325.184 35.268 325.957 34.456C325.261 34.3013 324.469 34.1273 323.579 33.934C322.69 33.7407 321.859 33.644 321.085 33.644C319.964 33.644 318.997 33.76 318.185 33.992C317.373 34.1853 316.619 34.688 315.923 35.5C315.266 36.312 314.551 37.588 313.777 39.328C313.313 39.328 313.081 39.154 313.081 38.806Z" fill="black"/>
<line x1="349" y1="36" x2="449" y2="36" stroke="black"/>
</svg>
