<svg width="562" height="120" viewBox="0 0 562 120" fill="none" xmlns="http://www.w3.org/2000/svg">
<line y1="59.5" x2="100" y2="59.5" stroke="black"/>
<path d="M158.695 90.832C152.423 90.832 146.663 89.904 141.415 88.048C136.231 86.192 132.039 83.472 128.839 79.888C125.639 76.24 123.879 71.76 123.559 66.448C123.431 64.272 123.783 61.872 124.615 59.248C125.447 56.624 126.599 54.032 128.071 51.472C129.607 48.848 131.399 46.512 133.447 44.464C135.559 42.352 137.799 40.752 140.167 39.664C140.359 39.536 140.647 39.44 141.031 39.376C141.479 39.312 141.799 39.28 141.991 39.28C142.375 39.28 142.567 39.376 142.567 39.568C142.567 39.888 142.087 40.4 141.127 41.104C138.439 43.216 136.231 45.648 134.503 48.4C132.711 51.152 131.367 54.096 130.471 57.232C129.575 60.368 129.127 63.536 129.127 66.736C129.127 70.512 129.927 73.776 131.527 76.528C133.191 79.216 135.399 81.424 138.151 83.152C140.903 84.944 144.039 86.256 147.559 87.088C151.079 87.92 154.759 88.336 158.599 88.336C162.887 88.336 167.111 87.856 171.271 86.896C175.495 85.936 179.335 84.56 182.791 82.768C188.103 79.952 192.295 76.464 195.367 72.304C198.503 68.144 200.071 64.016 200.071 59.92C200.071 57.744 199.591 55.664 198.631 53.68C197.735 51.696 196.263 49.904 194.215 48.304C192.679 47.088 190.791 45.936 188.551 44.848C186.375 43.76 184.039 42.704 181.543 41.68C179.111 40.656 176.711 39.632 174.343 38.608C171.975 37.52 169.895 36.368 168.103 35.152C165.543 33.424 163.655 31.568 162.439 29.584C161.287 27.6 160.711 25.616 160.711 23.632C160.711 21.264 161.383 18.96 162.727 16.72C164.135 14.48 166.023 12.464 168.391 10.672C170.823 8.816 173.543 7.376 176.551 6.352C179.175 5.456 182.023 4.752 185.095 4.23999C188.231 3.728 191.303 3.472 194.311 3.472C196.807 3.472 199.175 3.664 201.415 4.048C203.719 4.368 205.735 4.976 207.463 5.872C209.639 6.896 211.303 8.272 212.455 9.99999C213.607 11.664 214.183 13.424 214.183 15.28C214.183 17.84 213.031 20.08 210.727 22C209.895 22.64 208.967 23.248 207.943 23.824C206.919 24.336 205.703 24.784 204.295 25.168C204.039 25.232 203.751 25.264 203.431 25.264C202.663 25.264 202.279 25.04 202.279 24.592C202.279 24.336 202.471 24.08 202.855 23.824C203.303 23.504 203.943 23.312 204.775 23.248C206.695 22.992 208.135 22.256 209.095 21.04C210.119 19.824 210.631 18.416 210.631 16.816C210.631 15.152 210.055 13.52 208.903 11.92C207.815 10.256 206.119 8.88 203.815 7.79199C201.511 6.64 198.567 6.064 194.983 6.064C192.935 6.064 190.663 6.288 188.167 6.736C185.735 7.184 183.079 7.92 180.199 8.944C176.679 10.16 173.735 11.952 171.367 14.32C169.063 16.688 167.911 19.216 167.911 21.904C167.911 23.568 168.455 25.264 169.543 26.992C170.695 28.656 172.519 30.256 175.015 31.792C177.127 33.072 179.527 34.352 182.215 35.632C184.903 36.848 187.623 38.096 190.375 39.376C193.127 40.592 195.623 41.904 197.863 43.312C201.383 45.488 203.911 47.824 205.447 50.32C206.983 52.816 207.751 55.376 207.751 58C207.751 61.072 206.823 64.176 204.967 67.312C203.175 70.384 200.807 73.296 197.863 76.048C194.919 78.736 191.687 81.136 188.167 83.248C184.071 85.68 179.431 87.536 174.247 88.816C169.127 90.16 163.943 90.832 158.695 90.832ZM234.418 82.288C232.946 82.288 231.634 81.872 230.482 81.04C229.394 80.208 228.85 78.512 228.85 75.952C228.85 74.864 228.914 73.84 229.042 72.88C229.234 71.92 229.458 70.896 229.714 69.808C229.138 70.768 228.338 71.952 227.314 73.36C226.29 74.768 225.138 76.144 223.858 77.488C222.642 78.832 221.362 79.952 220.018 80.848C218.738 81.744 217.522 82.192 216.37 82.192C214.706 82.192 213.362 81.456 212.338 79.984C211.314 78.448 210.802 76.464 210.802 74.032C210.802 71.408 211.41 68.592 212.626 65.584C213.842 62.576 215.506 59.696 217.618 56.944C219.73 54.192 222.162 51.952 224.914 50.224C227.666 48.496 230.546 47.632 233.554 47.632C235.026 47.632 236.434 47.888 237.778 48.4C239.122 48.848 240.306 49.616 241.33 50.704C241.778 51.152 242.002 51.664 242.002 52.24C242.002 52.624 241.842 52.944 241.522 53.2C241.202 53.456 240.786 53.52 240.274 53.392C239.57 51.152 238.066 50.032 235.762 50.032C234.674 50.032 233.426 50.384 232.018 51.088C230.29 51.984 228.434 53.424 226.45 55.408C224.53 57.328 222.706 59.536 220.978 62.032C219.314 64.464 217.938 66.928 216.85 69.424C215.762 71.92 215.218 74.192 215.218 76.24C215.218 78.352 216.018 79.408 217.618 79.408C219.026 79.408 220.466 78.736 221.938 77.392C223.474 76.048 224.914 74.384 226.258 72.4C227.666 70.352 228.946 68.336 230.098 66.352C231.25 64.368 232.146 62.768 232.786 61.552C233.746 59.824 234.642 58.384 235.474 57.232C236.306 56.08 237.49 55.504 239.026 55.504C239.73 55.504 240.434 55.6 241.138 55.792C241.842 55.984 242.578 56.016 243.346 55.888C241.426 57.808 239.73 60.08 238.258 62.704C236.85 65.328 235.762 67.92 234.994 70.48C234.226 72.976 233.842 75.088 233.842 76.816C233.842 78.736 234.482 79.696 235.762 79.696C236.786 79.696 237.874 79.12 239.026 77.968C240.242 76.816 241.394 75.376 242.482 73.648C243.634 71.856 244.69 70.064 245.65 68.272C246.61 66.416 247.378 64.816 247.954 63.472C248.274 63.472 248.53 63.504 248.722 63.568C248.978 63.632 249.106 63.888 249.106 64.336C249.042 64.592 248.914 64.88 248.722 65.2C248.594 65.456 248.37 65.936 248.05 66.64C247.538 67.664 246.834 69.04 245.938 70.768C245.042 72.496 243.986 74.256 242.77 76.048C241.554 77.776 240.242 79.248 238.834 80.464C237.426 81.68 235.954 82.288 234.418 82.288ZM238.68 82.48C241.048 77.936 243.288 73.392 245.4 68.848C247.512 64.24 249.656 59.888 251.832 55.792C253.112 53.488 254.168 51.888 255 50.992C255.896 50.032 257.08 49.552 258.552 49.552C259.064 49.552 259.608 49.648 260.184 49.84C260.76 49.968 261.336 50.032 261.912 50.032C262.296 50.032 262.584 50 262.776 49.936C261.88 50.448 260.728 51.728 259.32 53.776C257.912 55.76 256.472 58.064 255 60.688C253.528 63.312 252.216 65.776 251.064 68.08C252.28 66.608 253.528 65.136 254.808 63.664C256.152 62.192 257.624 60.784 259.224 59.44C260.632 58.224 262.104 56.912 263.64 55.504C265.24 54.032 266.808 52.784 268.344 51.76C269.88 50.736 271.224 50.224 272.376 50.224C272.824 50.224 273.112 50.256 273.24 50.32C274.456 50.832 275.064 51.664 275.064 52.816C275.064 53.2 274.904 53.776 274.584 54.544C273.752 56.72 272.664 58.96 271.32 61.264C270.04 63.504 268.824 65.776 267.672 68.08C268.632 66.928 269.816 65.52 271.224 63.856C272.696 62.192 274.168 60.72 275.64 59.44C277.048 58.16 278.84 56.816 281.016 55.408C283.192 54 285.336 52.784 287.448 51.76C289.56 50.736 291.256 50.224 292.536 50.224C292.984 50.224 293.304 50.256 293.496 50.32C293.496 50.32 293.144 50.96 292.44 52.24C291.736 53.456 290.84 55.088 289.752 57.136C288.728 59.12 287.672 61.264 286.584 63.568C285.496 65.808 284.504 67.984 283.608 70.096C282.776 72.144 282.232 73.872 281.976 75.28C281.784 76.112 281.688 76.88 281.688 77.584C281.688 78.608 281.88 79.28 282.264 79.6C282.648 79.92 283.064 80.08 283.512 80.08C284.792 80.08 286.04 79.536 287.256 78.448C288.536 77.36 289.784 75.984 291 74.32C292.216 72.592 293.304 70.768 294.264 68.848C295.288 66.928 296.152 65.136 296.856 63.472C297.624 63.472 298.008 63.76 298.008 64.336C297.304 66.064 296.408 67.984 295.32 70.096C294.296 72.144 293.112 74.096 291.768 75.952C290.424 77.808 288.952 79.344 287.352 80.56C285.752 81.776 284.024 82.384 282.168 82.384C280.824 82.384 279.544 81.936 278.328 81.04C277.176 80.144 276.6 78.48 276.6 76.048C276.6 73.424 277.208 70.8 278.424 68.176C279.704 65.552 281.016 63.152 282.36 60.976C283 59.888 283.32 59.024 283.32 58.384C283.32 57.616 282.936 57.232 282.168 57.232C281.528 57.232 280.632 57.552 279.48 58.192C278.392 58.832 277.016 59.952 275.352 61.552C274.328 62.512 273.112 63.856 271.704 65.584C270.36 67.248 268.984 69.072 267.576 71.056C266.168 73.04 264.952 74.992 263.928 76.912C262.904 78.832 262.232 80.528 261.912 82C260.952 82 260.184 81.616 259.608 80.848C259.032 80.016 258.744 79.056 258.744 77.968C258.744 77.776 258.744 77.584 258.744 77.392C258.744 77.2 258.776 76.976 258.84 76.72C259.16 74.736 259.672 73.072 260.376 71.728C261.08 70.32 261.88 68.688 262.776 66.832C263.224 66 263.736 65.04 264.312 63.952C264.888 62.8 265.4 61.712 265.848 60.688C266.296 59.6 266.52 58.704 266.52 58C266.52 57.36 266.264 57.04 265.752 57.04C265.176 57.04 264.408 57.328 263.448 57.904C262.552 58.48 261.688 59.152 260.856 59.92C260.024 60.624 259.384 61.168 258.936 61.552C257.336 63.088 255.384 65.296 253.08 68.176C250.84 71.056 248.376 75.152 245.688 80.464C245.304 81.168 244.856 81.616 244.344 81.808C243.832 81.936 243.032 82 241.944 82C241.24 82 240.664 82 240.216 82C239.704 82.064 239.192 82.224 238.68 82.48ZM302.692 82.48C300.068 82.48 298.212 81.68 297.124 80.08C296.036 78.48 295.492 76.528 295.492 74.224C295.492 72.624 295.652 71.12 295.972 69.712C296.356 68.304 296.9 66.704 297.604 64.912H297.412C296.9 64.912 296.644 64.656 296.644 64.144C296.644 63.888 296.9 63.152 297.412 61.936C297.988 60.72 298.692 59.248 299.524 57.52C300.42 55.792 301.316 54.032 302.212 52.24C303.172 50.448 304.036 48.848 304.804 47.44C306.084 45.072 307.492 42.64 309.028 40.144C310.564 37.584 312.068 35.152 313.54 32.848C315.076 30.544 316.356 28.656 317.38 27.184C319.684 23.984 321.828 22.384 323.812 22.384H324.292C324.868 22.384 325.508 22.48 326.212 22.672C326.98 22.864 327.684 22.896 328.324 22.768C327.364 23.792 325.892 25.648 323.908 28.336C321.988 30.96 319.876 33.968 317.572 37.36C316.612 38.768 315.396 40.656 313.924 43.024C312.516 45.392 311.012 48.048 309.412 50.992C307.812 53.936 306.308 56.944 304.9 60.016C303.556 63.024 302.436 65.968 301.54 68.848C300.644 71.664 300.196 74.192 300.196 76.432C300.196 77.904 300.452 78.928 300.964 79.504C301.476 80.08 302.116 80.368 302.884 80.368C303.844 80.368 304.964 79.824 306.244 78.736C307.588 77.584 308.932 76.112 310.276 74.32C311.684 72.464 312.964 70.448 314.116 68.272C315.268 66.032 316.196 63.792 316.9 61.552C317.668 59.248 318.052 57.136 318.052 55.216C318.052 53.36 317.7 52.016 316.996 51.184C316.356 50.352 315.492 49.936 314.404 49.936C313.956 49.936 313.508 50.064 313.06 50.32C312.612 50.512 312.228 50.608 311.908 50.608C311.588 50.608 311.428 50.448 311.428 50.128C311.428 49.808 311.748 49.456 312.388 49.072C313.092 48.688 314.116 48.496 315.46 48.496C316.676 48.496 317.892 48.816 319.108 49.456C320.388 50.096 321.444 51.152 322.276 52.624C323.108 54.032 323.524 55.888 323.524 58.192C323.524 60.944 322.884 63.76 321.604 66.64C320.324 69.456 318.66 72.08 316.612 74.512C314.564 76.88 312.292 78.8 309.796 80.272C307.364 81.744 304.996 82.48 302.692 82.48ZM331.026 82C330.322 82 329.458 81.84 328.434 81.52C327.474 81.2 326.61 80.624 325.842 79.792C325.138 78.896 324.786 77.584 324.786 75.856C324.786 74.192 325.33 72.272 326.418 70.096C327.506 67.92 328.466 66 329.298 64.336C328.594 64.336 328.242 64.048 328.242 63.472C328.306 63.28 328.594 62.672 329.106 61.648C329.618 60.624 330.226 59.408 330.93 58C331.634 56.592 332.306 55.248 332.946 53.968C333.65 52.624 334.194 51.6 334.578 50.896C335.346 49.488 336.562 48.784 338.226 48.784H344.178C343.09 49.616 342.098 50.544 341.202 51.568C340.37 52.528 339.314 54.32 338.034 56.944C338.034 56.944 337.81 57.392 337.362 58.288C336.914 59.184 336.338 60.336 335.634 61.744C334.994 63.088 334.322 64.464 333.618 65.872C332.978 67.28 332.434 68.464 331.986 69.424C331.154 71.216 330.61 72.656 330.354 73.744C330.098 74.768 329.97 75.728 329.97 76.624C329.97 78.736 330.674 79.792 332.082 79.792C333.618 79.792 335.474 78.544 337.65 76.048C339.442 73.936 341.202 71.408 342.93 68.464C344.658 65.52 346.29 62.48 347.826 59.344C349.426 56.208 350.834 53.392 352.05 50.896C352.754 49.488 354.002 48.784 355.794 48.784H361.074C359.666 49.936 358.226 51.664 356.754 53.968C355.346 56.272 353.778 59.216 352.05 62.8C351.602 63.76 351.026 64.976 350.322 66.448C349.618 67.92 348.978 69.488 348.402 71.152C347.89 72.816 347.634 74.48 347.634 76.144C347.634 78.384 348.434 79.504 350.034 79.504C352.21 79.504 354.322 78 356.37 74.992C358.418 71.984 360.434 68.144 362.418 63.472C362.93 63.472 363.218 63.504 363.282 63.568C363.41 63.632 363.506 63.888 363.57 64.336C362.866 66.064 362.002 67.952 360.978 70C360.018 71.984 358.898 73.904 357.618 75.76C356.402 77.616 355.026 79.12 353.49 80.272C352.018 81.424 350.386 82 348.594 82C346.994 82 345.682 81.424 344.658 80.272C343.634 79.056 343.122 77.36 343.122 75.184C343.122 73.456 343.442 71.6 344.082 69.616C342.994 71.536 341.746 73.456 340.338 75.376C338.93 77.296 337.426 78.896 335.826 80.176C334.226 81.392 332.626 82 331.026 82ZM382.333 31.312C381.501 32.528 380.573 34.064 379.549 35.92C378.525 37.776 377.565 39.568 376.669 41.296C375.837 43.024 375.197 44.336 374.749 45.232H383.581C383.581 45.488 383.453 45.904 383.197 46.48C383.005 47.056 382.589 47.472 381.949 47.728H373.597C372.829 49.456 371.933 51.536 370.909 53.968C369.949 56.4 368.989 58.928 368.029 61.552C367.133 64.176 366.365 66.64 365.725 68.944C365.149 71.184 364.861 73.008 364.861 74.416C364.861 76.336 365.117 77.776 365.629 78.736C366.141 79.632 367.069 80.08 368.413 80.08C370.141 80.08 371.805 79.248 373.405 77.584C375.005 75.856 376.509 73.712 377.917 71.152C379.389 68.592 380.669 66.032 381.757 63.472C382.525 63.472 382.909 63.76 382.909 64.336C382.205 66.064 381.341 67.952 380.317 70C379.293 72.048 378.109 74.032 376.765 75.952C375.485 77.808 374.013 79.344 372.349 80.56C370.749 81.712 368.957 82.288 366.973 82.288C364.285 82.288 362.461 81.552 361.501 80.08C360.541 78.544 360.061 76.592 360.061 74.224C360.061 72.496 360.381 70.416 361.021 67.984C361.661 65.488 362.429 62.928 363.325 60.304C364.285 57.68 365.213 55.248 366.109 53.008C367.005 50.704 367.709 48.944 368.221 47.728H362.077C362.077 47.216 362.301 46.672 362.749 46.096C363.197 45.52 363.677 45.232 364.189 45.232H369.277C369.789 44.208 370.365 42.928 371.005 41.392C371.709 39.856 372.637 38.16 373.789 36.304C374.749 34.768 375.965 33.552 377.437 32.656C378.973 31.76 380.605 31.312 382.333 31.312ZM402.605 82.288C401.133 82.288 399.821 81.872 398.669 81.04C397.581 80.208 397.037 78.512 397.037 75.952C397.037 74.864 397.101 73.84 397.229 72.88C397.421 71.92 397.645 70.896 397.901 69.808C397.325 70.768 396.525 71.952 395.501 73.36C394.477 74.768 393.325 76.144 392.045 77.488C390.829 78.832 389.549 79.952 388.205 80.848C386.925 81.744 385.709 82.192 384.557 82.192C382.893 82.192 381.549 81.456 380.525 79.984C379.501 78.448 378.989 76.464 378.989 74.032C378.989 71.408 379.597 68.592 380.813 65.584C382.029 62.576 383.693 59.696 385.805 56.944C387.917 54.192 390.349 51.952 393.101 50.224C395.853 48.496 398.733 47.632 401.741 47.632C403.213 47.632 404.621 47.888 405.965 48.4C407.309 48.848 408.493 49.616 409.517 50.704C409.965 51.152 410.189 51.664 410.189 52.24C410.189 52.624 410.029 52.944 409.709 53.2C409.389 53.456 408.973 53.52 408.461 53.392C407.757 51.152 406.253 50.032 403.949 50.032C402.861 50.032 401.613 50.384 400.205 51.088C398.477 51.984 396.621 53.424 394.637 55.408C392.717 57.328 390.893 59.536 389.165 62.032C387.501 64.464 386.125 66.928 385.037 69.424C383.949 71.92 383.405 74.192 383.405 76.24C383.405 78.352 384.205 79.408 385.805 79.408C387.213 79.408 388.653 78.736 390.125 77.392C391.661 76.048 393.101 74.384 394.445 72.4C395.853 70.352 397.133 68.336 398.285 66.352C399.437 64.368 400.333 62.768 400.973 61.552C401.933 59.824 402.829 58.384 403.661 57.232C404.493 56.08 405.677 55.504 407.213 55.504C407.917 55.504 408.621 55.6 409.325 55.792C410.029 55.984 410.765 56.016 411.533 55.888C409.613 57.808 407.917 60.08 406.445 62.704C405.037 65.328 403.949 67.92 403.181 70.48C402.413 72.976 402.029 75.088 402.029 76.816C402.029 78.736 402.669 79.696 403.949 79.696C404.973 79.696 406.061 79.12 407.213 77.968C408.429 76.816 409.581 75.376 410.669 73.648C411.821 71.856 412.877 70.064 413.837 68.272C414.797 66.416 415.565 64.816 416.141 63.472C416.461 63.472 416.717 63.504 416.909 63.568C417.165 63.632 417.293 63.888 417.293 64.336C417.229 64.592 417.101 64.88 416.909 65.2C416.781 65.456 416.557 65.936 416.237 66.64C415.725 67.664 415.021 69.04 414.125 70.768C413.229 72.496 412.173 74.256 410.957 76.048C409.741 77.776 408.429 79.248 407.021 80.464C405.613 81.68 404.141 82.288 402.605 82.288ZM406.964 82.768C409.268 78.096 411.476 73.488 413.588 68.944C415.7 64.336 417.876 59.952 420.116 55.792C421.396 53.488 422.484 51.888 423.38 50.992C424.276 50.032 425.46 49.552 426.932 49.552C427.444 49.552 427.988 49.648 428.564 49.84C429.14 49.968 429.716 50.032 430.292 50.032C430.676 50.032 430.964 50 431.156 49.936C430.26 50.448 429.076 51.728 427.604 53.776C426.196 55.76 424.756 58.064 423.284 60.688C421.812 63.312 420.5 65.776 419.348 68.08C420.564 66.608 421.844 65.136 423.188 63.664C424.532 62.192 426.004 60.784 427.604 59.44C429.14 58.096 430.964 56.72 433.076 55.312C435.252 53.84 437.364 52.624 439.412 51.664C441.46 50.704 443.092 50.224 444.308 50.224C444.756 50.224 445.076 50.256 445.268 50.32C445.268 50.32 444.916 50.96 444.212 52.24C443.508 53.456 442.612 55.088 441.524 57.136C440.5 59.12 439.444 61.264 438.356 63.568C437.268 65.808 436.276 67.984 435.38 70.096C434.548 72.144 434.004 73.872 433.748 75.28C433.556 76.112 433.46 76.88 433.46 77.584C433.46 78.608 433.652 79.28 434.036 79.6C434.42 79.92 434.836 80.08 435.284 80.08C436.5 80.08 437.748 79.536 439.028 78.448C440.308 77.36 441.524 75.984 442.676 74.32C443.892 72.592 445.012 70.768 446.036 68.848C447.06 66.928 447.924 65.136 448.628 63.472C449.396 63.472 449.78 63.76 449.78 64.336C449.076 66.064 448.18 67.984 447.092 70.096C446.068 72.144 444.884 74.096 443.54 75.952C442.26 77.808 440.82 79.344 439.22 80.56C437.62 81.776 435.892 82.384 434.036 82.384C432.756 82.384 431.412 81.936 430.004 81.04C428.66 80.144 427.988 78.48 427.988 76.048C427.988 75.344 428.052 74.608 428.18 73.84C428.308 73.008 428.532 72.112 428.852 71.152C429.364 69.872 429.972 68.496 430.676 67.024C431.38 65.552 432.532 63.536 434.132 60.976C434.58 60.272 434.836 59.728 434.9 59.344C435.028 58.96 435.092 58.64 435.092 58.384C435.092 57.616 434.74 57.232 434.036 57.232C433.46 57.232 432.596 57.552 431.444 58.192C430.356 58.832 428.98 59.952 427.316 61.552C425.716 63.088 423.796 65.264 421.556 68.08C419.38 70.896 416.852 75.056 413.972 80.56C413.524 81.392 413.012 81.84 412.436 81.904C411.924 81.968 411.188 82.032 410.228 82.096C409.588 82.16 408.98 82.192 408.404 82.192C407.828 82.256 407.348 82.448 406.964 82.768Z" fill="black"/>
<line x1="462" y1="59.5" x2="562" y2="59.5" stroke="black"/>
</svg>
