<svg width="420" height="80" viewBox="0 0 420 80" fill="none" xmlns="http://www.w3.org/2000/svg">
<line y1="39.5" x2="100" y2="39.5" stroke="#00A3CC"/>
<path d="M144.27 58.48C148.494 58.48 152.355 57.5627 155.854 55.728C159.352 53.936 162.51 51.4827 165.326 48.368C168.184 45.2107 170.68 41.6907 172.814 37.808C174.179 35.3333 175.459 32.816 176.654 30.256C177.848 27.696 178.958 25.2853 179.982 23.024C181.006 20.72 181.923 18.736 182.734 17.072C183.544 15.408 184.227 14.2133 184.782 13.488C182.435 12.6347 179.726 11.888 176.654 11.248C173.624 10.5653 169.827 10.096 165.262 9.84C162.062 9.66933 159.203 10.032 156.686 10.928C154.211 11.824 152.099 13.04 150.35 14.576C148.643 16.0693 147.32 17.712 146.382 19.504C145.486 21.296 145.038 23.024 145.038 24.688C145.038 26.2667 145.4 27.568 146.126 28.592C146.851 29.5733 147.79 30.2987 148.942 30.768C150.136 31.2373 151.352 31.472 152.59 31.472C154.126 31.472 155.47 31.152 156.622 30.512C157.774 29.872 158.734 29.104 159.502 28.208C160.312 27.2693 160.91 26.3947 161.294 25.584C161.72 24.7307 161.934 24.112 161.934 23.728V23.664C162.147 23.408 162.36 23.28 162.574 23.28C163 23.28 163.214 23.5787 163.214 24.176C163 26.0107 162.339 27.6107 161.23 28.976C160.163 30.3413 158.862 31.3867 157.326 32.112C155.79 32.8373 154.168 33.2 152.462 33.2C150.712 33.2 149.027 32.7733 147.406 31.92C145.784 31.0667 144.462 29.8293 143.438 28.208C142.414 26.5867 141.902 24.624 141.902 22.32C141.902 20.4427 142.307 18.5867 143.118 16.752C143.971 14.8747 145.23 13.168 146.894 11.632C148.6 10.0533 150.755 8.79466 153.358 7.856C155.96 6.91733 159.032 6.448 162.574 6.448C165.731 6.448 168.59 6.74666 171.15 7.344C173.752 7.94133 176.227 8.688 178.574 9.584C180.963 10.4373 183.374 11.2907 185.806 12.144C186.488 11.2907 187.278 10.5013 188.174 9.776C189.112 9.008 190.051 8.624 190.99 8.624C191.843 8.624 192.27 8.88 192.27 9.392C192.27 9.904 191.971 10.16 191.374 10.16C190.734 10.16 190.072 10.4373 189.39 10.992C188.707 11.504 188.11 12.08 187.598 12.72C190.627 13.7013 193.507 14.5547 196.238 15.28C199.011 15.9627 201.4 16.304 203.406 16.304C205.326 16.304 206.691 16.1547 207.502 15.856C208.355 15.5573 208.782 15.0667 208.782 14.384C208.782 14.128 208.824 13.9147 208.91 13.744C209.038 13.5307 209.251 13.424 209.55 13.424C209.763 13.424 209.912 13.616 209.998 14C210.083 14.3413 210.126 14.6187 210.126 14.832C210.126 15.856 209.571 16.688 208.462 17.328C207.395 17.968 206.051 18.288 204.43 18.288C203.022 18.288 201.315 18.096 199.31 17.712C197.347 17.328 195.256 16.8373 193.038 16.24C190.819 15.6 188.664 14.896 186.574 14.128C184.995 16.688 183.651 19.312 182.542 22C181.475 24.6453 180.472 27.312 179.534 30C178.638 32.688 177.678 35.3333 176.654 37.936C174.563 43.1413 172.024 47.3867 169.038 50.672C166.051 53.9147 162.51 56.2827 158.414 57.776C154.36 59.312 149.646 60.08 144.27 60.08C139.363 60.08 135.182 59.3547 131.726 57.904C128.27 56.4533 125.624 54.4907 123.79 52.016C121.998 49.4987 121.102 46.704 121.102 43.632C121.102 40.9867 121.528 38.576 122.382 36.4C123.278 34.224 124.494 32.4107 126.03 30.96C127.608 29.5093 129.4 28.5493 131.406 28.08C131.704 28.08 131.854 28.1867 131.854 28.4C131.854 28.6133 131.747 28.784 131.534 28.912C129.315 30.2347 127.608 32.112 126.414 34.544C125.262 36.9333 124.686 39.4507 124.686 42.096C124.686 45.5947 125.56 48.56 127.31 50.992C129.102 53.424 131.47 55.28 134.414 56.56C137.4 57.84 140.686 58.48 144.27 58.48ZM186.072 54.256C184.493 54.256 183.064 53.744 181.784 52.72C180.546 51.696 179.928 50.1387 179.928 48.048C179.928 46.128 180.397 44.08 181.336 41.904C182.274 39.6853 183.469 37.744 184.92 36.08C186.157 34.6293 187.544 33.4347 189.08 32.496C190.616 31.5573 192.066 31.088 193.432 31.088C194.37 31.088 195.181 31.344 195.864 31.856C196.589 32.4107 196.952 33.2 196.952 34.224C196.952 35.2907 196.546 36.464 195.736 37.744C194.925 39.024 193.773 40.2187 192.28 41.328C191.64 41.7973 190.829 42.2453 189.848 42.672C188.866 43.0987 187.885 43.4613 186.904 43.76C185.922 44.016 185.112 44.144 184.472 44.144C184.258 44.656 184.045 45.3387 183.832 46.192C183.661 47.0453 183.576 47.92 183.576 48.816C183.576 49.8827 183.789 50.8427 184.216 51.696C184.642 52.5493 185.432 52.976 186.584 52.976C188.077 52.976 189.613 52.464 191.192 51.44C192.77 50.416 194.264 49.1573 195.672 47.664C197.122 46.128 198.317 44.6133 199.256 43.12C199.768 42.0107 200.301 40.9227 200.856 39.856C201.41 38.7467 201.965 37.6587 202.52 36.592C203.373 35.056 204.098 33.9893 204.696 33.392C205.293 32.752 206.082 32.432 207.064 32.432C207.405 32.432 207.768 32.496 208.152 32.624C208.536 32.7093 208.92 32.752 209.304 32.752C209.56 32.752 209.752 32.7307 209.88 32.688C209.282 33.0293 208.493 33.8827 207.512 35.248C206.573 36.5707 205.613 38.1067 204.632 39.856C203.65 41.6053 202.776 43.248 202.008 44.784C202.818 43.8027 203.672 42.8213 204.568 41.84C205.464 40.8587 206.445 39.92 207.512 39.024C208.536 38.128 209.752 37.2107 211.16 36.272C212.61 35.2907 214.018 34.48 215.384 33.84C216.749 33.2 217.837 32.88 218.648 32.88C218.946 32.88 219.16 32.9013 219.288 32.944C219.288 32.944 219.053 33.3707 218.584 34.224C218.114 35.0347 217.517 36.1227 216.792 37.488C216.109 38.8107 215.405 40.24 214.68 41.776C213.954 43.2693 213.293 44.72 212.696 46.128C212.141 47.4933 211.778 48.6453 211.608 49.584C211.48 50.1387 211.416 50.6507 211.416 51.12C211.416 51.8027 211.544 52.2507 211.8 52.464C212.056 52.6773 212.333 52.784 212.632 52.784C213.442 52.784 214.274 52.4213 215.128 51.696C215.981 50.9707 216.792 50.032 217.56 48.88C218.37 47.728 219.117 46.512 219.8 45.232C220.482 43.952 221.058 42.7573 221.528 41.648C222.04 41.648 222.296 41.84 222.296 42.224C221.826 43.376 221.229 44.656 220.504 46.064C219.821 47.4293 219.032 48.752 218.136 50.032C217.282 51.2693 216.322 52.2933 215.256 53.104C214.189 53.9147 213.037 54.32 211.8 54.32C210.946 54.32 210.05 54.0213 209.112 53.424C208.216 52.8267 207.768 51.7173 207.768 50.096C207.768 49.6267 207.81 49.136 207.896 48.624C207.981 48.0693 208.13 47.472 208.344 46.832C208.685 45.9787 209.09 45.0613 209.56 44.08C210.029 43.0987 210.797 41.7547 211.864 40.048C212.162 39.5787 212.333 39.216 212.376 38.96C212.461 38.704 212.504 38.4907 212.504 38.32C212.504 37.808 212.269 37.552 211.8 37.552C211.416 37.552 210.84 37.7653 210.072 38.192C209.346 38.6187 208.429 39.3653 207.32 40.432C206.253 41.456 204.973 42.9067 203.48 44.784C202.029 46.6613 200.344 49.4347 198.424 53.104C198.125 53.6587 197.784 53.9573 197.4 54C197.058 54.0427 196.568 54.0853 195.928 54.128C195.501 54.1707 195.096 54.2133 194.712 54.256C194.328 54.2987 194.008 54.4053 193.752 54.576C194.264 53.552 194.754 52.528 195.224 51.504C195.736 50.48 196.226 49.4773 196.696 48.496C195.245 50.0747 193.602 51.44 191.768 52.592C189.933 53.7013 188.034 54.256 186.072 54.256ZM184.92 42.992C185.517 42.992 186.52 42.7787 187.928 42.352C189.336 41.8827 190.616 41.1573 191.768 40.176C192.877 39.1947 193.73 38.128 194.328 36.976C194.925 35.7813 195.224 34.7787 195.224 33.968C195.224 33.0293 194.882 32.56 194.2 32.56C193.688 32.56 192.984 32.9013 192.088 33.584C191.192 34.2667 190.082 35.4187 188.76 37.04C187.949 38.064 187.181 39.1733 186.456 40.368C185.73 41.5627 185.218 42.4373 184.92 42.992ZM234.774 20.208C234.219 21.0187 233.601 22.0427 232.918 23.28C232.235 24.5173 231.595 25.712 230.998 26.864C230.443 28.016 230.017 28.8907 229.718 29.488H235.606C235.606 29.6587 235.521 29.936 235.35 30.32C235.222 30.704 234.945 30.9813 234.518 31.152H228.95C228.438 32.304 227.841 33.6907 227.158 35.312C226.518 36.9333 225.878 38.6187 225.238 40.368C224.641 42.1173 224.129 43.76 223.702 45.296C223.318 46.7893 223.126 48.0053 223.126 48.944C223.126 50.224 223.297 51.184 223.638 51.824C223.979 52.4213 224.598 52.72 225.494 52.72C226.646 52.72 227.755 52.1653 228.822 51.056C229.889 49.904 230.891 48.4747 231.83 46.768C232.811 45.0613 233.665 43.3547 234.39 41.648C234.902 41.648 235.158 41.84 235.158 42.224C234.689 43.376 234.113 44.6347 233.43 46C232.747 47.3653 231.958 48.688 231.062 49.968C230.209 51.2053 229.227 52.2293 228.118 53.04C227.051 53.808 225.857 54.192 224.534 54.192C222.742 54.192 221.526 53.7013 220.886 52.72C220.246 51.696 219.926 50.3947 219.926 48.816C219.926 47.664 220.139 46.2773 220.566 44.656C220.993 42.992 221.505 41.2853 222.102 39.536C222.742 37.7867 223.361 36.1653 223.958 34.672C224.555 33.136 225.025 31.9627 225.366 31.152H221.27C221.27 30.8107 221.419 30.448 221.718 30.064C222.017 29.68 222.337 29.488 222.678 29.488H226.07C226.411 28.8053 226.795 27.952 227.222 26.928C227.691 25.904 228.31 24.7733 229.078 23.536C229.718 22.512 230.529 21.7013 231.51 21.104C232.534 20.5067 233.622 20.208 234.774 20.208ZM248.289 54.192C247.308 54.192 246.433 53.9147 245.665 53.36C244.94 52.8053 244.577 51.6747 244.577 49.968C244.577 49.2427 244.62 48.56 244.705 47.92C244.833 47.28 244.982 46.5973 245.153 45.872C244.769 46.512 244.236 47.3013 243.553 48.24C242.87 49.1787 242.102 50.096 241.249 50.992C240.438 51.888 239.585 52.6347 238.689 53.232C237.836 53.8293 237.025 54.128 236.257 54.128C235.148 54.128 234.252 53.6373 233.569 52.656C232.886 51.632 232.545 50.3093 232.545 48.688C232.545 46.9387 232.95 45.0613 233.761 43.056C234.572 41.0507 235.681 39.1307 237.089 37.296C238.497 35.4613 240.118 33.968 241.953 32.816C243.788 31.664 245.708 31.088 247.713 31.088C248.694 31.088 249.633 31.2587 250.529 31.6C251.425 31.8987 252.214 32.4107 252.897 33.136C253.196 33.4347 253.345 33.776 253.345 34.16C253.345 34.416 253.238 34.6293 253.025 34.8C252.812 34.9707 252.534 35.0133 252.193 34.928C251.724 33.4347 250.721 32.688 249.185 32.688C248.46 32.688 247.628 32.9227 246.689 33.392C245.537 33.9893 244.3 34.9493 242.977 36.272C241.697 37.552 240.481 39.024 239.329 40.688C238.22 42.3093 237.302 43.952 236.577 45.616C235.852 47.28 235.489 48.7947 235.489 50.16C235.489 51.568 236.022 52.272 237.089 52.272C238.028 52.272 238.988 51.824 239.969 50.928C240.993 50.032 241.953 48.9227 242.849 47.6C243.788 46.2347 244.641 44.8907 245.409 43.568C246.177 42.2453 246.774 41.1787 247.201 40.368C247.841 39.216 248.438 38.256 248.993 37.488C249.548 36.72 250.337 36.336 251.361 36.336C251.83 36.336 252.3 36.4 252.769 36.528C253.238 36.656 253.729 36.6773 254.241 36.592C252.961 37.872 251.83 39.3867 250.849 41.136C249.91 42.8853 249.185 44.6133 248.673 46.32C248.161 47.984 247.905 49.392 247.905 50.544C247.905 51.824 248.332 52.464 249.185 52.464C249.868 52.464 250.593 52.08 251.361 51.312C252.172 50.544 252.94 49.584 253.665 48.432C254.433 47.2373 255.137 46.0427 255.777 44.848C256.417 43.6107 256.929 42.544 257.313 41.648C257.526 41.648 257.697 41.6693 257.825 41.712C257.996 41.7547 258.081 41.9253 258.081 42.224C258.038 42.3947 257.953 42.5867 257.825 42.8C257.74 42.9707 257.59 43.2907 257.377 43.76C257.036 44.4427 256.566 45.36 255.969 46.512C255.372 47.664 254.668 48.8373 253.857 50.032C253.046 51.184 252.172 52.1653 251.233 52.976C250.294 53.7867 249.313 54.192 248.289 54.192ZM251.194 54.512C252.73 51.3973 254.203 48.3253 255.611 45.296C257.019 42.224 258.469 39.3013 259.963 36.528C260.816 34.992 261.541 33.9253 262.139 33.328C262.736 32.688 263.525 32.368 264.507 32.368C264.848 32.368 265.211 32.432 265.595 32.56C265.979 32.6453 266.363 32.688 266.747 32.688C267.003 32.688 267.195 32.6667 267.323 32.624C266.725 32.9653 265.936 33.8187 264.955 35.184C264.016 36.5067 263.056 38.0427 262.075 39.792C261.093 41.5413 260.219 43.184 259.451 44.72C260.261 43.7387 261.115 42.7573 262.01 41.776C262.907 40.7947 263.888 39.856 264.955 38.96C265.979 38.064 267.195 37.1467 268.603 36.208C270.053 35.2267 271.461 34.416 272.827 33.776C274.192 33.136 275.28 32.816 276.091 32.816C276.389 32.816 276.603 32.8373 276.731 32.88C276.731 32.88 276.496 33.3067 276.027 34.16C275.557 34.9707 274.96 36.0587 274.235 37.424C273.552 38.7467 272.848 40.176 272.123 41.712C271.397 43.2053 270.736 44.656 270.139 46.064C269.584 47.4293 269.221 48.5813 269.051 49.52C268.923 50.0747 268.859 50.5867 268.859 51.056C268.859 51.7387 268.987 52.1867 269.243 52.4C269.499 52.6133 269.776 52.72 270.075 52.72C270.885 52.72 271.717 52.3573 272.571 51.632C273.424 50.9067 274.235 49.9893 275.003 48.88C275.813 47.728 276.56 46.512 277.243 45.232C277.925 43.952 278.501 42.7573 278.971 41.648C279.483 41.648 279.739 41.84 279.739 42.224C279.269 43.376 278.672 44.656 277.947 46.064C277.264 47.4293 276.475 48.7307 275.579 49.968C274.725 51.2053 273.765 52.2293 272.699 53.04C271.632 53.8507 270.48 54.256 269.243 54.256C268.389 54.256 267.493 53.9573 266.555 53.36C265.659 52.7627 265.211 51.6533 265.211 50.032C265.211 49.5627 265.253 49.072 265.339 48.56C265.424 48.0053 265.573 47.408 265.787 46.768C266.128 45.9147 266.533 44.9973 267.003 44.016C267.472 43.0347 268.24 41.6907 269.307 39.984C269.605 39.5147 269.776 39.152 269.819 38.896C269.904 38.64 269.947 38.4267 269.947 38.256C269.947 37.744 269.712 37.488 269.243 37.488C268.859 37.488 268.283 37.7013 267.515 38.128C266.789 38.5547 265.872 39.3013 264.763 40.368C263.696 41.392 262.416 42.8427 260.923 44.72C259.472 46.5973 257.787 49.3707 255.867 53.04C255.568 53.5947 255.227 53.8933 254.843 53.936C254.501 53.9787 254.011 54.0213 253.37 54.064C252.944 54.1067 252.538 54.128 252.154 54.128C251.77 54.1707 251.45 54.2987 251.194 54.512ZM274.547 74.416C270.494 74.416 268.467 72.752 268.467 69.424C268.467 67.8453 269.022 66.4373 270.131 65.2C271.241 63.9627 272.563 62.896 274.099 62C276.233 60.72 278.323 59.696 280.372 58.928C282.42 58.16 284.382 57.4773 286.26 56.88C288.137 56.3253 289.886 55.7067 291.508 55.024C291.892 53.9147 292.212 52.6987 292.468 51.376C292.724 50.0107 292.916 48.688 293.044 47.408C293.172 46.128 293.236 45.0187 293.236 44.08C293.236 43.0987 293.172 42.4587 293.044 42.16C292.574 43.056 291.934 44.1653 291.124 45.488C290.356 46.8107 289.438 48.1333 288.372 49.456C287.348 50.736 286.26 51.8027 285.108 52.656C283.956 53.5093 282.782 53.936 281.588 53.936C281.161 53.936 280.756 53.872 280.372 53.744C279.177 53.232 278.302 52.5067 277.748 51.568C277.236 50.6293 276.98 49.5627 276.98 48.368C276.98 46.448 277.534 44.3787 278.644 42.16C279.753 39.9413 281.076 37.9147 282.612 36.08C283.849 34.5867 285.3 33.392 286.964 32.496C288.628 31.6 290.313 31.152 292.02 31.152C293.982 31.152 295.817 31.8133 297.524 33.136C298.164 33.648 298.484 34.2027 298.484 34.8C298.484 35.44 298.228 35.76 297.716 35.76C297.289 35.76 296.99 35.4827 296.82 34.928C296.222 33.3493 295.262 32.56 293.94 32.56C292.873 32.56 291.657 33.0293 290.292 33.968C288.926 34.864 287.646 35.9947 286.452 37.36C285.428 38.512 284.425 39.8347 283.444 41.328C282.505 42.8213 281.716 44.2933 281.076 45.744C280.478 47.1947 280.18 48.4533 280.18 49.52C280.18 50.2453 280.35 50.864 280.692 51.376C281.033 51.888 281.566 52.144 282.292 52.144C283.273 52.144 284.297 51.6747 285.364 50.736C286.473 49.7973 287.518 48.6453 288.5 47.28C289.524 45.9147 290.398 44.528 291.124 43.12C291.892 41.712 292.425 40.5387 292.724 39.6C293.022 38.6187 293.428 38.0213 293.94 37.808C294.452 37.552 294.964 37.424 295.476 37.424C295.988 37.424 296.414 37.296 296.756 37.04C296.926 37.9787 297.033 38.9387 297.076 39.92C297.161 40.8587 297.204 41.8187 297.204 42.8C297.204 44.7627 297.076 46.5547 296.82 48.176C296.606 49.7973 296.222 51.5253 295.668 53.36C297.204 52.4213 298.526 51.248 299.636 49.84C300.788 48.3893 301.726 46.9387 302.452 45.488C303.22 43.9947 303.838 42.7147 304.308 41.648C304.82 41.648 305.076 41.84 305.076 42.224C304.521 43.376 303.817 44.784 302.964 46.448C302.153 48.112 301.108 49.7333 299.828 51.312C298.59 52.848 297.033 54.0427 295.156 54.896C294.43 56.944 293.385 59.0987 292.02 61.36C290.697 63.6213 289.118 65.7333 287.284 67.696C285.449 69.7013 283.444 71.3227 281.268 72.56C279.092 73.7973 276.852 74.416 274.547 74.416ZM273.011 73.136C273.95 73.136 274.931 72.9227 275.956 72.496C277.022 72.112 278.025 71.6427 278.964 71.088C279.902 70.5333 280.628 70.064 281.14 69.68C282.121 68.912 283.124 67.952 284.148 66.8C285.172 65.648 286.068 64.5387 286.836 63.472C287.561 62.448 288.308 61.36 289.076 60.208C289.844 59.0987 290.462 57.9893 290.932 56.88L288.308 57.712C286.9 58.1387 285.342 58.6507 283.635 59.248C281.972 59.888 280.308 60.592 278.644 61.36C276.98 62.128 275.465 62.96 274.099 63.856C272.905 64.6667 271.923 65.7333 271.155 67.056C270.345 68.3787 269.939 69.5307 269.939 70.512C269.939 71.2373 270.195 71.856 270.707 72.368C271.177 72.88 271.945 73.136 273.011 73.136Z" fill="#00A3CC"/>
<line x1="320" y1="39.5" x2="420" y2="39.5" stroke="#00A3CC"/>
</svg>
