<svg width="540" height="553" viewBox="0 0 540 553" fill="none" xmlns="http://www.w3.org/2000/svg">
<path d="M169.905 400.516L155.199 416.165L152.039 413.196L166.745 397.546L169.905 400.516ZM163.935 394.672L147.736 408.77L144.889 405.499L152.083 399.239L139.139 398.891L135.312 394.493L146.929 395.102L151.222 380.064L154.905 384.296L151.178 395.365L156.194 395.661L161.089 391.401L163.935 394.672ZM139.678 362.484L142.262 366.43L139.207 370.67L143.909 377.852L148.961 376.664L151.48 380.512L128.932 385.276L126.42 381.439L139.678 362.484ZM136.942 373.816L131.896 380.657L140.151 378.719L136.942 373.816ZM137.85 358.314L121.872 366.254L124.708 371.96L121.454 373.577L113.86 358.294L117.114 356.678L119.943 362.371L135.92 354.431L137.85 358.314ZM126.814 330.264L128.37 334.716L124.385 338.096L127.218 346.199L132.407 346.262L133.925 350.604L110.894 349.796L109.38 345.468L126.814 330.264ZM121.429 340.604L114.883 346.027L123.362 346.135L121.429 340.604ZM126.446 328.587L105.379 332.749L104.561 328.61L116.926 317.208L102.858 319.988L102.077 316.036L123.144 311.874L123.987 316.142L111.927 327.349L125.665 324.635L126.446 328.587ZM121.781 298.549L100.307 298.437L100.343 291.479C100.357 288.842 100.473 287.124 100.692 286.325C101.021 285.096 101.729 284.069 102.818 283.245C103.896 282.42 105.29 282.013 106.999 282.022C108.317 282.028 109.424 282.274 110.32 282.757C111.216 283.24 111.921 283.854 112.435 284.599C112.939 285.334 113.272 286.083 113.434 286.845C113.633 287.882 113.728 289.381 113.718 291.344L113.703 294.171L121.804 294.213L121.781 298.549ZM103.962 294.12L110.056 294.152L110.068 291.779C110.077 290.07 109.971 288.927 109.749 288.35C109.528 287.772 109.178 287.321 108.702 286.996C108.225 286.662 107.669 286.493 107.034 286.49C106.253 286.486 105.607 286.712 105.097 287.168C104.587 287.624 104.266 288.204 104.136 288.906C104.035 289.423 103.981 290.463 103.973 292.025L103.962 294.12ZM122.077 279.092L100.805 276.149L102.987 260.376L106.585 260.874L104.998 272.352L109.713 273.004L111.191 262.325L114.775 262.82L113.297 273.5L119.087 274.301L120.731 262.417L124.315 262.913L122.077 279.092ZM124.97 259.678L104.414 254.1L105.55 249.916L122.614 254.546L125.437 244.141L128.929 245.089L124.97 259.678ZM137.27 224.803L135.447 229.153L130.224 228.998L126.907 236.915L130.721 240.435L128.944 244.677L112.369 228.665L114.141 224.437L137.27 224.803ZM126.349 228.884L117.856 228.534L124.085 234.288L126.349 228.884ZM123.409 205.756L125.565 202.011L137.345 208.794C138.886 209.681 139.992 210.499 140.666 211.247C141.54 212.235 142.031 213.397 142.141 214.733C142.242 216.065 141.841 217.513 140.94 219.079C139.882 220.915 138.556 222.034 136.962 222.434C135.36 222.83 133.561 222.459 131.568 221.323L133.201 217.547C134.292 218.119 135.135 218.396 135.731 218.379C136.634 218.357 137.324 217.932 137.801 217.103C138.284 216.265 138.388 215.536 138.114 214.916C137.831 214.291 136.937 213.545 135.43 212.678L123.409 205.756ZM158.098 193.77L155.252 197.532L150.231 196.084L145.052 202.93L147.873 207.286L145.098 210.955L133.018 191.329L135.784 187.672L158.098 193.77ZM146.506 195.011L138.365 192.564L142.971 199.684L146.506 195.011ZM159.271 192.554L144.136 177.319L150.611 170.887C152.239 169.27 153.558 168.235 154.567 167.782C155.577 167.316 156.651 167.213 157.79 167.472C158.928 167.731 159.945 168.311 160.84 169.212C161.975 170.355 162.579 171.634 162.65 173.05C162.714 174.459 162.174 175.925 161.03 177.447C162.081 177.174 163.051 177.056 163.942 177.094C164.839 177.124 166.244 177.367 168.155 177.822L172.968 178.947L169.289 182.601L163.772 181.496C161.805 181.095 160.525 180.888 159.931 180.872C159.331 180.849 158.812 180.944 158.377 181.157C157.934 181.362 157.359 181.816 156.653 182.518L156.029 183.138L162.347 189.498L159.271 192.554ZM153.613 180.706L155.889 178.445C157.365 176.979 158.224 176.001 158.468 175.512C158.711 175.022 158.785 174.522 158.69 174.011C158.595 173.499 158.32 173.015 157.866 172.558C157.357 172.045 156.809 171.771 156.222 171.734C155.635 171.684 155.051 171.865 154.47 172.277C154.186 172.491 153.42 173.217 152.173 174.455L149.773 176.84L153.613 180.706ZM181.549 172.17L170.031 154.045L175.508 150.564L186.654 160.838L182.049 146.408L187.538 142.92L199.056 161.045L195.656 163.205L186.589 148.938L192.058 165.491L188.535 167.731L175.883 155.742L184.949 170.009L181.549 172.17ZM219.871 151.539L215.552 153.436L211.874 149.725L204.015 153.177L204.354 158.356L200.143 160.207L199.163 137.181L203.36 135.337L219.871 151.539ZM209.144 146.972L203.23 140.866L203.78 149.329L209.144 146.972ZM221.483 151.052L215.707 130.369L219.883 129.202L222.156 137.343L230.339 135.058L228.066 126.917L232.242 125.751L238.018 146.434L233.842 147.6L231.317 138.557L223.134 140.842L225.659 149.886L221.483 151.052ZM260.994 143.005L256.319 143.633L253.811 139.049L245.303 140.192L244.196 145.262L239.638 145.875L245.068 123.478L249.612 122.867L260.994 143.005ZM251.95 135.648L247.956 128.144L246.143 136.428L251.95 135.648ZM261.637 135.983L265.857 135.588C266.106 137.005 266.615 138.047 267.384 138.714C268.163 139.381 269.211 139.717 270.529 139.722C271.926 139.727 272.977 139.438 273.682 138.855C274.397 138.262 274.756 137.57 274.759 136.779C274.761 136.271 274.611 135.841 274.31 135.488C274.018 135.126 273.502 134.811 272.761 134.545C272.253 134.367 271.097 134.05 269.292 133.594C266.97 133.01 265.342 132.295 264.408 131.452C263.094 130.266 262.44 128.823 262.446 127.124C262.45 126.03 262.762 125.01 263.38 124.065C264.009 123.111 264.905 122.387 266.069 121.893C267.243 121.399 268.655 121.155 270.305 121.161C273.001 121.171 275.025 121.77 276.378 122.956C277.741 124.143 278.453 125.723 278.514 127.696L274.177 127.87C273.996 126.766 273.598 125.974 272.985 125.493C272.381 125.002 271.469 124.755 270.248 124.75C268.988 124.745 268.001 125.001 267.286 125.516C266.826 125.846 266.595 126.289 266.593 126.846C266.591 127.354 266.804 127.789 267.233 128.152C267.778 128.613 269.104 129.097 271.212 129.602C273.319 130.108 274.875 130.632 275.879 131.172C276.892 131.704 277.681 132.434 278.244 133.364C278.816 134.284 279.1 135.423 279.095 136.78C279.091 138.011 278.744 139.162 278.057 140.233C277.369 141.305 276.4 142.102 275.148 142.625C273.896 143.138 272.337 143.391 270.472 143.384C267.757 143.374 265.674 142.741 264.224 141.486C262.774 140.221 261.911 138.386 261.637 135.983ZM282.492 143.189L284.511 121.81L288.828 122.217L286.809 143.597L282.492 143.189ZM291.01 137.064L295.229 137.472C295.206 138.911 295.509 140.03 296.139 140.83C296.778 141.632 297.745 142.159 299.038 142.412C300.409 142.681 301.495 142.595 302.298 142.155C303.112 141.707 303.595 141.095 303.747 140.319C303.845 139.821 303.779 139.37 303.549 138.967C303.331 138.556 302.883 138.15 302.205 137.748C301.741 137.478 300.665 136.949 298.978 136.161C296.808 135.149 295.344 134.141 294.585 133.137C293.518 131.724 293.148 130.184 293.475 128.516C293.685 127.443 294.183 126.501 294.968 125.689C295.766 124.87 296.782 124.328 298.019 124.062C299.264 123.799 300.697 123.825 302.317 124.142C304.962 124.66 306.837 125.629 307.942 127.05C309.057 128.472 309.458 130.158 309.146 132.107L304.854 131.461C304.884 130.342 304.643 129.489 304.131 128.901C303.631 128.305 302.782 127.89 301.584 127.656C300.348 127.414 299.33 127.478 298.531 127.849C298.017 128.087 297.706 128.479 297.599 129.025C297.502 129.524 297.629 129.991 297.981 130.428C298.43 130.984 299.641 131.709 301.616 132.603C303.59 133.497 305.019 134.304 305.903 135.024C306.798 135.737 307.435 136.603 307.813 137.622C308.202 138.634 308.266 139.806 308.005 141.138C307.769 142.345 307.212 143.411 306.334 144.333C305.457 145.256 304.355 145.856 303.027 146.134C301.7 146.402 300.122 146.356 298.292 145.998C295.627 145.476 293.701 144.462 292.513 142.956C291.328 141.44 290.826 139.476 291.01 137.064ZM312.459 149.064L314.903 127.121L319.079 128.624L317.133 143.6L325.82 131.048L330.672 132.793L329.138 148.182L337.316 135.182L341.423 136.66L329.248 155.102L324.92 153.546L326.329 136.991L316.884 150.655L312.459 149.064ZM350.867 166.237L346.724 163.982L347.408 158.801L339.869 154.698L335.98 158.135L331.94 155.937L349.552 141.073L353.579 143.264L350.867 166.237ZM347.916 154.958L349.126 146.544L342.769 152.157L347.916 154.958ZM359.064 172.054L372.908 155.637L376.223 158.433L370.075 165.723L382.919 164.08L387.376 167.839L375.802 169.02L373.868 184.538L369.579 180.921L371.563 169.411L366.562 169.888L362.379 174.849L359.064 172.054ZM375.165 185.89L391.115 171.511L401.777 183.338L399.079 185.77L391.32 177.164L387.784 180.352L395.003 188.359L392.316 190.782L385.097 182.775L380.756 186.688L388.789 195.599L386.102 198.021L375.165 185.89ZM388.181 200.619L405.901 188.488L409.832 194.229C411.321 196.405 412.203 197.883 412.479 198.666C412.908 199.863 412.91 201.11 412.484 202.408C412.067 203.699 411.153 204.828 409.743 205.793C408.655 206.538 407.605 206.967 406.594 207.08C405.582 207.192 404.653 207.089 403.807 206.769C402.974 206.451 402.274 206.025 401.706 205.49C400.952 204.752 400.021 203.573 398.912 201.953L397.315 199.621L390.631 204.197L388.181 200.619ZM405.353 194.118L400.325 197.56L401.665 199.518C402.631 200.928 403.369 201.808 403.88 202.156C404.39 202.505 404.934 202.677 405.511 202.672C406.094 202.676 406.647 202.499 407.17 202.14C407.815 201.699 408.217 201.145 408.377 200.48C408.537 199.814 408.47 199.155 408.178 198.503C407.966 198.021 407.419 197.135 406.536 195.846L405.353 194.118ZM418.303 207.314L420.232 211.197L409.817 216.373C408.164 217.195 407.117 217.775 406.675 218.115C405.97 218.672 405.532 219.381 405.359 220.241C405.2 221.105 405.39 222.079 405.929 223.164C406.476 224.266 407.112 224.986 407.836 225.324C408.569 225.657 409.292 225.718 410.004 225.506C410.717 225.294 411.834 224.809 413.355 224.053L423.994 218.766L425.924 222.649L415.823 227.669C413.514 228.816 411.831 229.522 410.773 229.786C409.716 230.049 408.718 230.06 407.78 229.818C406.846 229.584 405.947 229.093 405.084 228.344C404.23 227.59 403.425 226.453 402.669 224.931C401.756 223.095 401.273 221.596 401.219 220.434C401.178 219.276 401.357 218.255 401.757 217.369C402.165 216.479 402.697 215.762 403.354 215.218C404.33 214.417 405.893 213.481 408.045 212.412L418.303 207.314ZM408.433 236.182L428.603 229.339L429.996 233.445L413.253 239.126L416.717 249.335L413.29 250.498L408.433 236.182ZM417.748 272.181L416.834 267.554L421.257 264.769L419.594 256.348L414.465 255.554L413.574 251.041L436.262 255.087L437.15 259.585L417.748 272.181ZM424.537 262.703L431.781 258.256L423.401 256.954L424.537 262.703ZM439.354 272.891L439.58 277.221L427.965 277.827C426.122 277.923 424.93 278.039 424.389 278.175C423.521 278.406 422.837 278.882 422.337 279.602C421.847 280.332 421.633 281.301 421.696 282.511C421.76 283.739 422.058 284.653 422.587 285.251C423.127 285.849 423.766 286.192 424.504 286.281C425.242 286.369 426.46 286.369 428.156 286.281L440.02 285.662L440.246 289.992L428.982 290.579C426.408 290.714 424.583 290.692 423.507 290.513C422.432 290.334 421.512 289.947 420.748 289.352C419.984 288.766 419.355 287.957 418.861 286.927C418.377 285.896 418.091 284.532 418.002 282.835C417.895 280.787 418.048 279.22 418.461 278.132C418.884 277.054 419.455 276.188 420.174 275.535C420.902 274.881 421.676 274.434 422.495 274.196C423.709 273.849 425.515 273.613 427.914 273.488L439.354 272.891ZM417.029 314.505L417.464 309.809L422.494 308.391L423.284 299.843L418.59 297.629L419.014 293.049L439.627 303.355L439.205 307.921L417.029 314.505ZM426.225 307.338L434.432 305.126L426.764 301.504L426.225 307.338ZM416.649 316.357L437.524 321.393L436.535 325.494L420.533 330.675L434.474 334.038L433.529 337.954L412.653 332.918L413.674 328.688L429.317 323.557L415.704 320.272L416.649 316.357ZM408.543 345.007L427.993 354.11L424.124 362.375C423.151 364.454 422.269 365.879 421.476 366.651C420.688 367.436 419.715 367.902 418.557 368.05C417.398 368.198 416.244 368.003 415.095 367.465C413.635 366.782 412.629 365.788 412.075 364.483C411.53 363.182 411.533 361.62 412.085 359.797C411.192 360.414 410.321 360.859 409.472 361.13C408.618 361.409 407.216 361.664 405.265 361.894L400.359 362.493L402.557 357.796L408.118 356.938C410.102 356.637 411.376 356.392 411.939 356.203C412.511 356.018 412.965 355.751 413.301 355.401C413.646 355.056 414.03 354.432 414.452 353.53L414.825 352.734L406.705 348.934L408.543 345.007ZM417.929 354.187L416.569 357.092C415.687 358.976 415.216 360.19 415.156 360.733C415.096 361.277 415.198 361.772 415.463 362.219C415.728 362.667 416.153 363.027 416.736 363.301C417.391 363.607 418 363.676 418.564 363.509C419.132 363.354 419.618 362.983 420.022 362.396C420.216 362.099 420.685 361.154 421.43 359.562L422.864 356.497L417.929 354.187ZM399.358 364.277L417.817 375.25L415.602 378.977L397.143 368.004L399.358 364.277ZM383.465 386.892L386.27 383.099L391.306 384.492L396.41 377.59L393.542 373.264L396.277 369.566L408.57 389.059L405.844 392.746L383.465 386.892ZM395.043 385.524L403.21 387.883L398.527 380.813L395.043 385.524ZM397.66 403.142L394.625 406.24L386.317 398.1C384.998 396.809 384.106 396.01 383.64 395.704C382.883 395.222 382.069 395.04 381.2 395.16C380.332 395.293 379.474 395.792 378.626 396.657C377.765 397.536 377.294 398.373 377.212 399.168C377.138 399.97 377.318 400.672 377.752 401.276C378.186 401.879 379.01 402.775 380.224 403.964L388.711 412.277L385.677 415.375L377.619 407.482C375.777 405.678 374.558 404.319 373.962 403.407C373.366 402.495 373.028 401.556 372.949 400.59C372.863 399.631 373.032 398.621 373.456 397.56C373.887 396.506 374.697 395.372 375.887 394.158C377.322 392.693 378.579 391.744 379.659 391.312C380.739 390.893 381.762 390.727 382.73 390.814C383.705 390.907 384.557 391.175 385.287 391.616C386.364 392.275 387.76 393.445 389.477 395.126L397.66 403.142Z" fill="#A7A7A7"/>
<path d="M189.275 201.151C189.275 201.151 125.646 261.308 155.07 321.463C165.487 342.76 171.526 366.552 202.84 382.209C216.608 389.093 226.113 396.762 242.944 401.081C251.666 403.319 261.833 406.034 269.481 409.338C281.766 414.646 291.892 419.954 291.892 419.954" stroke="#A7A7A7" stroke-width="5" stroke-linecap="round"/>
<path d="M352.392 201.149C352.392 201.149 414.562 264.257 385.073 330.9C374.942 353.798 365.371 371.96 345.559 384.569C330.475 394.168 310.763 402.851 292.48 405.8C271.839 408.011 254.736 417.006 254.736 417.006" stroke="#A7A7A7" stroke-width="5"/>
<path d="M186.323 201.153L186.003 202.101H186.005C186.006 202.101 186.007 202.102 186.008 202.102C186.01 202.103 186.013 202.104 186.016 202.105C186.022 202.107 186.03 202.11 186.039 202.113C186.058 202.119 186.084 202.127 186.116 202.136C186.181 202.156 186.274 202.182 186.391 202.212C186.625 202.273 186.961 202.35 187.391 202.424C188.25 202.572 189.484 202.707 191.023 202.668C194.107 202.591 198.396 201.816 203.322 199.078C208.3 196.311 211.082 192.609 212.616 189.589C213.382 188.082 213.836 186.745 214.101 185.778C214.233 185.294 214.318 184.902 214.37 184.626C214.396 184.489 214.414 184.379 214.426 184.302C214.432 184.264 214.436 184.233 214.439 184.21C214.441 184.199 214.441 184.19 214.442 184.183C214.443 184.18 214.444 184.177 214.444 184.174V184.17L213.452 184.049L214.444 184.169L214.573 183.102L213.499 183.05H213.487C213.48 183.05 213.47 183.049 213.457 183.048C213.431 183.047 213.393 183.046 213.345 183.044C213.248 183.041 213.106 183.037 212.925 183.034C212.562 183.027 212.037 183.022 211.386 183.032C210.083 183.051 208.267 183.126 206.21 183.351C202.126 183.799 196.962 184.851 192.991 187.331C188.968 189.844 187.046 193.308 186.138 196.128C185.684 197.536 185.481 198.787 185.391 199.69C185.345 200.142 185.328 200.51 185.322 200.768C185.32 200.897 185.32 201 185.321 201.072C185.322 201.108 185.322 201.137 185.322 201.158C185.323 201.168 185.323 201.177 185.323 201.183C185.323 201.186 185.323 201.189 185.323 201.191C185.323 201.192 185.324 201.193 185.324 201.194V201.195L186.323 201.153ZM186.323 201.153L185.324 201.196L185.354 201.88L186.002 202.1L186.323 201.153Z" fill="#A7A7A7" stroke="#A7A7A7" stroke-width="2"/>
<path d="M185.733 184.639C185.265 183.843 185.23 183.782 185.227 183.778H185.226L185.224 183.779C185.222 183.78 185.22 183.781 185.217 183.783C185.211 183.786 185.203 183.791 185.192 183.797C185.171 183.81 185.142 183.828 185.103 183.852C185.025 183.899 184.911 183.968 184.767 184.058C184.478 184.238 184.066 184.503 183.562 184.841C182.557 185.518 181.185 186.496 179.718 187.7C176.814 190.082 173.409 193.455 171.836 197.229C170.276 200.973 170.042 205.723 170.17 209.445C170.235 211.323 170.394 212.973 170.536 214.156C170.607 214.747 170.675 215.223 170.725 215.552C170.75 215.717 170.77 215.845 170.784 215.933C170.791 215.977 170.798 216.011 170.802 216.035C170.804 216.046 170.805 216.056 170.806 216.062C170.806 216.065 170.807 216.067 170.808 216.069V216.072L171.793 215.898L170.808 216.073L171.125 217.867L172.469 216.635L172.476 216.628C172.479 216.625 172.484 216.621 172.489 216.616C172.501 216.605 172.516 216.591 172.536 216.572C172.576 216.534 172.632 216.479 172.703 216.408C172.846 216.265 173.05 216.053 173.309 215.77C173.825 215.203 174.557 214.349 175.435 213.18C177.19 210.842 179.531 207.244 181.92 202.168C184.318 197.073 185.522 192.717 186.126 189.623C186.428 188.075 186.58 186.843 186.656 185.991C186.694 185.565 186.714 185.234 186.724 185.006C186.729 184.892 186.731 184.803 186.732 184.742C186.733 184.711 186.733 184.688 186.733 184.67V184.64L185.733 184.639ZM185.733 184.639H186.733V182.891L185.227 183.777L185.733 184.639Z" fill="#A7A7A7" stroke="#A7A7A7" stroke-width="2"/>
<path d="M198.116 208.82L198.187 207.822H198.178C198.172 207.821 198.165 207.82 198.155 207.82C198.137 207.819 198.111 207.817 198.077 207.815C198.01 207.811 197.912 207.807 197.786 207.802C197.535 207.793 197.172 207.783 196.716 207.783C195.804 207.783 194.517 207.821 193.004 207.972C189.988 208.274 186.022 209.03 182.335 210.874C178.594 212.744 176.534 215.26 175.414 217.339C174.857 218.374 174.536 219.294 174.354 219.964C174.262 220.3 174.205 220.574 174.17 220.769C174.153 220.867 174.141 220.945 174.133 221.001C174.129 221.03 174.126 221.053 174.124 221.07C174.123 221.078 174.122 221.086 174.121 221.091C174.121 221.094 174.121 221.097 174.121 221.099C174.121 221.1 174.12 221.101 174.12 221.102V221.104C174.121 221.105 174.152 221.108 175.115 221.205L174.12 221.105L174.042 221.883L174.779 222.146L174.783 222.148C174.785 222.149 174.788 222.149 174.791 222.15C174.797 222.152 174.805 222.155 174.815 222.159C174.836 222.166 174.864 222.175 174.899 222.187C174.971 222.21 175.072 222.242 175.202 222.28C175.462 222.356 175.835 222.457 176.302 222.559C177.235 222.763 178.553 222.976 180.104 223.015C183.202 223.093 187.279 222.474 191.049 219.646C194.694 216.912 196.705 214.301 197.809 212.331C198.359 211.347 198.682 210.528 198.867 209.941C198.96 209.647 199.018 209.412 199.055 209.243C199.073 209.158 199.085 209.091 199.094 209.041C199.098 209.015 199.101 208.994 199.104 208.978C199.105 208.97 199.106 208.963 199.106 208.958C199.107 208.955 199.107 208.952 199.107 208.95C199.108 208.949 199.108 208.948 199.108 208.947V208.945L198.116 208.82ZM198.116 208.82L199.108 208.944L199.239 207.897L198.188 207.822L198.116 208.82Z" fill="#A7A7A7" stroke="#A7A7A7" stroke-width="2"/>
<path d="M157.639 237.131L156.78 237.645L157.506 238.857L158.408 237.77L157.639 237.131ZM157.639 237.131C158.408 237.77 158.409 237.77 158.409 237.77V237.769L158.411 237.768C158.412 237.766 158.413 237.764 158.414 237.763C158.417 237.759 158.421 237.754 158.426 237.748C158.435 237.736 158.449 237.72 158.466 237.699C158.499 237.657 158.546 237.596 158.606 237.518C158.727 237.36 158.898 237.129 159.109 236.826C159.531 236.22 160.113 235.325 160.768 234.151C162.077 231.803 163.68 228.335 164.884 223.821C166.082 219.328 166.824 214.259 167.268 210.332C167.49 208.365 167.638 206.676 167.73 205.478C167.777 204.879 167.809 204.402 167.83 204.074C167.841 203.91 167.848 203.783 167.853 203.697C167.855 203.654 167.857 203.621 167.858 203.599C167.859 203.588 167.859 203.579 167.859 203.573C167.86 203.57 167.86 203.568 167.86 203.566V203.564L166.861 203.512L167.86 203.563L167.959 201.662L166.337 202.66L166.336 202.661L166.334 202.662C166.332 202.663 166.331 202.665 166.328 202.666C166.323 202.669 166.316 202.673 166.308 202.679C166.29 202.69 166.266 202.706 166.234 202.726C166.172 202.766 166.081 202.824 165.966 202.901C165.736 203.056 165.409 203.284 165.004 203.584C164.195 204.184 163.076 205.075 161.827 206.248C159.334 208.59 156.294 212.081 154.16 216.653C151.943 221.405 152.66 226.709 153.846 230.705C154.443 232.72 155.173 234.447 155.753 235.67C156.043 236.282 156.297 236.771 156.479 237.108C156.571 237.277 156.645 237.409 156.696 237.499C156.722 237.544 156.743 237.579 156.757 237.604C156.764 237.616 156.769 237.625 156.773 237.632C156.775 237.635 156.777 237.638 156.778 237.64C156.779 237.641 156.78 237.642 156.78 237.643V237.644L157.639 237.131Z" fill="#A7A7A7" stroke="#A7A7A7" stroke-width="2"/>
<path d="M160.373 247.154V248.154H159.26L159.379 247.047L160.373 247.154ZM160.373 247.154L160.374 248.154H160.408C160.427 248.154 160.452 248.153 160.483 248.152C160.547 248.15 160.637 248.146 160.75 248.139C160.977 248.125 161.301 248.098 161.704 248.043C162.51 247.935 163.638 247.721 164.956 247.294C167.595 246.441 171 244.736 174.088 241.339C177.114 238.011 179.081 234.683 180.293 232.183C180.899 230.933 181.318 229.887 181.586 229.149C181.72 228.78 181.817 228.487 181.881 228.284C181.913 228.182 181.937 228.103 181.953 228.047C181.961 228.02 181.967 227.998 181.972 227.983C181.974 227.975 181.975 227.969 181.977 227.964C181.977 227.962 181.978 227.96 181.979 227.958L181.979 227.957V227.956C181.98 227.955 181.979 227.955 181.015 227.692M160.373 247.154C159.419 247.051 159.38 247.047 159.379 247.046V247.042C159.379 247.041 159.38 247.039 159.38 247.037C159.38 247.031 159.382 247.024 159.383 247.016C159.385 246.999 159.388 246.976 159.392 246.947C159.399 246.888 159.411 246.806 159.428 246.701C159.461 246.491 159.515 246.19 159.598 245.815C159.764 245.065 160.046 244.011 160.516 242.773C161.454 240.298 163.144 237.071 166.153 234.062C169.179 231.037 172.862 229.203 175.755 228.127C177.206 227.588 178.473 227.234 179.38 227.014C179.834 226.904 180.198 226.827 180.452 226.778C180.579 226.753 180.678 226.735 180.747 226.723C180.782 226.717 180.809 226.713 180.828 226.709C180.838 226.708 180.845 226.706 180.851 226.706C180.853 226.705 180.856 226.705 180.857 226.705L180.859 226.704H180.86L181.015 227.692M181.015 227.692L181.979 227.955L182.385 226.467L180.861 226.704L181.015 227.692Z" fill="#A7A7A7" stroke="#A7A7A7" stroke-width="2"/>
<path d="M145.629 267.795L144.922 268.502L145.667 269.248L146.372 268.463L145.629 267.795ZM145.629 267.795L146.373 268.463V268.462L146.375 268.46C146.376 268.459 146.379 268.456 146.381 268.454C146.385 268.449 146.391 268.443 146.397 268.435C146.411 268.42 146.429 268.398 146.451 268.372C146.497 268.318 146.561 268.241 146.641 268.14C146.8 267.939 147.024 267.644 147.291 267.255C147.825 266.479 148.533 265.327 149.258 263.801C150.708 260.746 152.22 256.195 152.523 250.153C152.824 244.162 152.227 239.504 151.546 236.329C151.206 234.741 150.844 233.524 150.565 232.698C150.426 232.285 150.306 231.969 150.221 231.752C150.178 231.645 150.144 231.561 150.119 231.503C150.107 231.475 150.097 231.452 150.09 231.436C150.086 231.428 150.083 231.421 150.081 231.416L150.077 231.408L150.076 231.407C150.072 231.408 150.011 231.435 149.166 231.82L150.076 231.406L149.578 230.311L148.593 231L148.944 231.503C148.622 231.043 148.594 231.004 148.592 231.001L148.59 231.002L148.588 231.004C148.586 231.006 148.583 231.007 148.58 231.009C148.575 231.013 148.568 231.018 148.56 231.024C148.543 231.036 148.521 231.052 148.494 231.073C148.44 231.114 148.364 231.173 148.271 231.25C148.083 231.405 147.822 231.635 147.506 231.946C146.873 232.569 146.021 233.521 145.098 234.867C143.25 237.562 141.132 241.819 139.927 248.146C138.704 254.568 139.926 259.64 141.471 263.115C142.241 264.848 143.09 266.181 143.752 267.086C144.083 267.539 144.368 267.886 144.573 268.123C144.676 268.241 144.76 268.332 144.819 268.395C144.849 268.427 144.872 268.452 144.89 268.47C144.898 268.479 144.905 268.486 144.91 268.492C144.913 268.494 144.915 268.497 144.917 268.499C144.918 268.499 144.919 268.5 144.92 268.5L144.921 268.501L145.629 267.795Z" fill="#A7A7A7" stroke="#A7A7A7" stroke-width="2"/>
<path d="M170.983 249.513L170.799 248.53H170.796C170.794 248.531 170.791 248.532 170.788 248.532C170.782 248.533 170.774 248.535 170.764 248.537C170.743 248.541 170.713 248.547 170.675 248.555C170.598 248.57 170.487 248.594 170.347 248.626C170.065 248.69 169.661 248.789 169.161 248.927C168.163 249.203 166.777 249.639 165.221 250.284C162.124 251.568 158.268 253.712 155.466 257.136C152.655 260.57 151.433 264.745 150.903 268.004C150.637 269.641 150.543 271.069 150.515 272.09C150.501 272.601 150.503 273.011 150.509 273.297C150.512 273.44 150.516 273.551 150.52 273.629C150.521 273.667 150.522 273.697 150.523 273.719C150.524 273.729 150.525 273.738 150.525 273.744V273.755L151.523 273.693M170.983 249.513L171.983 249.514V249.545C171.983 249.563 171.983 249.588 171.982 249.62C171.981 249.685 171.979 249.779 171.974 249.899C171.964 250.141 171.944 250.49 171.906 250.935C171.83 251.823 171.678 253.094 171.376 254.644C170.771 257.742 169.564 261.969 167.148 266.497C164.624 271.23 160.665 273.284 157.379 274.145C155.741 274.574 154.261 274.71 153.19 274.739C152.654 274.754 152.218 274.741 151.911 274.725C151.758 274.716 151.636 274.708 151.551 274.7C151.508 274.696 151.474 274.693 151.45 274.69C151.439 274.689 151.429 274.688 151.422 274.688C151.418 274.687 151.415 274.687 151.412 274.687H151.408L151.523 273.693M170.983 249.513H171.983V248.308L170.8 248.53L170.983 249.513ZM151.523 273.693L150.525 273.756L150.578 274.589L151.407 274.687L151.523 273.693Z" fill="#A7A7A7" stroke="#A7A7A7" stroke-width="2"/>
<path d="M135.724 262.419V262.42H135.725L135.726 262.422C135.727 262.424 135.729 262.425 135.73 262.427C135.734 262.432 135.739 262.438 135.746 262.446C135.76 262.462 135.781 262.486 135.807 262.516C135.859 262.577 135.934 262.666 136.03 262.782C136.223 263.013 136.499 263.349 136.836 263.776C137.51 264.629 138.431 265.847 139.421 267.308C141.392 270.216 143.683 274.153 144.821 278.137C145.938 282.047 146.683 286.826 147.148 290.6C147.382 292.493 147.545 294.145 147.651 295.324C147.704 295.913 147.743 296.384 147.769 296.709C147.781 296.872 147.791 296.998 147.797 297.083C147.8 297.126 147.802 297.16 147.804 297.182C147.804 297.193 147.805 297.202 147.806 297.208V297.216L147.904 298.663L146.518 298.241L146.809 297.284L146.517 298.241L146.516 298.24C146.515 298.24 146.514 298.239 146.513 298.239C146.51 298.238 146.507 298.238 146.504 298.237C146.497 298.235 146.488 298.232 146.477 298.228C146.454 298.221 146.422 298.21 146.382 298.197C146.301 298.17 146.187 298.131 146.043 298.078C145.754 297.971 145.345 297.81 144.851 297.587C143.863 297.143 142.525 296.449 141.115 295.445C138.298 293.438 135.142 290.153 133.996 285.121C132.89 280.264 132.896 274.697 133.167 270.387C133.303 268.223 133.507 266.358 133.677 265.033C133.762 264.37 133.838 263.841 133.894 263.477C133.921 263.295 133.944 263.153 133.96 263.057C133.968 263.009 133.974 262.972 133.979 262.947C133.981 262.935 133.982 262.925 133.983 262.918C133.984 262.915 133.984 262.912 133.984 262.91L133.985 262.908V262.907L134.344 260.84L135.724 262.419Z" fill="#A7A7A7" stroke="#A7A7A7" stroke-width="2"/>
<path d="M153.297 303.182L152.429 303.679L152.787 304.304L153.493 304.162L153.297 303.182ZM153.297 303.182L153.494 304.162H153.496C153.497 304.162 153.498 304.161 153.499 304.161C153.501 304.161 153.505 304.16 153.508 304.159C153.514 304.158 153.522 304.156 153.531 304.154C153.55 304.15 153.574 304.144 153.604 304.137C153.663 304.122 153.744 304.101 153.845 304.071C154.046 304.011 154.327 303.917 154.673 303.774C155.366 303.489 156.319 303.011 157.417 302.227C159.619 300.654 162.378 297.871 164.807 293.014C167.264 288.1 167.577 283.63 167.268 280.381C167.113 278.759 166.803 277.441 166.529 276.522C166.392 276.063 166.265 275.702 166.169 275.452C166.121 275.327 166.081 275.23 166.052 275.161C166.037 275.127 166.025 275.1 166.017 275.08C166.012 275.07 166.009 275.063 166.006 275.057C166.004 275.054 166.003 275.051 166.002 275.049C166.001 275.048 166.001 275.047 166.001 275.046V275.045C166.001 275.044 166 275.044 165.092 275.463L166 275.044L165.637 274.256L164.805 274.505L165.001 275.161C164.804 274.505 164.804 274.505 164.804 274.505L164.803 274.506C164.802 274.506 164.801 274.507 164.8 274.507C164.798 274.507 164.795 274.508 164.792 274.509C164.786 274.511 164.779 274.513 164.771 274.516C164.753 274.521 164.731 274.529 164.703 274.538C164.647 274.557 164.569 274.585 164.471 274.622C164.275 274.697 163.999 274.812 163.655 274.976C162.968 275.304 162.011 275.832 160.89 276.644C158.643 278.269 155.747 281.023 153.022 285.564C150.219 290.237 150.065 294.765 150.611 298.109C150.884 299.778 151.33 301.156 151.711 302.12C151.902 302.603 152.077 302.985 152.206 303.249C152.271 303.381 152.324 303.484 152.362 303.557C152.381 303.593 152.397 303.621 152.408 303.642C152.414 303.652 152.418 303.66 152.422 303.666C152.424 303.669 152.425 303.672 152.426 303.674C152.426 303.675 152.427 303.676 152.428 303.677L152.429 303.678L153.297 303.182Z" fill="#A7A7A7" stroke="#A7A7A7" stroke-width="2"/>
<path d="M135.147 299.544H135.148C135.149 299.544 135.15 299.545 135.15 299.546C135.152 299.547 135.154 299.55 135.156 299.553C135.162 299.559 135.171 299.568 135.182 299.579C135.203 299.602 135.235 299.636 135.277 299.681C135.361 299.77 135.485 299.902 135.643 300.071C135.958 300.41 136.414 300.902 136.97 301.514C138.082 302.736 139.602 304.44 141.233 306.368C144.475 310.197 148.236 314.998 150.065 318.657C151.84 322.205 153.318 325.31 154.352 327.528C154.869 328.637 155.274 329.526 155.552 330.137C155.69 330.442 155.797 330.679 155.869 330.839C155.905 330.919 155.932 330.98 155.95 331.021C155.959 331.042 155.967 331.058 155.972 331.068C155.974 331.073 155.975 331.077 155.977 331.08C155.977 331.081 155.977 331.082 155.978 331.083L155.979 331.084L156.478 332.21L155.274 332.468L155.064 331.49L155.272 332.468L155.271 332.469C155.269 332.469 155.268 332.468 155.267 332.469C155.264 332.469 155.261 332.471 155.257 332.472C155.249 332.473 155.238 332.475 155.227 332.478C155.203 332.482 155.171 332.488 155.132 332.494C155.053 332.507 154.942 332.523 154.804 332.538C154.527 332.569 154.134 332.596 153.645 332.591C152.664 332.581 151.293 332.439 149.676 331.927C146.425 330.896 142.265 328.391 138.315 322.618C134.36 316.837 133.137 311.196 132.908 306.995C132.794 304.896 132.927 303.156 133.091 301.934C133.173 301.322 133.262 300.839 133.332 300.505C133.367 300.338 133.398 300.207 133.42 300.116C133.431 300.071 133.441 300.035 133.447 300.01C133.451 299.997 133.453 299.987 133.455 299.979C133.456 299.976 133.457 299.973 133.458 299.971C133.458 299.969 133.458 299.968 133.458 299.967L133.459 299.966C133.462 299.966 133.511 299.979 134.423 300.232L133.459 299.965L133.932 298.264L135.147 299.544Z" fill="#A7A7A7" stroke="#A7A7A7" stroke-width="2"/>
<path d="M159.783 330.9L158.971 331.482L158.973 331.484C158.974 331.485 158.975 331.486 158.976 331.488C158.977 331.49 158.979 331.494 158.981 331.497C158.986 331.503 158.993 331.511 158.999 331.519C159.012 331.536 159.028 331.557 159.048 331.581C159.087 331.628 159.141 331.69 159.209 331.758C159.344 331.895 159.542 332.069 159.803 332.23C160.338 332.56 161.133 332.825 162.128 332.616C163.098 332.411 164.137 331.782 165.245 330.583C166.355 329.384 167.584 327.562 168.935 324.86C171.732 319.266 171.543 311.928 170.727 306.138C170.315 303.217 169.735 300.635 169.258 298.785C169.019 297.859 168.806 297.114 168.651 296.598C168.574 296.341 168.512 296.14 168.469 296.003C168.447 295.935 168.43 295.881 168.418 295.845C168.412 295.827 168.407 295.814 168.404 295.804C168.403 295.799 168.402 295.795 168.401 295.792C168.401 295.791 168.4 295.79 168.399 295.79V295.789C168.399 295.788 168.399 295.788 167.45 296.104L168.399 295.788L167.888 294.253L166.743 295.397L166.741 295.399C166.74 295.4 166.739 295.402 166.737 295.404C166.734 295.407 166.729 295.411 166.723 295.417C166.711 295.43 166.694 295.448 166.672 295.47C166.628 295.515 166.565 295.581 166.484 295.667C166.323 295.838 166.092 296.091 165.803 296.423C165.224 297.087 164.414 298.068 163.475 299.345C161.596 301.899 159.197 305.649 157.098 310.447C154.909 315.45 155.395 320.715 156.38 324.655C156.875 326.634 157.503 328.307 158.007 329.487C158.259 330.077 158.482 330.546 158.643 330.87C158.723 331.032 158.788 331.158 158.834 331.245C158.857 331.288 158.875 331.322 158.888 331.345C158.894 331.357 158.899 331.366 158.902 331.373C158.904 331.376 158.906 331.379 158.907 331.381L158.908 331.383L158.909 331.384L159.783 330.9ZM159.783 330.9L158.909 331.385L158.938 331.435L158.97 331.481L159.783 330.9Z" fill="#A7A7A7" stroke="#A7A7A7" stroke-width="2"/>
<path d="M169.807 359.799C170.771 359.536 170.772 359.535 170.771 359.535V359.534C170.771 359.533 170.771 359.532 170.771 359.531C170.77 359.529 170.769 359.527 170.769 359.524C170.767 359.518 170.764 359.511 170.762 359.502C170.757 359.485 170.75 359.461 170.741 359.431C170.723 359.372 170.696 359.288 170.66 359.182C170.588 358.969 170.476 358.665 170.315 358.28C169.994 357.509 169.474 356.416 168.674 355.083C167.073 352.414 164.351 348.794 159.846 344.889C155.41 341.045 151.984 338.36 149.5 336.704C148.262 335.878 147.224 335.285 146.393 334.936C145.978 334.762 145.578 334.633 145.207 334.577C144.895 334.529 144.519 334.521 144.156 334.657L144.002 334.724C143.499 334.975 143.246 335.482 143.113 335.837C142.96 336.249 142.862 336.752 142.815 337.314C142.721 338.444 142.827 339.936 143.252 341.68C144.105 345.178 146.258 349.753 150.789 354.586C155.395 359.499 160.204 361.071 163.896 361.385C165.731 361.541 167.278 361.386 168.371 361.189C168.918 361.09 169.353 360.981 169.657 360.894C169.809 360.851 169.929 360.814 170.013 360.786C170.055 360.772 170.088 360.76 170.112 360.751C170.124 360.747 170.135 360.743 170.143 360.741C170.146 360.739 170.15 360.739 170.152 360.738C170.154 360.737 170.154 360.736 170.155 360.736H170.157L169.807 359.799ZM169.807 359.799L170.158 360.735L171.012 360.416L170.771 359.536L169.807 359.799Z" fill="#A7A7A7" stroke="#A7A7A7" stroke-width="2"/>
<path d="M176.295 358.619L175.694 359.419L176.052 359.688L176.49 359.6L176.295 358.619ZM176.295 358.619L176.492 359.6L176.494 359.599C176.495 359.598 176.497 359.599 176.498 359.599C176.501 359.598 176.504 359.596 176.508 359.596C176.515 359.594 176.524 359.592 176.534 359.59C176.554 359.585 176.58 359.579 176.611 359.571C176.674 359.555 176.758 359.531 176.859 359.498C177.063 359.432 177.34 359.327 177.667 359.166C178.322 358.844 179.176 358.298 180.04 357.393C181.782 355.568 183.475 352.379 183.78 346.88C184.089 341.317 181.936 335.232 179.78 330.624C178.694 328.302 177.59 326.319 176.758 324.916C176.341 324.214 175.992 323.656 175.746 323.271C175.623 323.08 175.525 322.931 175.458 322.829C175.425 322.779 175.399 322.74 175.381 322.713C175.372 322.7 175.364 322.69 175.359 322.683C175.357 322.679 175.355 322.676 175.354 322.674C175.353 322.673 175.353 322.671 175.353 322.671H175.352C175.348 322.673 175.293 322.71 174.525 323.233L175.352 322.67L174.926 322.046L174.209 322.285L174.491 323.131C174.209 322.285 174.207 322.285 174.206 322.285L174.204 322.286L174.187 322.292C174.178 322.295 174.168 322.299 174.157 322.303C174.135 322.311 174.108 322.322 174.076 322.336C174.013 322.363 173.931 322.4 173.833 322.451C173.637 322.554 173.38 322.711 173.083 322.942C172.487 323.407 171.742 324.164 171.018 325.373C169.571 327.787 168.227 331.964 168.227 339.157C168.227 346.409 170.039 351.445 171.892 354.691C172.816 356.311 173.746 357.477 174.455 358.246C174.809 358.631 175.108 358.916 175.324 359.109C175.432 359.206 175.519 359.279 175.582 359.33C175.613 359.356 175.638 359.376 175.657 359.391C175.667 359.398 175.675 359.405 175.681 359.409C175.684 359.411 175.686 359.413 175.688 359.415C175.689 359.416 175.691 359.416 175.691 359.417L175.693 359.418L176.295 358.619Z" fill="#A7A7A7" stroke="#A7A7A7" stroke-width="2"/>
<path d="M195.169 382.21L195.633 381.324H195.632L195.631 381.323C195.629 381.322 195.627 381.321 195.624 381.32C195.618 381.317 195.608 381.311 195.597 381.305C195.573 381.293 195.538 381.274 195.492 381.25C195.4 381.202 195.265 381.132 195.091 381.041C194.743 380.858 194.241 380.596 193.623 380.273C192.388 379.628 190.691 378.743 188.848 377.785C185.163 375.869 180.88 373.653 178.513 372.469C176.182 371.304 172.521 369.253 169.424 367.483C167.879 366.6 166.482 365.79 165.471 365.201C164.965 364.906 164.556 364.668 164.273 364.502C164.132 364.42 164.022 364.355 163.948 364.311C163.911 364.289 163.882 364.273 163.863 364.262C163.854 364.257 163.847 364.252 163.842 364.25C163.84 364.248 163.838 364.247 163.837 364.247L163.836 364.246H163.835L162.422 363.414L162.329 365.05L163.328 365.107C162.33 365.051 162.329 365.052 162.329 365.052V365.066C162.329 365.073 162.328 365.084 162.327 365.096C162.326 365.121 162.325 365.157 162.324 365.202C162.322 365.291 162.319 365.419 162.32 365.582C162.323 365.906 162.338 366.37 162.386 366.942C162.482 368.084 162.712 369.667 163.252 371.443C164.333 375 166.663 379.359 171.637 382.468C176.644 385.598 182.673 385.72 187.334 385.119C189.681 384.816 191.722 384.324 193.177 383.909C193.905 383.701 194.488 383.511 194.892 383.373C195.094 383.303 195.251 383.246 195.359 383.207C195.413 383.187 195.455 383.171 195.484 383.16C195.499 383.154 195.51 383.15 195.519 383.147C195.523 383.145 195.526 383.144 195.528 383.143C195.529 383.143 195.53 383.142 195.531 383.142L195.532 383.141L195.169 382.21ZM195.169 382.21L195.533 383.141L197.576 382.342L195.633 381.325L195.169 382.21Z" fill="#A7A7A7" stroke="#A7A7A7" stroke-width="2"/>
<path d="M199.887 378.081L199.401 378.956L200.102 379.345L200.634 378.745L199.887 378.081ZM199.887 378.081L200.635 378.745L200.638 378.742C200.639 378.741 200.641 378.738 200.643 378.735C200.647 378.731 200.653 378.725 200.659 378.718C200.672 378.703 200.69 378.681 200.712 378.654C200.756 378.601 200.819 378.526 200.895 378.429C201.046 378.234 201.254 377.953 201.493 377.593C201.97 376.874 202.571 375.834 203.077 374.538C204.091 371.941 204.731 368.288 203.184 364.166C201.678 360.154 198.032 355.318 194.854 351.56C193.251 349.663 191.738 348.009 190.627 346.829C190.071 346.239 189.616 345.768 189.298 345.442C189.139 345.28 189.015 345.153 188.93 345.067L188.798 344.936L188.093 345.645L188.797 344.936L187.528 343.675L187.119 345.415V345.416V345.417L187.118 345.419C187.118 345.421 187.117 345.423 187.116 345.426C187.115 345.432 187.114 345.44 187.111 345.45C187.107 345.471 187.1 345.502 187.091 345.541C187.073 345.62 187.047 345.736 187.016 345.886C186.953 346.184 186.866 346.618 186.768 347.162C186.57 348.251 186.326 349.787 186.139 351.586C185.765 355.168 185.607 359.859 186.523 364.137C187.477 368.588 190.778 372.307 193.7 374.854C195.178 376.143 196.596 377.164 197.646 377.863C198.171 378.213 198.605 378.484 198.91 378.668C199.063 378.76 199.183 378.831 199.267 378.879C199.308 378.903 199.341 378.922 199.363 378.935C199.374 378.941 199.383 378.946 199.39 378.949C199.393 378.951 199.396 378.952 199.397 378.953C199.398 378.954 199.399 378.955 199.399 378.955H199.4L199.887 378.081Z" fill="#A7A7A7" stroke="#A7A7A7" stroke-width="2"/>
<path d="M227.819 393.416L227.569 394.385L228.343 394.585L228.708 393.874L227.819 393.416ZM227.819 393.416L228.709 393.873V393.872L228.71 393.87C228.711 393.868 228.713 393.867 228.714 393.864C228.716 393.859 228.719 393.853 228.723 393.846C228.73 393.831 228.741 393.81 228.753 393.784C228.778 393.733 228.811 393.66 228.852 393.567C228.933 393.382 229.044 393.114 229.167 392.773C229.412 392.091 229.708 391.11 229.921 389.888C230.347 387.442 230.444 384.027 229.144 380.124C228.44 378.013 226.791 376.093 224.853 374.427C222.897 372.747 220.552 371.246 218.316 369.997C216.076 368.746 213.919 367.734 212.324 367.034C211.526 366.684 210.866 366.411 210.404 366.226C210.174 366.133 209.993 366.062 209.868 366.014C209.806 365.99 209.757 365.971 209.725 365.959C209.708 365.953 209.695 365.948 209.687 365.944C209.682 365.943 209.679 365.941 209.677 365.94C209.676 365.94 209.675 365.94 209.674 365.939H209.673L208.624 365.547L208.352 366.634V366.635C208.351 366.635 208.351 366.637 208.351 366.638C208.35 366.64 208.35 366.642 208.35 366.646C208.348 366.652 208.345 366.66 208.343 366.671C208.338 366.692 208.331 366.723 208.322 366.762C208.305 366.84 208.279 366.952 208.25 367.096C208.192 367.383 208.115 367.797 208.038 368.314C207.885 369.347 207.732 370.798 207.732 372.479C207.732 375.823 208.338 380.176 210.85 383.944C213.361 387.712 217.597 390.315 221.094 391.962C222.858 392.793 224.469 393.396 225.641 393.792C226.227 393.99 226.704 394.137 227.037 394.235C227.204 394.284 227.335 394.321 227.425 394.346C227.469 394.358 227.504 394.368 227.528 394.374C227.54 394.377 227.55 394.38 227.557 394.382C227.56 394.383 227.563 394.383 227.565 394.384L227.567 394.385H227.568L227.819 393.416Z" fill="#A7A7A7" stroke="#A7A7A7" stroke-width="2"/>
<path d="M224.657 398.133L225.303 397.37L225.302 397.369C225.301 397.368 225.299 397.367 225.298 397.366C225.295 397.363 225.292 397.36 225.287 397.356C225.278 397.348 225.263 397.337 225.246 397.323C225.211 397.294 225.161 397.252 225.096 397.2C224.965 397.094 224.773 396.943 224.526 396.755C224.033 396.38 223.315 395.856 222.411 395.258C220.606 394.065 218.042 392.566 215.019 391.355C213.379 390.698 210.76 390.363 207.886 390.197C204.971 390.029 201.658 390.03 198.547 390.104C195.433 390.178 192.505 390.326 190.357 390.456C189.283 390.52 188.403 390.581 187.791 390.625C187.485 390.647 187.245 390.665 187.082 390.677C187.001 390.683 186.939 390.688 186.896 390.691C186.876 390.693 186.859 390.694 186.849 390.695C186.843 390.695 186.839 390.696 186.836 390.696C186.835 390.696 186.834 390.697 186.833 390.697H186.832L186.912 391.693M224.657 398.133L225.072 399.042L225.071 399.043C225.071 399.044 225.07 399.044 225.068 399.044C225.066 399.046 225.062 399.047 225.058 399.049C225.048 399.054 225.034 399.06 225.017 399.068C224.981 399.084 224.928 399.108 224.86 399.138C224.725 399.198 224.526 399.285 224.271 399.394C223.761 399.612 223.025 399.917 222.114 400.27C220.295 400.976 217.773 401.878 214.967 402.657C212.165 403.434 209.053 404.096 206.062 404.31C203.085 404.523 200.134 404.299 197.712 403.223C193.128 401.186 190.2 398.42 188.416 396.146C187.525 395.011 186.92 394 186.535 393.264C186.343 392.896 186.205 392.596 186.113 392.384C186.068 392.278 186.033 392.193 186.01 392.133C185.998 392.104 185.989 392.08 185.982 392.062C185.979 392.053 185.976 392.045 185.974 392.04C185.973 392.037 185.972 392.035 185.972 392.033C185.971 392.032 185.971 392.031 185.971 392.03L185.97 392.029C185.97 392.028 185.97 392.027 186.912 391.693M224.657 398.133L225.073 399.042L226.505 398.388L225.304 397.371L224.657 398.133ZM186.912 391.693L185.97 392.028L185.534 390.801L186.831 390.697L186.912 391.693Z" fill="#A7A7A7" stroke="#A7A7A7" stroke-width="2"/>
<path d="M318.223 372.96C330.893 363.525 351.402 372.96 351.402 372.96C351.402 372.96 356.71 400.215 343.199 408.749C329.687 417.282 310.556 403.441 310.556 403.441C310.556 403.441 305.553 382.394 318.223 372.96Z" fill="#A7A7A7"/>
<path d="M357.514 332.069C366.362 319.094 388.604 316.374 388.604 316.374C388.604 316.374 404.381 340.905 394.08 355.07C383.778 369.235 360.835 361.999 360.835 361.999C360.835 361.999 348.665 345.043 357.514 332.069Z" fill="#A7A7A7"/>
<path d="M339.996 359.59C348.209 346.096 370.713 343.305 370.713 343.305C370.713 343.305 385.409 370.795 375.383 383.18C365.357 395.565 342.945 388.93 342.945 388.93C342.945 388.93 331.783 373.083 339.996 359.59Z" fill="#A7A7A7"/>
<path d="M369.782 297.262C379.215 283.696 387.3 275.552 387.3 275.552C387.3 275.552 412.783 299.053 406.302 314.976C399.821 330.9 379.813 332.058 379.813 332.058C379.813 332.058 360.349 310.827 369.782 297.262Z" fill="#A7A7A7"/>
<path d="M370.917 264.257C380.35 250.692 380.223 241.114 380.223 241.114C380.223 241.114 415.017 258.81 406.76 278.272C398.503 297.734 384.654 298.798 384.654 298.798C384.654 298.798 361.484 277.823 370.917 264.257Z" fill="#A7A7A7"/>
<path d="M357.562 231.045C363.957 210.808 360.289 210.149 360.289 210.149C360.289 210.149 397.458 217.665 396.869 237.717C396.279 257.769 381.744 265.252 381.744 265.252C381.744 265.252 351.167 251.282 357.562 231.045Z" fill="#A7A7A7"/>
<path d="M344.822 218.221C338.833 209.649 341.284 190.502 341.284 190.502C341.284 190.502 361.937 188.139 370.187 197.578C378.437 207.018 376.088 229.423 376.088 229.423C376.088 229.423 352.048 228.565 344.822 218.221Z" fill="#A7A7A7"/>
<path d="M389.132 322.06C391.197 323.703 391.669 325.632 391.498 327.366C391.303 329.345 390.318 330.315 390.318 333.853C390.318 337.392 390.221 337.747 391.098 339.937C392.677 343.879 393.726 349.776 391.379 348.918C389.033 348.06 387.816 347.969 385.893 346.921C384.327 346.068 382.764 345.793 382.01 344.177C380.764 341.504 383.392 338.49 382.512 335.483C381.99 333.701 382.72 332.089 381.468 332.673C375.054 335.664 369.673 335.033 368.493 335.033C367.314 335.032 366.691 332.812 366.728 331.494C366.764 330.176 368.579 328.093 369.673 327.366C371.446 326.186 373.215 325.597 374.395 325.597C376.259 325.597 376.986 326.276 378.519 325.596C380.517 324.711 381.716 322.034 383.826 321.468C385.74 320.954 387.582 320.826 389.132 322.06Z" fill="white"/>
<path d="M387.831 280.607C390.44 280.997 391.813 282.432 392.532 284.019C393.353 285.83 392.985 287.162 394.755 290.227C396.524 293.291 396.588 292.992 398.472 295.106C400.355 297.219 400.127 303.608 398.947 304.788C397.768 305.967 393.64 303.608 393.64 303.608C390.101 300.07 390.101 295.941 388.921 292.992C387.742 290.044 385.973 292.403 385.973 292.403C385.973 292.403 377.127 305.378 374.177 301.839C372.765 300.144 373.485 296.887 375.357 294.172C377.394 291.217 379.707 291.14 381.255 288.274C382.327 286.289 382.434 284.735 383.614 282.966C384.713 281.317 385.871 280.313 387.831 280.607Z" fill="white"/>
<path d="M383.693 246.204C386.531 245.538 388.051 249.947 389.156 251.293C390.417 252.831 389.745 251.884 395.643 257.192C401.541 262.499 397.412 264.859 397.412 264.859C397.412 264.859 395.053 267.218 391.515 262.499C387.976 257.781 388.566 258.371 388.566 258.371C386.663 255.828 384.951 258.079 384.951 258.079C384.951 258.079 383.251 259.552 381.481 263.681C379.712 267.809 376.819 266.618 376.819 266.618C376.819 266.618 374.53 265.597 375.636 262.49C378.584 258.951 379.023 257.283 379.764 254.233C380.297 252.041 379.672 251.53 380.353 249.515C380.988 247.638 381.905 246.624 383.693 246.204Z" fill="white"/>
<path d="M366.218 215.754C368.999 216.934 371.537 219.188 372.711 220.475C374.051 221.944 377.429 220.475 381.557 222.244C385.685 224.013 381.797 232.513 381.797 232.513C381.797 232.513 379.564 234.992 375.784 230.466C372.003 225.939 372.711 226.372 372.711 226.372C370.677 223.932 367.969 224.398 367.385 224.988C366.802 225.578 368.005 226.957 367.4 232.268C366.796 237.578 364.455 237.579 362.685 237.578C360.915 237.578 359.977 234.839 360.918 231.678C361.136 229.936 361.42 227.918 361.487 226.167C361.487 223.219 360.861 219.789 361.487 217.911C360.912 219.958 362.077 216.141 361.487 217.911C362.023 216.003 363.437 214.575 366.218 215.754Z" fill="white"/>
<path d="M349.096 195.844C349.098 195.844 353.224 197.024 356.763 197.024C358.886 197.024 361.48 197.024 360.891 201.152C360.302 205.281 356.706 204.432 354.403 203.511C351.455 202.332 350.405 199.842 348.506 201.742C347.917 202.331 347.916 205.281 347.916 208.819C347.916 212.358 345.517 212.847 344.377 212.358C343.237 211.869 343.199 210 343.199 209.409C343.198 208.819 344.31 207.621 344.377 205.871C344.377 202.922 343.123 202.321 343.198 199.973C343.242 198.571 343.045 197.122 343.787 196.435C344.953 195.355 349.096 195.844 349.096 195.844Z" fill="white"/>
<path d="M372.686 352.721C374.316 353.979 375.045 355.596 375.044 357.439C375.043 362.3 372.097 361.828 372.095 364.26C372.094 366.691 372.222 368.1 372.685 370.414C373.865 376.311 373.123 380.43 370.983 379.14C368.843 377.849 367.666 377.528 365.979 376.133C364.604 374.996 363.122 374.428 362.691 372.698C361.977 369.837 365.132 367.379 364.842 364.26C364.67 362.411 364.754 360.635 363.413 360.969C356.547 362.681 353.542 362.822 351.255 360.961C348.968 359.101 349.678 359.533 349.965 358.246C350.253 356.96 352.286 355.059 353.835 354.238C355.584 353.311 356.64 353.75 358.532 353.901C360.39 354.049 361.165 353.737 362.66 353.311C365.056 352.628 365.788 350.515 367.968 350.362C369.945 350.223 371.182 351.56 372.686 352.721Z" fill="white"/>
<path d="M349.515 377.451C350.692 379.812 350.549 380.384 350.102 382.172C348.925 386.888 346.57 385.117 345.981 387.476C345.391 389.835 345.391 391.604 345.391 393.963C345.391 399.271 343.614 403.991 341.85 402.221C340.086 400.452 339.022 399.855 337.722 398.093C336.663 396.657 335.363 395.748 335.363 393.965C335.363 391.016 339.019 389.395 339.491 386.298C339.771 384.462 340.283 382.759 338.902 382.759C331.824 382.759 328.875 382.169 327.106 379.81C325.337 377.452 325.922 378.043 326.512 376.864C327.102 375.685 329.482 373.91 331.236 373.911C334.185 373.911 334.151 374.487 335.95 375.092C337.718 375.685 338.402 376.239 340.079 376.271C342.263 376.312 343.235 374.123 345.387 374.501C347.338 374.845 348.632 375.677 349.515 377.451Z" fill="white"/>
<path d="M258.864 419.955C257.684 421.134 254.921 422.314 252.966 422.314C251.012 422.314 249.428 419.814 249.428 418.185C249.428 416.557 251.787 414.057 254.146 413.467C264.172 409.929 262.992 416.416 258.864 419.955Z" fill="#A7A7A7"/>
<path d="M295.429 419.954C295.429 421.257 294.839 424.673 291.301 424.083C288.369 424.083 285.991 421.724 284.222 419.954C278.324 414.647 285.402 413.467 290.71 415.826C294.839 417.005 295.429 418.651 295.429 419.954Z" fill="#A7A7A7"/>
<path d="M268.834 50.459C268.834 50.459 279.393 63.7059 287.859 70.3113C300.047 79.8204 309.371 81.2498 323.428 87.6822C338.431 94.5479 349.622 93.6717 362.305 104.226C369.523 110.232 374.642 113.663 378.022 122.424C381.625 131.767 378.022 149.721 378.022 149.721C378.022 149.721 347.417 117.461 269.662 114.152C210.108 111.618 163.781 148.066 163.781 148.066C163.781 148.066 158.653 131.838 162.127 122.424C165.528 113.207 171.793 110.322 179.498 104.226C190.828 95.2625 199.515 93.8362 212.585 87.6822C227.897 80.4725 239.387 81.2645 252.29 70.3113C259.983 63.7801 268.834 50.459 268.834 50.459Z" fill="#A7A7A7"/>
<path d="M35.5726 225.825C35.5726 225.825 57.0778 220.036 60.3865 216.727C71.2558 205.858 75.8277 198.749 85.6461 186.959C96.126 174.375 100.53 166.815 112.499 156.343C119.116 150.552 130.467 140.766 139.796 139.799C149.745 138.768 164.608 149.724 164.608 149.724C164.608 149.724 123.226 172.936 100.088 246.505C82.3662 302.852 107.534 359.002 107.534 359.002C107.534 359.002 87.9449 364.5 77.8346 350.343C72.1309 342.357 70.0895 338.176 66.1777 329.223C60.4255 316.059 62.3369 307.758 59.7447 293.654C56.7078 277.132 61.8679 266.653 54.5971 251.468C50.2616 242.414 35.5726 225.825 35.5726 225.825Z" fill="#A7A7A7"/>
<path d="M138.969 489.697C138.969 489.697 140.553 468.892 138.143 464.881C130.226 451.705 114.12 428.457 105.056 416.078C105.056 416.078 92.6479 395.42 92.6479 379.682C92.6479 365.62 107.501 361.043 107.501 361.043C107.501 361.043 117.252 381.762 133.179 402.016C143.487 415.125 157.345 427.373 169.575 435.93C183.659 445.785 202.605 455.476 220.86 460.746C246.324 468.097 269.663 469.018 269.663 469.018C269.663 469.018 265.044 481.034 259.737 488.075C254.774 494.66 235.07 492.128 219.206 491.383C199.08 490.439 184.666 483.176 167.921 481.425C157.889 480.376 138.969 489.697 138.969 489.697Z" fill="#A7A7A7"/>
<path d="M406.972 491.351C406.972 491.351 385.124 481.521 380.503 482.253C365.32 484.657 352.362 486.757 337.489 490.524C337.489 490.524 302.45 498.901 287.858 493.006C274.82 487.738 269.66 469.845 269.66 469.845C269.66 469.845 297.855 467.925 322.6 460.746C338.617 456.098 356.318 445.568 368.833 437.435C383.247 428.068 399.329 414.132 411.054 399.18C427.409 378.324 436.752 354.866 436.752 354.866C436.752 354.866 449.16 362.311 452.468 373.064C454.893 380.945 447.522 399.166 440.889 413.596C432.474 431.902 418.95 443.395 411.054 458.264C406.323 467.173 406.972 491.351 406.972 491.351Z" fill="#A7A7A7"/>
<path d="M502.102 225.826C502.102 225.826 488.426 242.812 487.215 247.332C483.236 262.18 483.906 272.148 482.251 287.063C480.446 303.339 479.433 311.95 474.304 327.004C471.469 335.327 468.341 344.401 460.745 349.903C452.644 355.77 436.757 354.979 436.757 354.979C436.757 354.979 459.09 307.716 441.72 242.369C426.545 185.283 377.274 149.013 377.274 149.013C377.274 149.013 395.598 136.854 407.324 141.662C416.903 145.589 420.566 147.76 427.979 154.124C439.236 163.787 441.717 168.75 450.816 180.331C461.699 194.181 462.57 203.076 476.459 212.591C484.741 218.264 502.102 225.826 502.102 225.826Z" fill="#A7A7A7"/>
<path d="M502.102 225.826C502.102 225.826 488.426 242.812 487.215 247.332C483.236 262.18 483.906 272.148 482.251 287.063C480.446 303.339 479.433 311.95 474.304 327.004C471.469 335.327 468.341 344.401 460.745 349.903C452.644 355.77 436.757 354.979 436.757 354.979C436.757 354.979 459.09 307.716 441.72 242.369C426.545 185.283 377.274 149.013 377.274 149.013C377.274 149.013 395.598 136.854 407.324 141.662C416.903 145.589 420.566 147.76 427.979 154.124C439.236 163.787 441.717 168.75 450.816 180.331C461.699 194.181 462.57 203.076 476.459 212.591C484.741 218.264 502.102 225.826 502.102 225.826Z" fill="#A7A7A7"/>
<path d="M502.102 225.826C502.102 225.826 488.426 242.812 487.215 247.332C483.236 262.18 483.906 272.148 482.251 287.063C480.446 303.339 479.433 311.95 474.304 327.004C471.469 335.327 468.341 344.401 460.745 349.903C452.644 355.77 436.757 354.979 436.757 354.979C436.757 354.979 459.09 307.716 441.72 242.369C426.545 185.283 377.274 149.013 377.274 149.013C377.274 149.013 395.598 136.854 407.324 141.662C416.903 145.589 420.566 147.76 427.979 154.124C439.236 163.787 441.717 168.75 450.816 180.331C461.699 194.181 462.57 203.076 476.459 212.591C484.741 218.264 502.102 225.826 502.102 225.826Z" fill="#A7A7A7"/>
<path d="M502.102 225.826C502.102 225.826 488.426 242.812 487.215 247.332C483.236 262.18 483.906 272.148 482.251 287.063C480.446 303.339 479.433 311.95 474.304 327.004C471.469 335.327 468.341 344.401 460.745 349.903C452.644 355.77 436.757 354.979 436.757 354.979C436.757 354.979 459.09 307.716 441.72 242.369C426.545 185.283 377.274 149.013 377.274 149.013C377.274 149.013 395.598 136.854 407.324 141.662C416.903 145.589 420.566 147.76 427.979 154.124C439.236 163.787 441.717 168.75 450.816 180.331C461.699 194.181 462.57 203.076 476.459 212.591C484.741 218.264 502.102 225.826 502.102 225.826Z" fill="#A7A7A7"/>
<path d="M270.727 113.381C368.207 113.381 449.312 192.872 449.312 291.168C449.312 389.468 368.202 469.389 270.727 469.39C173.271 469.39 94.2462 389.707 94.2461 291.386C94.2461 193.064 173.271 113.381 270.727 113.381Z" stroke="#A7A7A7" stroke-width="3"/>
<path d="M107.061 362.203C106.408 361.042 105.754 359.882 105.1 358.721C102.979 359.867 100.384 361.617 98.7352 363.641C98.1038 364.353 97.5223 365.052 96.9369 365.76C94.2011 368.848 91.8169 373.351 91.4108 377.657C90.7825 381.534 90.7834 385.888 91.4108 389.76C92.7223 396.145 95.4363 401.111 97.9554 406.394C100.587 411.515 103.199 416.418 106.342 421.353C109.304 425.835 112.278 430.334 115.239 434.815L115.199 434.751C119.785 442.331 125.268 449.258 130.581 456.089C133.764 460.164 136.213 463.452 135.883 468.334C135.884 473.537 135.884 478.767 135.884 483.981C135.883 484.894 135.883 485.815 135.883 486.728C135.883 488.284 136.327 489.851 137.215 491.408C137.659 491.406 138.103 491.405 138.547 491.403C139.435 489.84 139.879 488.269 139.879 486.714C139.879 485.801 139.88 484.88 139.88 483.967C139.88 478.753 139.88 473.523 139.879 468.319C139.902 465.738 139.571 462.674 138.201 460.119C136.882 457.594 135.266 455.641 133.746 453.634C128.383 446.74 123.047 439.988 118.614 432.66L118.574 432.596C115.612 428.115 112.638 423.616 109.676 419.134C106.761 414.566 104.051 409.505 101.535 404.603C99.0769 399.54 96.3553 394.131 95.3672 389.183C94.782 385.419 94.7813 381.974 95.3671 378.206C95.8109 374.349 97.4125 371.357 100.011 368.307C100.584 367.613 101.147 366.938 101.716 366.297C103.249 364.482 104.845 363.441 107.061 362.203Z" fill="#A7A7A7"/>
<path d="M268.088 469.096C269.414 469.23 270.74 469.364 272.065 469.498C271.866 471.898 271.325 474.954 270.146 477.286C269.742 478.172 269.33 479.002 268.912 479.841C267.199 483.581 264.062 487.587 260.282 489.69C257.009 491.811 253.039 493.548 249.262 494.508C242.911 495.837 237.319 495.299 231.511 495.069C225.803 494.671 220.303 494.204 214.563 493.258C209.307 492.299 204.031 491.337 198.777 490.378L198.853 490.391C190.124 489.16 181.643 486.841 173.32 484.643C168.35 483.32 164.406 482.359 160.099 484.604C155.003 486.732 149.985 488.443 144.914 490.236C143.591 490.698 142.294 491.148 140.96 491.607C139.935 491.96 138.768 491.891 137.463 491.396C137.321 490.975 137.18 490.554 137.038 490.133C137.771 488.945 138.646 488.176 139.667 487.824C140.996 487.366 142.287 486.918 143.604 486.458C148.619 484.688 153.752 482.924 158.507 480.937C160.847 479.888 163.784 478.971 166.662 479.226C169.491 479.444 171.905 480.162 174.333 480.769C182.735 482.989 190.994 485.241 199.428 486.429L199.504 486.442C204.758 487.4 210.034 488.362 215.289 489.321C220.597 490.2 226.282 490.696 231.741 491.074C237.32 491.336 243.328 491.701 248.207 490.65C251.867 489.694 254.993 488.327 258.183 486.289C261.525 484.339 263.601 481.662 265.337 478.058C265.747 477.236 266.145 476.432 266.507 475.636C267.539 473.509 267.845 471.616 268.088 469.096Z" fill="#A7A7A7"/>
<path d="M272.02 470.644C270.71 470.813 269.399 470.982 268.089 471.151C268.406 473.648 269.206 476.861 270.58 479.2C271.002 479.998 271.431 480.759 271.864 481.523C273.858 485.331 277.34 489.283 281.292 491.325C284.82 493.443 289.002 495.141 292.968 496.083C299.574 497.372 305.409 496.816 311.457 496.556C317.38 496.131 323.103 495.637 329.041 494.664C334.482 493.678 339.944 492.689 345.384 491.704L345.312 491.716C354.329 490.447 363.078 488.085 371.679 485.838C376.811 484.48 380.984 483.503 385.602 485.747C390.646 487.802 395.717 489.868 400.772 491.929C401.652 492.287 402.541 492.65 403.422 493.008C404.921 493.62 406.59 493.823 408.406 493.609C408.561 493.195 408.716 492.781 408.872 492.367C407.677 490.926 406.319 489.896 404.819 489.285C403.939 488.926 403.049 488.563 402.17 488.205C397.114 486.145 392.044 484.078 386.998 482.023C384.512 480.987 381.476 480.101 378.523 480.359C375.614 480.584 373.111 481.316 370.598 481.939C361.922 484.206 353.385 486.505 344.648 487.733L344.576 487.745C339.136 488.73 333.673 489.719 328.232 490.705C322.705 491.615 316.806 492.137 311.119 492.541C305.289 492.829 299.057 493.23 293.848 492.188C289.99 491.248 286.626 489.882 283.185 487.843C279.637 485.921 277.301 483.249 275.301 479.595C274.877 478.847 274.462 478.11 274.078 477.384C272.843 475.181 272.4 473.274 272.02 470.644Z" fill="#A7A7A7"/>
<path d="M436.312 357.278C436.908 356.092 437.505 354.905 438.101 353.719C440.631 355.076 442.817 356.739 444.888 358.566C446.887 360.361 448.766 362.297 450.353 364.665C453.111 368.944 454.318 373.652 455.117 378.287C455.522 384.424 453.921 388.912 452.501 393.995C450.748 398.709 448.956 402.923 446.95 407.408C444.16 412.767 441.253 417.576 438.343 422.586L438.304 422.65C435.45 427.143 432.528 431.724 429.34 436.087C424.336 443.055 419.613 450.357 414.373 457.393C411.266 461.341 409.687 464.581 410.238 469.619C410.399 475.068 410.194 480.289 410.048 485.582C410.001 487.057 409.951 488.536 409.897 490.009C409.855 491.161 409.37 492.283 408.441 493.365C407.999 493.338 407.558 493.311 407.116 493.284C406.279 492.101 405.88 490.934 405.922 489.787C405.975 488.321 406.025 486.847 406.072 485.38C406.219 480.149 406.416 474.8 406.265 469.731C406.163 467.262 406.039 464.382 407.107 461.63C408.156 458.937 409.716 456.918 411.193 454.917C416.301 448.061 421.017 440.773 426.119 433.667C429.237 429.398 432.072 424.956 434.953 420.42L434.914 420.484C437.775 415.566 440.827 410.467 443.35 405.63C445.229 401.44 447.158 396.868 448.725 392.66C450.052 388.193 451.51 382.837 451.194 378.877C450.471 374.585 449.279 370.267 447.058 366.856C445.796 364.963 444.094 363.175 442.291 361.564C440.43 359.915 438.394 358.389 436.312 357.278Z" fill="#A7A7A7"/>
<path d="M162.56 150.514C163.479 149.548 164.397 148.581 165.315 147.614C163.311 145.73 161.113 143.55 158.402 142.031C157.09 141.276 155.743 140.658 154.401 140.106C150.079 138.27 144.698 136.468 139.463 137.478C135.175 138.058 130.653 139.61 126.851 141.489C120.327 145.144 116.039 150.129 111.275 154.626C106.63 159.127 102.192 163.557 97.9173 168.535C94.0544 173.19 90.176 177.864 86.3138 182.518L86.3631 182.461C79.7077 189.863 74.0367 198.015 68.4031 205.97C65.0721 210.709 62.2081 214.538 56.8062 215.803C51.2362 217.521 45.6323 219.249 40.0522 220.969C39.0542 221.277 38.0574 221.584 37.0643 221.89C35.3687 222.413 33.7961 223.362 32.3638 224.732C32.4954 225.156 32.627 225.579 32.7585 226.003C34.7172 226.328 36.5531 226.226 38.2487 225.703C39.2418 225.397 40.2386 225.09 41.2366 224.782C46.8169 223.061 52.4204 221.334 57.9917 219.615C60.7667 218.785 63.8931 217.44 66.1642 215.164C68.4226 212.948 70.0031 210.574 71.6692 208.282C77.3482 200.262 82.8944 192.301 89.3542 185.117L89.4036 185.06C93.2659 180.406 97.1442 175.732 101.007 171.077C104.998 166.422 109.558 161.853 114.029 157.525C118.788 152.96 123.492 147.904 128.558 145.099C132.377 143.243 135.956 142.009 140.1 141.418C144.381 140.617 148.497 141.963 152.872 143.796C154.106 144.303 155.296 144.853 156.395 145.486C158.62 146.73 160.476 148.548 162.56 150.514Z" fill="#A7A7A7"/>
<path d="M106.318 357.869C106.578 359.176 106.838 360.482 107.098 361.789C104.117 362.359 101.22 362.614 98.2652 362.721C94.6177 362.74 91.0758 362.987 86.9622 361.232C83.5537 359.618 79.957 357.136 77.3372 354.337C73.8367 350.738 70.9816 346.757 68.7028 342.279C66.3343 336.908 65.0138 331.817 63.4824 326.536L63.4862 326.55C62.0672 321.556 61.2632 316.553 60.2699 311.649C58.5553 302.523 58.0147 293.522 57.0633 284.532C56.3559 277.647 55.7466 270.517 55.5899 263.601C55.4593 257.371 53.4555 251.771 49.2738 247.171C45.0882 242.251 41.0253 237.301 36.9325 232.347C35.9128 231.11 34.8924 229.871 33.871 228.63C33.0811 227.669 32.6358 226.428 32.5316 224.899C32.8757 224.617 33.2197 224.336 33.5637 224.054C35.0431 224.454 36.1752 225.131 36.9644 226.09C37.985 227.331 39.0045 228.569 40.0233 229.805C44.1053 234.746 48.1937 239.725 52.3121 244.566C56.9235 249.507 59.5418 256.768 59.5895 263.443C59.7528 270.453 60.3347 277.171 61.0464 284.135C61.9928 293.121 62.5636 302.22 64.1963 310.87C65.1978 315.828 66.001 320.769 67.3379 325.459L67.3417 325.473C68.8024 330.562 70.2906 335.988 72.2901 340.503C74.3075 344.489 77.0555 348.322 80.1825 351.523C82.7354 354.194 85.4002 356.028 88.7701 357.664C91.1127 358.73 94.8437 358.813 98.1391 358.726C100.884 358.63 103.701 358.372 106.318 357.869Z" fill="#A7A7A7"/>
<path d="M379.537 150.51C378.619 149.543 377.7 148.576 376.781 147.609C378.931 145.597 381.3 144.022 383.752 142.632C385.395 141.71 387.071 140.88 388.849 140.161C394.04 138.462 398.624 138.144 403.918 138.763C409.082 139.833 413.456 141.606 417.975 144.15C422.867 147.259 426.952 150.886 431.022 154.661C435.569 158.841 439.432 163.731 443.258 168.293C447.516 173.303 451.468 178.582 455.397 183.756C461.142 191.193 464.465 199.618 471.05 205.29C475.521 209.601 479.518 213.057 485.088 215.176C488.951 216.788 492.965 218.227 496.978 219.617C497.914 219.94 498.855 220.261 499.796 220.577C501.404 221.118 502.882 222.074 504.219 223.435C504.084 223.857 503.948 224.28 503.813 224.703C501.916 225.026 500.141 224.907 498.516 224.36C497.567 224.041 496.616 223.717 495.669 223.39C491.607 221.982 487.558 220.534 483.534 218.855C477.739 216.738 472.444 212.253 468.337 208.226C461.076 201.902 457.536 192.964 452.205 186.167C448.243 180.949 444.386 175.796 440.189 170.858C436.262 166.174 432.632 161.573 428.272 157.563C424.364 153.924 420.218 150.299 415.892 147.559C412.104 145.396 407.458 143.543 403.249 142.699C399.204 142.163 394.097 142.582 390.35 143.865C388.786 144.497 387.225 145.266 385.725 146.109C383.482 147.376 381.328 148.829 379.537 150.51Z" fill="#A7A7A7"/>
<path d="M436.977 352.506C436.718 353.813 436.458 355.12 436.199 356.427C439.056 356.974 441.831 357.204 444.662 357.276C448.121 357.266 451.513 357.407 455.366 355.715C458.71 354.127 462.246 351.681 464.816 348.931C468.254 345.39 471.057 341.477 473.295 337.073C475.624 331.79 476.92 326.791 478.425 321.601L478.422 321.615C479.816 316.707 480.608 311.792 481.584 306.975C483.271 298.007 483.806 289.165 484.744 280.335C485.442 273.572 486.044 266.565 486.201 259.773C486.427 253.569 487.019 247.576 490.916 243.326L490.996 243.226C494.024 239.201 497.051 235.176 500.078 231.151C500.998 229.929 501.917 228.707 502.836 227.485C503.551 226.535 503.91 225.317 503.914 223.832C503.558 223.565 503.203 223.298 502.847 223.031C501.421 223.447 500.351 224.13 499.636 225.08C498.717 226.302 497.798 227.524 496.879 228.746C493.851 232.771 490.824 236.796 487.796 240.821L487.877 240.721C483.061 245.973 482.414 253.459 482.203 259.611C482.038 266.498 481.464 273.093 480.762 279.934C479.829 288.761 479.264 297.7 477.659 306.193C476.674 311.064 475.884 315.917 474.571 320.522L474.567 320.536C473.133 325.535 471.669 330.867 469.709 335.296C467.73 339.208 465.035 342.974 461.969 346.117C459.466 348.74 456.86 350.538 453.554 352.147C451.329 353.185 447.856 353.33 444.744 353.279C442.137 353.216 439.461 352.984 436.977 352.506Z" fill="#A7A7A7"/>
<path d="M167.01 148.264C165.848 148.901 164.686 149.537 163.524 150.173C162.139 147.492 161.257 144.813 160.454 142.091C159.758 139.639 159.144 137.24 158.796 134.558C158.423 129.65 158.996 125.251 160.871 120.653C162.96 115.851 166.722 112.224 170.267 109.077C174.551 105.176 179.601 102.09 184.304 99.1672C189.479 95.8212 195.163 93.3234 200.523 90.7756C206.422 87.9253 212.5 85.4419 218.473 82.9527C226.864 79.3794 235.554 77.111 243.344 73.1659L243.231 73.2265C248.052 70.2572 252.83 66.5577 256.26 62.1509C258.796 58.8167 261.205 55.2899 263.567 51.7531C264.123 50.9187 264.677 50.0806 265.226 49.2427C266.166 47.8077 267.469 46.6105 269.124 45.6576C269.495 45.9013 269.865 46.1451 270.235 46.3889C270.05 48.3335 269.472 50.0418 268.523 51.4915C267.968 52.3377 267.409 53.1842 266.847 54.0277C264.455 57.6073 262.028 61.1653 259.388 64.6377C255.396 69.7186 250.506 73.452 245.203 76.7341L245.091 76.7947C236.834 80.9574 228.085 83.2252 219.985 86.6892C213.962 89.1992 208.027 91.6235 202.212 94.4332C196.71 97.0466 191.36 99.3944 186.393 102.604C181.548 105.618 176.955 108.418 172.866 112.132C169.398 115.208 166.196 118.36 164.469 122.354C163.014 125.787 162.398 130.32 162.73 134.092C163.011 136.291 163.602 138.68 164.254 140.958C164.999 143.503 165.873 146.076 167.01 148.264Z" fill="#A7A7A7"/>
<path d="M375.62 148.168C376.807 148.767 377.994 149.367 379.181 149.966C380.436 147.392 381.501 144.683 382.253 141.859C383.186 138.361 383.634 134.658 383.309 130.948C383.036 126.029 381.239 120.696 378.569 116.601C376.371 112.757 372.836 109.816 369.944 107.186C366.231 103.681 361.888 100.55 357.558 97.9775C352.071 94.7367 346.454 92.4004 340.706 90.1248L340.622 90.0949C333.41 87.68 326.154 85.1985 319.116 82.44C312.851 79.9944 306.849 77.2545 300.845 74.1803C294.778 71.19 289.257 67.9685 284.409 63.4123C280.96 60.2283 277.934 56.2504 275.089 52.2378C274.204 50.9801 273.341 49.7072 272.503 48.4301C271.844 47.4231 270.833 46.6651 269.467 46.1267C269.091 46.3598 268.716 46.5929 268.34 46.826C268.228 48.3376 268.521 49.6145 269.2 50.6513C270.061 51.9648 270.948 53.2726 271.86 54.5691C274.812 58.7171 277.873 62.8007 281.77 66.411C286.814 71.1816 293.062 74.8331 299.086 77.7849C305.108 80.8707 311.377 83.7323 317.684 86.1915C324.888 89.0142 332.126 91.4868 339.407 93.9252L339.323 93.8954C344.863 96.0822 350.521 98.4642 355.524 101.429C359.82 103.994 363.66 106.76 367.287 110.168C370.416 113.01 373.275 115.374 375.193 118.707C377.695 122.65 379.037 126.631 379.353 131.285C379.63 134.438 379.254 137.663 378.42 140.792C377.747 143.317 376.781 145.786 375.62 148.168Z" fill="#A7A7A7"/>
<path d="M269.502 179.5C269.502 179.5 264.839 208.148 263.569 242.444C262.517 270.843 271.613 299.603 271.613 299.603C271.613 299.603 255.101 287.325 239.011 280.974C222.922 274.622 200.502 273.5 200.502 273.5L269.502 179.5Z" fill="#A7A7A7"/>
<path d="M288.548 155.223C288.548 155.223 305.966 190.56 318.61 212.382C331.282 234.251 353.329 267.001 353.329 267.001C353.329 267.001 327.22 273.468 311.412 280.127C296.757 286.3 274.576 299.603 274.576 299.603C274.576 299.603 281.398 265.727 280.927 236.093C280.504 209.418 274.576 173.852 274.576 173.852L288.548 155.223Z" fill="#A7A7A7"/>
<path d="M194.984 276.907C197.813 274.887 200.631 275.236 203.876 276.483C207.15 277.742 210.227 282.834 210.227 282.834C210.227 282.834 220.501 290.175 227.587 293.843C235.252 297.811 247.91 301.888 247.91 301.888C247.91 301.888 271.198 303.581 287.71 302.311C292.468 301.945 295.178 301.227 299.565 299.347C304.076 297.414 306.141 295.405 310.15 292.573C313.905 289.92 319.465 285.375 319.465 285.375L342.329 277.33C342.329 277.33 342.701 279.921 343.002 281.596C343.267 283.07 342.502 285.596 342.502 285.596C342.502 285.596 337.229 285.572 333.005 287.325C329.442 288.803 327.345 290.767 324.546 293.42C316.502 301.041 315.232 308.239 307.187 315.86C303.224 319.614 300.856 321.766 295.332 323.481C294.03 323.885 290.674 323.905 290.674 323.905L250.027 323.481C250.027 323.481 235.633 315.86 226.74 308.662C218.71 302.162 202.596 288.172 202.596 288.172L195.822 291.982C195.822 291.982 191.711 287.931 191.597 284.528C191.488 281.273 192.334 278.8 194.984 276.907Z" fill="#A7A7A7"/>
<path d="M272.459 170.889V298.756" stroke="#A7A7A7" stroke-width="5" stroke-linecap="round"/>
<path d="M288.002 153.6C290.002 155.096 304.613 191.376 318 214.096C330.856 235.915 338.616 245.721 354.707 267.556" stroke="#A7A7A7" stroke-width="2"/>
<path d="M289 153.096C260.839 190.026 226.324 237.169 199.923 274.457" stroke="#A7A7A7" stroke-width="2"/>
<path d="M211.944 324.493C211.944 324.493 220.446 325.486 225.907 325.34C231.566 325.189 234.643 323.65 240.303 323.646C248.349 323.641 252.583 326.83 260.627 327.034C268.951 327.244 273.47 324.538 281.797 324.493C289.776 324.45 294.16 327.165 302.12 326.61C308.008 326.2 311.038 323.759 316.939 323.646C321.946 323.551 330.488 325.763 330.488 325.763" stroke="#A7A7A7" stroke-width="3"/>
<path d="M211.509 326.611C211.509 326.611 212.028 326.774 213.204 327.034C214.379 327.294 221.31 327.49 225.912 327.368C231.571 327.217 234.647 325.678 240.308 325.674C248.354 325.668 252.588 328.858 260.631 329.061C268.956 329.272 273.475 326.566 281.802 326.521C289.781 326.477 294.164 329.192 302.125 328.638C308.013 328.228 311.043 325.786 316.944 325.674C321.95 325.578 330.063 327.457 330.063 327.457" stroke="#A7A7A7" stroke-width="3"/>
<path d="M329.639 329.575C329.639 329.575 321.95 328.119 316.944 328.214C311.043 328.327 308.012 330.768 302.125 331.178C294.164 331.733 289.781 329.018 281.801 329.061C273.475 329.107 268.955 331.813 260.631 331.602C252.587 331.398 248.354 328.209 240.308 328.215C234.647 328.219 231.571 329.757 225.912 329.908C221.837 330.017 215.689 329.519 212.78 329.151M212.78 329.151C211.79 329.026 211.087 328.727 211.087 328.727L212.78 329.151Z" stroke="#A7A7A7" stroke-width="3"/>
<path d="M199.791 273.999C230.882 275.793 246.339 281.254 272.586 301.468" stroke="#A7A7A7" stroke-width="2"/>
<path d="M355.001 266.096C354 267.096 354.089 267.216 352.5 267.596C345.464 269.279 325.152 273.951 312 279.596C296.131 286.408 272.5 301.596 272.5 301.596" stroke="#A7A7A7" stroke-width="2"/>
<path d="M274.002 173.101C274.426 173.524 274.232 173.35 274.396 174.122C281.845 209.237 282.621 265.588 273.501 300.096" stroke="#A7A7A7" stroke-width="2"/>
<path d="M273.412 175.117C273.151 176.048 270.872 177.658 270.627 178.589C262.36 212.148 260.626 286.109 272.502 300.596" stroke="#A7A7A7" stroke-width="2"/>
<path d="M199.98 275.773C206.554 277.267 207.582 278.992 209.278 283.242C223.467 293.634 232.008 297.43 247.82 302.065C262.872 302.701 271.31 303.13 286.362 302.364C286.362 302.364 295.038 301.976 298.911 300.272C307.375 295.704 318.929 285.632 318.929 285.632C318.929 285.632 331.83 280.076 341.042 277.267" stroke="#A7A7A7" stroke-width="3"/>
<path d="M200.483 275.691C195.201 275.691 191.617 278.761 192.214 284.139" stroke="#A7A7A7" stroke-width="3"/>
<path d="M192.119 283.509C192.543 286.473 193.314 288.575 195.801 291.309C198.775 290.013 200.283 289.076 202.757 287.139" stroke="#A7A7A7" stroke-width="3"/>
<path d="M201.012 286.049C219.647 301.856 245.098 323.279 250.774 323.279C256.451 323.279 283.64 323.279 291.408 323.279C299.176 323.279 309.644 312.594 316.804 301.767C324.493 289.09 333.535 284.139 343.675 285.335" stroke="#A7A7A7" stroke-width="3"/>
<path d="M341.5 275.596C341.5 275.596 342.189 278.251 342.918 280.662C343.678 283.175 342.5 286.596 342.5 286.596" stroke="#A7A7A7" stroke-width="3"/>
<path d="M204.113 329.598C204.113 329.598 218.01 335.368 227.443 336.542C235.949 337.6 240.814 335.903 249.385 335.986C255.571 336.047 259.248 334.915 265.217 336.542C268.501 337.437 273.271 339.875 273.271 339.875L272.994 357.095C272.994 357.095 267 354.831 262.995 354.04C254.373 352.336 249.283 354.808 240.497 354.595C232.563 354.403 229.708 355.4 221.888 354.04C209.112 351.818 197.725 345.43 197.725 345.43C197.725 345.43 198.591 339.883 199.947 336.542C201.095 333.71 204.113 329.598 204.113 329.598Z" fill="#AC6D4C"/>
<path d="M339.096 329.598C339.096 329.598 329.097 334.32 319.376 335.986C310.928 337.435 308.266 337.097 299.378 336.542C293.204 336.156 287.571 334.36 281.603 335.986C278.318 336.881 273.826 340.43 273.826 340.43V356.539C273.826 356.539 277.992 353.762 283.547 353.207C292.292 352.332 297.258 354.53 306.044 354.318C313.979 354.125 317.112 354.844 324.931 353.484C337.707 351.262 345.762 346.818 345.762 346.818C345.762 346.818 344.062 341.272 342.707 337.931C341.558 335.098 339.096 329.598 339.096 329.598Z" fill="#AC6D4C"/>
<path d="M274.38 344.319C274.38 344.319 280.267 340.531 284.656 339.875C291.329 338.879 295.965 340.538 302.71 340.709C310.741 340.911 314.2 341.011 322.152 339.875C329.929 338.764 340.483 333.765 340.483 333.765" stroke="#71432A" stroke-width="2"/>
<path d="M274.196 348.188C274.196 348.188 280.084 344.4 284.473 343.744C291.146 342.748 295.782 344.407 302.526 344.578C310.557 344.78 314.016 344.88 321.968 343.744C329.745 342.634 342.152 338.209 342.152 338.209" stroke="#71432A" stroke-width="2"/>
<path d="M272.436 344.875C272.436 344.875 267.103 341.641 262.714 340.986C256.041 339.99 251.128 341.275 244.383 341.445C236.352 341.648 230.393 341.748 222.441 340.612C214.664 339.501 202.165 333.487 202.165 333.487" stroke="#71432A" stroke-width="2"/>
<path d="M271.882 348.208C271.882 348.208 265.717 344.974 261.327 344.319C254.655 343.323 248.899 345.163 242.154 345.334C234.123 345.536 228.164 345.636 220.212 344.5C212.435 343.389 199.936 337.375 199.936 337.375" stroke="#71432A" stroke-width="2"/>
<path d="M271.883 351.541C271.883 351.541 263.542 348.351 259.107 348.208C250.507 347.93 247.798 348.871 241.054 349.041C233.023 349.244 227.064 348.788 219.112 347.652C211.335 346.541 198.826 340.153 198.826 340.153" stroke="#71432A" stroke-width="2"/>
<path d="M274.196 351.823C274.196 351.823 280.084 348.034 284.473 347.379C291.146 346.383 295.782 348.042 302.526 348.212C310.557 348.415 314.016 348.515 321.968 347.379C329.745 346.268 343.263 342.097 343.263 342.097" stroke="#71432A" stroke-width="2"/>
<line x1="273.604" y1="339.597" x2="273.604" y2="357.373" stroke="#241407" stroke-width="4"/>
<path d="M203.003 327.101C206.78 329.963 208.013 330.847 208.502 331.101C217.368 335.692 225.355 336.678 231.022 336.873C237.002 337.08 259.066 335.43 264.427 336.255C269.789 337.08 273.706 340.173 273.706 340.173C273.706 340.173 279.921 335.512 284.223 335.43C288.525 335.347 298.863 336.873 306.905 336.873C314.351 336.873 325.234 336.64 335.634 330.927C336.467 330.47 339.499 328.601 340.499 328.101" stroke="#241407" stroke-width="4"/>
<path d="M197.001 344.601C197.53 344.969 199.654 346.467 200.322 346.82C208.246 351.008 225.093 354.023 230.608 354.214C236.588 354.42 258.652 352.77 264.014 353.595C269.375 354.42 273.293 357.513 273.293 357.513C273.293 357.513 279.508 352.853 283.809 352.77C288.111 352.688 298.45 354.214 306.492 354.214C313.555 354.214 332.293 351.97 341.639 348.489C342.934 348.007 346.622 346.627 347.5 346.1" stroke="#241407" stroke-width="4"/>
<path d="M338.12 328.004C341.95 334.653 343.121 339.724 345.956 347.594" stroke="#241407" stroke-width="4"/>
<path d="M205.117 327.591C200.413 333.592 198.61 339.098 197.693 346.562" stroke="#241407" stroke-width="4"/>
<path d="M190.532 442.119L199.878 422.784L205.721 425.609L202.854 440.493L212.697 428.981L218.553 431.812L209.207 451.146L205.58 449.393L212.937 434.173L201.742 447.538L197.984 445.721L201.516 428.652L194.159 443.872L190.532 442.119ZM238.587 459.831L233.994 458.755L233.28 453.578L224.922 451.621L222.085 455.967L217.606 454.918L230.646 435.916L235.11 436.961L238.587 459.831ZM232.75 449.738L231.686 441.305L227.045 448.402L232.75 449.738ZM247.699 461.302L248.467 440.017L252.801 440.174L252.162 457.843L262.936 458.232L262.806 461.848L247.699 461.302ZM291.531 459.487L286.846 460.035L284.417 455.407L275.892 456.403L274.697 461.454L270.129 461.988L275.944 439.688L280.498 439.156L291.531 459.487ZM282.615 451.975L278.752 444.404L276.796 452.655L282.615 451.975ZM299.959 458.115L294.688 437.297L298.778 436.261L310.818 448.006L307.298 434.104L311.203 433.115L316.474 453.933L312.257 455.001L300.427 443.55L303.864 457.126L299.959 458.115ZM333.156 439.778L331.785 436.43L340.435 432.89L343.675 440.808C343.167 441.965 342.241 443.183 340.896 444.461C339.557 445.727 338.069 446.694 336.434 447.364C334.355 448.214 332.365 448.522 330.465 448.287C328.56 448.042 326.888 447.27 325.449 445.97C324.006 444.662 322.895 443.054 322.114 441.147C321.267 439.077 320.948 437.06 321.158 435.096C321.367 433.132 322.132 431.379 323.453 429.836C324.457 428.655 325.909 427.676 327.807 426.899C330.274 425.89 332.412 425.622 334.22 426.095C336.034 426.556 337.513 427.618 338.657 429.281L334.977 431.658C334.297 430.796 333.454 430.244 332.447 430.002C331.446 429.747 330.367 429.856 329.21 430.329C327.457 431.047 326.288 432.174 325.703 433.711C325.128 435.244 325.288 437.105 326.183 439.292C327.148 441.651 328.397 443.208 329.93 443.963C331.459 444.709 333.073 444.734 334.772 444.039C335.613 443.695 336.387 443.188 337.094 442.519C337.807 441.837 338.37 441.137 338.783 440.419L337.752 437.898L333.156 439.778Z" fill="#A7A7A7"/>
<path d="M171.187 413.637L174.929 415.15L176.533 410.923L176.997 409.699L177.466 410.921L179.092 415.149L182.812 413.637L183.894 413.197L183.466 414.284L181.989 418.023L186.179 419.634L187.402 420.104L186.178 420.568L181.975 422.163L183.465 425.916L183.896 427.005L182.812 426.564L179.073 425.045L177.468 429.278L176.999 430.51L176.533 429.278L174.931 425.057L171.186 426.565L170.095 427.004L170.537 425.914L172.049 422.171L167.822 420.568L166.59 420.101L167.822 419.633L172.047 418.031L170.537 414.288L170.095 413.196L171.187 413.637Z" fill="#A7A7A7" stroke="#A7A7A7"/>
<path d="M356.187 414.637L359.929 416.15L361.533 411.923L361.997 410.699L362.466 411.921L364.092 416.149L367.812 414.637L368.894 414.197L368.466 415.284L366.989 419.023L371.179 420.634L372.402 421.104L371.178 421.568L366.975 423.163L368.465 426.916L368.896 428.005L367.812 427.564L364.073 426.045L362.468 430.278L361.999 431.51L361.533 430.278L359.931 426.057L356.186 427.565L355.095 428.004L355.537 426.914L357.049 423.171L352.822 421.568L351.59 421.101L352.822 420.633L357.047 419.031L355.537 415.288L355.095 414.196L356.187 414.637Z" fill="#A7A7A7" stroke="#A7A7A7"/>
</svg>
